<svg xmlns:xlink="http://www.w3.org/1999/xlink" width="576pt" height="360pt" viewBox="0 0 576 360" xmlns="http://www.w3.org/2000/svg" version="1.1">
 <metadata>
  <rdf:RDF xmlns:dc="http://purl.org/dc/elements/1.1/" xmlns:cc="http://creativecommons.org/ns#" xmlns:rdf="http://www.w3.org/1999/02/22-rdf-syntax-ns#">
   <cc:Work>
    <dc:type rdf:resource="http://purl.org/dc/dcmitype/StillImage"/>
    <dc:date>2026-06-02T16:53:26.806181</dc:date>
    <dc:format>image/svg+xml</dc:format>
    <dc:creator>
     <cc:Agent>
      <dc:title>Matplotlib v3.10.8, https://matplotlib.org/</dc:title>
     </cc:Agent>
    </dc:creator>
   </cc:Work>
  </rdf:RDF>
 </metadata>
 <defs>
  <style type="text/css">*{stroke-linejoin: round; stroke-linecap: butt}</style>
 </defs>
 <g id="figure_1">
  <g id="patch_1">
   <path d="M 0 360 
L 576 360 
L 576 0 
L 0 0 
z
" style="fill: #ffffff"/>
  </g>
  <g id="axes_1">
   <g id="patch_2">
    <path d="M 47.966 313.480926 
L 561.744 313.480926 
L 561.744 41.472 
L 47.966 41.472 
z
" style="fill: #ffffff"/>
   </g>
   <g id="matplotlib.axis_1">
    <g id="xtick_1">
     <g id="line2d_1">
      <path d="M 60.001187 313.480926 
L 60.001187 41.472 
" clip-path="url(#p05dea35ebb)" style="fill: none; stroke: #dddddd; stroke-width: 0.5; stroke-linecap: round"/>
     </g>
     <g id="text_1">
      <!-- 2016 -->
      <g style="fill: #666666" transform="translate(35.48973 343.939) rotate(-30) scale(0.121 -0.121)">
       <defs>
        <path id="ArialMT-32" d="M 3222 541 
L 3222 0 
L 194 0 
Q 188 203 259 391 
Q 375 700 629 1000 
Q 884 1300 1366 1694 
Q 2113 2306 2375 2664 
Q 2638 3022 2638 3341 
Q 2638 3675 2398 3904 
Q 2159 4134 1775 4134 
Q 1369 4134 1125 3890 
Q 881 3647 878 3216 
L 300 3275 
Q 359 3922 746 4261 
Q 1134 4600 1788 4600 
Q 2447 4600 2831 4234 
Q 3216 3869 3216 3328 
Q 3216 3053 3103 2787 
Q 2991 2522 2730 2228 
Q 2469 1934 1863 1422 
Q 1356 997 1212 845 
Q 1069 694 975 541 
L 3222 541 
z
" transform="scale(0.015625)"/>
        <path id="ArialMT-30" d="M 266 2259 
Q 266 3072 433 3567 
Q 600 4063 929 4331 
Q 1259 4600 1759 4600 
Q 2128 4600 2406 4451 
Q 2684 4303 2865 4023 
Q 3047 3744 3150 3342 
Q 3253 2941 3253 2259 
Q 3253 1453 3087 958 
Q 2922 463 2592 192 
Q 2263 -78 1759 -78 
Q 1097 -78 719 397 
Q 266 969 266 2259 
z
M 844 2259 
Q 844 1131 1108 757 
Q 1372 384 1759 384 
Q 2147 384 2411 759 
Q 2675 1134 2675 2259 
Q 2675 3391 2411 3762 
Q 2147 4134 1753 4134 
Q 1366 4134 1134 3806 
Q 844 3388 844 2259 
z
" transform="scale(0.015625)"/>
        <path id="ArialMT-31" d="M 2384 0 
L 1822 0 
L 1822 3584 
Q 1619 3391 1289 3197 
Q 959 3003 697 2906 
L 697 3450 
Q 1169 3672 1522 3987 
Q 1875 4303 2022 4600 
L 2384 4600 
L 2384 0 
z
" transform="scale(0.015625)"/>
        <path id="ArialMT-36" d="M 3184 3459 
L 2625 3416 
Q 2550 3747 2413 3897 
Q 2184 4138 1850 4138 
Q 1581 4138 1378 3988 
Q 1113 3794 959 3422 
Q 806 3050 800 2363 
Q 1003 2672 1297 2822 
Q 1591 2972 1913 2972 
Q 2475 2972 2870 2558 
Q 3266 2144 3266 1488 
Q 3266 1056 3080 686 
Q 2894 316 2569 119 
Q 2244 -78 1831 -78 
Q 1128 -78 684 439 
Q 241 956 241 2144 
Q 241 3472 731 4075 
Q 1159 4600 1884 4600 
Q 2425 4600 2770 4297 
Q 3116 3994 3184 3459 
z
M 888 1484 
Q 888 1194 1011 928 
Q 1134 663 1356 523 
Q 1578 384 1822 384 
Q 2178 384 2434 671 
Q 2691 959 2691 1453 
Q 2691 1928 2437 2201 
Q 2184 2475 1800 2475 
Q 1419 2475 1153 2201 
Q 888 1928 888 1484 
z
" transform="scale(0.015625)"/>
       </defs>
       <use xlink:href="#ArialMT-32"/>
       <use xlink:href="#ArialMT-30" transform="translate(55.615234 0)"/>
       <use xlink:href="#ArialMT-31" transform="translate(111.230469 0)"/>
       <use xlink:href="#ArialMT-36" transform="translate(166.845703 0)"/>
      </g>
     </g>
    </g>
    <g id="xtick_2">
     <g id="line2d_2">
      <path d="M 151.931407 313.480926 
L 151.931407 41.472 
" clip-path="url(#p05dea35ebb)" style="fill: none; stroke: #dddddd; stroke-width: 0.5; stroke-linecap: round"/>
     </g>
     <g id="text_2">
      <!-- 2018 -->
      <g style="fill: #666666" transform="translate(127.41995 343.939) rotate(-30) scale(0.121 -0.121)">
       <defs>
        <path id="ArialMT-38" d="M 1131 2484 
Q 781 2613 612 2850 
Q 444 3088 444 3419 
Q 444 3919 803 4259 
Q 1163 4600 1759 4600 
Q 2359 4600 2725 4251 
Q 3091 3903 3091 3403 
Q 3091 3084 2923 2848 
Q 2756 2613 2416 2484 
Q 2838 2347 3058 2040 
Q 3278 1734 3278 1309 
Q 3278 722 2862 322 
Q 2447 -78 1769 -78 
Q 1091 -78 675 323 
Q 259 725 259 1325 
Q 259 1772 486 2073 
Q 713 2375 1131 2484 
z
M 1019 3438 
Q 1019 3113 1228 2906 
Q 1438 2700 1772 2700 
Q 2097 2700 2305 2904 
Q 2513 3109 2513 3406 
Q 2513 3716 2298 3927 
Q 2084 4138 1766 4138 
Q 1444 4138 1231 3931 
Q 1019 3725 1019 3438 
z
M 838 1322 
Q 838 1081 952 856 
Q 1066 631 1291 507 
Q 1516 384 1775 384 
Q 2178 384 2440 643 
Q 2703 903 2703 1303 
Q 2703 1709 2433 1975 
Q 2163 2241 1756 2241 
Q 1359 2241 1098 1978 
Q 838 1716 838 1322 
z
" transform="scale(0.015625)"/>
       </defs>
       <use xlink:href="#ArialMT-32"/>
       <use xlink:href="#ArialMT-30" transform="translate(55.615234 0)"/>
       <use xlink:href="#ArialMT-31" transform="translate(111.230469 0)"/>
       <use xlink:href="#ArialMT-38" transform="translate(166.845703 0)"/>
      </g>
     </g>
    </g>
    <g id="xtick_3">
     <g id="line2d_3">
      <path d="M 243.735867 313.480926 
L 243.735867 41.472 
" clip-path="url(#p05dea35ebb)" style="fill: none; stroke: #dddddd; stroke-width: 0.5; stroke-linecap: round"/>
     </g>
     <g id="text_3">
      <!-- 2020 -->
      <g style="fill: #666666" transform="translate(219.224409 343.939) rotate(-30) scale(0.121 -0.121)">
       <use xlink:href="#ArialMT-32"/>
       <use xlink:href="#ArialMT-30" transform="translate(55.615234 0)"/>
       <use xlink:href="#ArialMT-32" transform="translate(111.230469 0)"/>
       <use xlink:href="#ArialMT-30" transform="translate(166.845703 0)"/>
      </g>
     </g>
    </g>
    <g id="xtick_4">
     <g id="line2d_4">
      <path d="M 335.666086 313.480926 
L 335.666086 41.472 
" clip-path="url(#p05dea35ebb)" style="fill: none; stroke: #dddddd; stroke-width: 0.5; stroke-linecap: round"/>
     </g>
     <g id="text_4">
      <!-- 2022 -->
      <g style="fill: #666666" transform="translate(311.154629 343.939) rotate(-30) scale(0.121 -0.121)">
       <use xlink:href="#ArialMT-32"/>
       <use xlink:href="#ArialMT-30" transform="translate(55.615234 0)"/>
       <use xlink:href="#ArialMT-32" transform="translate(111.230469 0)"/>
       <use xlink:href="#ArialMT-32" transform="translate(166.845703 0)"/>
      </g>
     </g>
    </g>
    <g id="xtick_5">
     <g id="line2d_5">
      <path d="M 427.470546 313.480926 
L 427.470546 41.472 
" clip-path="url(#p05dea35ebb)" style="fill: none; stroke: #dddddd; stroke-width: 0.5; stroke-linecap: round"/>
     </g>
     <g id="text_5">
      <!-- 2024 -->
      <g style="fill: #666666" transform="translate(402.959088 343.939) rotate(-30) scale(0.121 -0.121)">
       <defs>
        <path id="ArialMT-34" d="M 2069 0 
L 2069 1097 
L 81 1097 
L 81 1613 
L 2172 4581 
L 2631 4581 
L 2631 1613 
L 3250 1613 
L 3250 1097 
L 2631 1097 
L 2631 0 
L 2069 0 
z
M 2069 1613 
L 2069 3678 
L 634 1613 
L 2069 1613 
z
" transform="scale(0.015625)"/>
       </defs>
       <use xlink:href="#ArialMT-32"/>
       <use xlink:href="#ArialMT-30" transform="translate(55.615234 0)"/>
       <use xlink:href="#ArialMT-32" transform="translate(111.230469 0)"/>
       <use xlink:href="#ArialMT-34" transform="translate(166.845703 0)"/>
      </g>
     </g>
    </g>
    <g id="xtick_6">
     <g id="line2d_6">
      <path d="M 519.400765 313.480926 
L 519.400765 41.472 
" clip-path="url(#p05dea35ebb)" style="fill: none; stroke: #dddddd; stroke-width: 0.5; stroke-linecap: round"/>
     </g>
     <g id="text_6">
      <!-- 2026 -->
      <g style="fill: #666666" transform="translate(494.889308 343.939) rotate(-30) scale(0.121 -0.121)">
       <use xlink:href="#ArialMT-32"/>
       <use xlink:href="#ArialMT-30" transform="translate(55.615234 0)"/>
       <use xlink:href="#ArialMT-32" transform="translate(111.230469 0)"/>
       <use xlink:href="#ArialMT-36" transform="translate(166.845703 0)"/>
      </g>
     </g>
    </g>
   </g>
   <g id="matplotlib.axis_2">
    <g id="ytick_1">
     <g id="line2d_7">
      <path d="M 47.966 298.54958 
L 561.744 298.54958 
" clip-path="url(#p05dea35ebb)" style="fill: none; stroke: #dddddd; stroke-width: 0.5; stroke-linecap: round"/>
     </g>
     <g id="text_7">
      <!-- 0% -->
      <g style="fill: #666666" transform="translate(20.977719 302.880056) scale(0.121 -0.121)">
       <defs>
        <path id="ArialMT-25" d="M 372 3481 
Q 372 3972 619 4315 
Q 866 4659 1334 4659 
Q 1766 4659 2048 4351 
Q 2331 4044 2331 3447 
Q 2331 2866 2045 2552 
Q 1759 2238 1341 2238 
Q 925 2238 648 2547 
Q 372 2856 372 3481 
z
M 1350 4272 
Q 1141 4272 1002 4090 
Q 863 3909 863 3425 
Q 863 2984 1003 2804 
Q 1144 2625 1350 2625 
Q 1563 2625 1702 2806 
Q 1841 2988 1841 3469 
Q 1841 3913 1700 4092 
Q 1559 4272 1350 4272 
z
M 1353 -169 
L 3859 4659 
L 4316 4659 
L 1819 -169 
L 1353 -169 
z
M 3334 1075 
Q 3334 1569 3581 1911 
Q 3828 2253 4300 2253 
Q 4731 2253 5014 1945 
Q 5297 1638 5297 1041 
Q 5297 459 5011 145 
Q 4725 -169 4303 -169 
Q 3888 -169 3611 142 
Q 3334 453 3334 1075 
z
M 4316 1866 
Q 4103 1866 3964 1684 
Q 3825 1503 3825 1019 
Q 3825 581 3965 400 
Q 4106 219 4313 219 
Q 4528 219 4667 400 
Q 4806 581 4806 1063 
Q 4806 1506 4665 1686 
Q 4525 1866 4316 1866 
z
" transform="scale(0.015625)"/>
       </defs>
       <use xlink:href="#ArialMT-30"/>
       <use xlink:href="#ArialMT-25" transform="translate(55.615234 0)"/>
      </g>
     </g>
    </g>
    <g id="ytick_2">
     <g id="line2d_8">
      <path d="M 47.966 256.854712 
L 561.744 256.854712 
" clip-path="url(#p05dea35ebb)" style="fill: none; stroke: #dddddd; stroke-width: 0.5; stroke-linecap: round"/>
     </g>
     <g id="text_8">
      <!-- 10% -->
      <g style="fill: #666666" transform="translate(14.248984 261.185189) scale(0.121 -0.121)">
       <use xlink:href="#ArialMT-31"/>
       <use xlink:href="#ArialMT-30" transform="translate(55.615234 0)"/>
       <use xlink:href="#ArialMT-25" transform="translate(111.230469 0)"/>
      </g>
     </g>
    </g>
    <g id="ytick_3">
     <g id="line2d_9">
      <path d="M 47.966 215.159844 
L 561.744 215.159844 
" clip-path="url(#p05dea35ebb)" style="fill: none; stroke: #dddddd; stroke-width: 0.5; stroke-linecap: round"/>
     </g>
     <g id="text_9">
      <!-- 20% -->
      <g style="fill: #666666" transform="translate(14.248984 219.490321) scale(0.121 -0.121)">
       <use xlink:href="#ArialMT-32"/>
       <use xlink:href="#ArialMT-30" transform="translate(55.615234 0)"/>
       <use xlink:href="#ArialMT-25" transform="translate(111.230469 0)"/>
      </g>
     </g>
    </g>
    <g id="ytick_4">
     <g id="line2d_10">
      <path d="M 47.966 173.464977 
L 561.744 173.464977 
" clip-path="url(#p05dea35ebb)" style="fill: none; stroke: #dddddd; stroke-width: 0.5; stroke-linecap: round"/>
     </g>
     <g id="text_10">
      <!-- 30% -->
      <g style="fill: #666666" transform="translate(14.248984 177.795453) scale(0.121 -0.121)">
       <defs>
        <path id="ArialMT-33" d="M 269 1209 
L 831 1284 
Q 928 806 1161 595 
Q 1394 384 1728 384 
Q 2125 384 2398 659 
Q 2672 934 2672 1341 
Q 2672 1728 2419 1979 
Q 2166 2231 1775 2231 
Q 1616 2231 1378 2169 
L 1441 2663 
Q 1497 2656 1531 2656 
Q 1891 2656 2178 2843 
Q 2466 3031 2466 3422 
Q 2466 3731 2256 3934 
Q 2047 4138 1716 4138 
Q 1388 4138 1169 3931 
Q 950 3725 888 3313 
L 325 3413 
Q 428 3978 793 4289 
Q 1159 4600 1703 4600 
Q 2078 4600 2393 4439 
Q 2709 4278 2876 4000 
Q 3044 3722 3044 3409 
Q 3044 3113 2884 2869 
Q 2725 2625 2413 2481 
Q 2819 2388 3044 2092 
Q 3269 1797 3269 1353 
Q 3269 753 2831 336 
Q 2394 -81 1725 -81 
Q 1122 -81 723 278 
Q 325 638 269 1209 
z
" transform="scale(0.015625)"/>
       </defs>
       <use xlink:href="#ArialMT-33"/>
       <use xlink:href="#ArialMT-30" transform="translate(55.615234 0)"/>
       <use xlink:href="#ArialMT-25" transform="translate(111.230469 0)"/>
      </g>
     </g>
    </g>
    <g id="ytick_5">
     <g id="line2d_11">
      <path d="M 47.966 131.770109 
L 561.744 131.770109 
" clip-path="url(#p05dea35ebb)" style="fill: none; stroke: #dddddd; stroke-width: 0.5; stroke-linecap: round"/>
     </g>
     <g id="text_11">
      <!-- 40% -->
      <g style="fill: #666666" transform="translate(14.248984 136.100586) scale(0.121 -0.121)">
       <use xlink:href="#ArialMT-34"/>
       <use xlink:href="#ArialMT-30" transform="translate(55.615234 0)"/>
       <use xlink:href="#ArialMT-25" transform="translate(111.230469 0)"/>
      </g>
     </g>
    </g>
    <g id="ytick_6">
     <g id="line2d_12">
      <path d="M 47.966 90.075241 
L 561.744 90.075241 
" clip-path="url(#p05dea35ebb)" style="fill: none; stroke: #dddddd; stroke-width: 0.5; stroke-linecap: round"/>
     </g>
     <g id="text_12">
      <!-- 50% -->
      <g style="fill: #666666" transform="translate(14.248984 94.405718) scale(0.121 -0.121)">
       <defs>
        <path id="ArialMT-35" d="M 266 1200 
L 856 1250 
Q 922 819 1161 601 
Q 1400 384 1738 384 
Q 2144 384 2425 690 
Q 2706 997 2706 1503 
Q 2706 1984 2436 2262 
Q 2166 2541 1728 2541 
Q 1456 2541 1237 2417 
Q 1019 2294 894 2097 
L 366 2166 
L 809 4519 
L 3088 4519 
L 3088 3981 
L 1259 3981 
L 1013 2750 
Q 1425 3038 1878 3038 
Q 2478 3038 2890 2622 
Q 3303 2206 3303 1553 
Q 3303 931 2941 478 
Q 2500 -78 1738 -78 
Q 1113 -78 717 272 
Q 322 622 266 1200 
z
" transform="scale(0.015625)"/>
       </defs>
       <use xlink:href="#ArialMT-35"/>
       <use xlink:href="#ArialMT-30" transform="translate(55.615234 0)"/>
       <use xlink:href="#ArialMT-25" transform="translate(111.230469 0)"/>
      </g>
     </g>
    </g>
    <g id="ytick_7">
     <g id="line2d_13">
      <path d="M 47.966 48.380374 
L 561.744 48.380374 
" clip-path="url(#p05dea35ebb)" style="fill: none; stroke: #dddddd; stroke-width: 0.5; stroke-linecap: round"/>
     </g>
     <g id="text_13">
      <!-- 60% -->
      <g style="fill: #666666" transform="translate(14.248984 52.71085) scale(0.121 -0.121)">
       <use xlink:href="#ArialMT-36"/>
       <use xlink:href="#ArialMT-30" transform="translate(55.615234 0)"/>
       <use xlink:href="#ArialMT-25" transform="translate(111.230469 0)"/>
      </g>
     </g>
    </g>
   </g>
   <g id="line2d_14">
    <path d="M 47.966 298.54958 
L 561.744 298.54958 
" clip-path="url(#p05dea35ebb)" style="fill: none; stroke: #808080; stroke-linecap: round"/>
   </g>
   <g id="line2d_15">
    <path d="M 71.319545 298.54958 
L 71.445305 298.487938 
L 71.822584 298.487938 
L 71.948343 297.870419 
L 72.074103 297.837298 
L 72.325622 298.519721 
L 72.7029 298.035349 
L 72.82866 298.467757 
L 73.080179 298.299866 
L 73.205938 298.301664 
L 73.583217 298.852357 
L 73.708977 298.799805 
L 73.960496 300.248549 
L 74.086255 300.377312 
L 74.589293 301.116884 
L 74.840812 300.968802 
L 75.721129 299.556087 
L 75.846889 300.417045 
L 76.224167 300.786859 
L 77.104484 299.59519 
L 77.230244 299.7891 
L 77.356003 300.36082 
L 77.984801 299.875697 
L 78.23632 300.248262 
L 78.362079 300.157801 
L 78.487839 300.236384 
L 78.865117 300.210121 
L 79.116637 299.131512 
L 79.242396 299.1345 
L 79.368156 298.582031 
L 79.996953 298.517108 
L 80.499991 298.517108 
L 80.625751 299.46535 
L 80.751511 299.261189 
L 80.87727 298.790656 
L 81.00303 298.831088 
L 81.128789 298.568453 
L 81.631827 298.319077 
L 81.757587 298.127134 
L 82.009106 298.246857 
L 83.51822 295.646319 
L 83.64398 295.186219 
L 83.769739 295.267451 
L 84.147018 295.018534 
L 84.398537 294.082557 
L 84.524297 294.179523 
L 84.650056 294.067867 
L 85.278854 293.956055 
L 85.404613 293.783742 
L 85.530373 294.280969 
L 85.907651 294.327484 
L 86.033411 293.663403 
L 86.15917 294.368149 
L 86.41069 293.967095 
L 86.662209 293.967095 
L 86.787968 294.181086 
L 87.165247 293.596313 
L 87.291006 293.523971 
L 87.919804 292.744094 
L 88.045563 292.883479 
L 88.548602 291.068801 
L 88.92588 291.450445 
L 89.05164 291.288489 
L 89.428918 291.762381 
L 89.554678 291.668849 
L 89.680437 291.790423 
L 89.806197 292.083762 
L 89.931956 291.41817 
L 90.309235 291.458819 
L 90.434995 291.611578 
L 90.560754 291.448437 
L 90.812273 291.772266 
L 91.189552 291.772266 
L 91.56683 291.063342 
L 91.69259 291.242011 
L 92.069869 292.193673 
L 92.195628 291.847152 
L 92.321388 292.247777 
L 92.824426 292.247777 
L 93.075945 291.418065 
L 93.201704 291.59968 
L 93.327464 291.092316 
L 93.830502 292.008192 
L 94.207781 291.117511 
L 94.33354 290.842459 
L 95.465376 290.842459 
L 95.716895 289.563384 
L 95.968414 289.443221 
L 96.094174 289.517717 
L 96.471452 289.896547 
L 96.597212 289.400552 
L 96.722971 289.565284 
L 96.97449 289.443021 
L 97.351769 289.044072 
L 97.603288 288.647724 
L 97.729048 288.923995 
L 97.854807 289.638684 
L 98.232086 289.849063 
L 98.357845 289.462567 
L 98.483605 289.78838 
L 98.609364 289.372984 
L 98.735124 289.542667 
L 99.112402 289.398568 
L 99.238162 289.148647 
L 99.363922 289.614893 
L 99.615441 289.45264 
L 100.244238 289.727632 
L 100.495757 290.238496 
L 100.998795 289.675221 
L 101.250315 289.372254 
L 101.376074 288.978175 
L 101.753353 289.060311 
L 101.879112 288.785049 
L 102.130631 289.930823 
L 102.256391 290.703535 
L 102.633669 291.162211 
L 102.759429 291.789719 
L 103.136708 291.161415 
L 103.765505 294.097087 
L 103.891265 296.262403 
L 104.017024 296.282781 
L 104.394303 297.183041 
L 104.520062 298.167908 
L 104.771581 296.729582 
L 104.897341 296.773737 
L 105.400379 295.846312 
L 105.526139 296.021851 
L 105.651898 295.834827 
L 105.777658 294.986495 
L 105.903417 294.943747 
L 106.280696 294.027178 
L 106.406455 293.103217 
L 106.532215 293.270449 
L 106.657974 293.161408 
L 107.035253 292.457643 
L 107.161013 292.50319 
L 107.412532 293.340202 
L 107.538291 293.353988 
L 108.041329 292.986791 
L 108.167089 292.69616 
L 108.292848 292.990846 
L 108.418608 292.375927 
L 108.670127 292.375927 
L 109.173165 291.18384 
L 110.053482 291.18384 
L 110.179241 291.903823 
L 110.55652 291.865601 
L 110.68228 292.253476 
L 110.808039 292.160312 
L 111.562596 290.716983 
L 111.688356 290.931138 
L 111.814115 290.418343 
L 111.939875 290.920419 
L 112.568673 288.223092 
L 112.694432 288.451152 
L 112.820192 288.263498 
L 113.19747 288.746322 
L 113.448989 288.431179 
L 113.574749 288.935315 
L 113.700508 288.860604 
L 114.203547 288.335573 
L 114.455066 288.992956 
L 114.580825 289.02213 
L 114.958104 288.52646 
L 115.083863 288.560552 
L 115.335382 287.912744 
L 115.461142 288.446172 
L 115.83842 288.280373 
L 115.96418 287.890269 
L 116.08994 287.952853 
L 116.341459 287.040706 
L 116.970256 286.981897 
L 117.096016 287.324002 
L 117.221775 286.879374 
L 117.724813 286.879374 
L 117.850573 286.150294 
L 117.976333 286.121199 
L 118.102092 285.973064 
L 118.73089 286.00238 
L 118.856649 285.744239 
L 118.982409 286.371032 
L 119.485447 286.660758 
L 119.611206 286.843914 
L 119.736966 286.674763 
L 119.862726 286.791167 
L 120.240004 287.658401 
L 120.617283 287.189084 
L 120.743042 287.349153 
L 120.994561 287.349153 
L 121.24608 287.203548 
L 121.37184 287.38482 
L 121.623359 288.253375 
L 122.000638 288.915985 
L 122.126397 288.88437 
L 122.377916 289.374402 
L 122.503676 289.130124 
L 122.880954 289.00314 
L 123.006714 288.409295 
L 123.258233 289.434602 
L 123.383993 289.048606 
L 123.761271 288.991591 
L 124.01279 288.6103 
L 124.13855 287.32351 
L 124.264309 287.689717 
L 124.767347 287.689717 
L 124.893107 287.376106 
L 125.144626 287.739145 
L 125.521905 287.458973 
L 126.024943 284.770598 
L 126.402221 284.664147 
L 126.527981 284.167792 
L 126.65374 285.207126 
L 126.905259 285.290789 
L 127.282538 284.218192 
L 127.408298 284.214371 
L 127.534057 282.911636 
L 127.659817 282.940325 
L 127.785576 282.239424 
L 128.288614 280.520994 
L 128.414374 281.302103 
L 128.665893 280.283938 
L 129.043172 280.179616 
L 129.168931 280.628896 
L 129.42045 278.898637 
L 129.54621 278.787405 
L 129.923488 278.759621 
L 130.049248 278.2753 
L 130.175007 278.595842 
L 130.426526 277.157883 
L 130.803805 278.619728 
L 130.929565 278.366559 
L 131.181084 276.473696 
L 131.306843 276.897266 
L 131.684122 276.362078 
L 131.935641 277.715399 
L 132.0614 277.869806 
L 132.18716 277.407532 
L 132.564438 276.940137 
L 132.690198 276.299299 
L 133.067477 277.345831 
L 133.696274 276.878407 
L 133.822034 276.996211 
L 133.947793 278.30835 
L 134.82811 276.714073 
L 135.205389 276.357289 
L 135.456908 276.542452 
L 135.582667 276.840433 
L 135.708427 275.993603 
L 136.085705 275.346016 
L 136.462984 275.619664 
L 136.588744 275.303011 
L 137.091782 274.869984 
L 137.343301 275.549882 
L 137.846339 275.395291 
L 138.097858 274.464777 
L 138.349377 274.813627 
L 138.726656 274.207435 
L 138.852415 274.483195 
L 139.103934 273.733804 
L 139.229694 273.732209 
L 139.732732 274.416959 
L 139.858491 274.121659 
L 139.984251 274.122466 
L 140.110011 273.372162 
L 140.23577 273.297642 
L 140.990327 273.297642 
L 141.493365 271.370572 
L 141.870644 270.338738 
L 142.373682 270.228359 
L 142.499442 269.13118 
L 142.625201 269.440665 
L 142.750961 269.367834 
L 143.128239 268.888782 
L 143.631277 266.836546 
L 144.134316 267.054944 
L 144.511594 267.483475 
L 144.888873 266.423282 
L 145.014632 265.383163 
L 145.140392 265.679707 
L 145.391911 263.41231 
L 145.76919 262.629983 
L 146.020709 264.778105 
L 146.272228 263.178381 
L 146.649506 262.185413 
L 146.775266 260.349447 
L 146.901025 260.544213 
L 147.026785 264.274124 
L 147.152544 264.22613 
L 147.529823 265.905706 
L 147.655583 265.722744 
L 147.781342 265.856288 
L 148.032861 267.722283 
L 148.535899 266.49098 
L 148.787418 268.761092 
L 148.913178 267.480785 
L 149.290457 265.551612 
L 149.416216 267.229762 
L 149.541976 266.391592 
L 149.667735 266.94309 
L 149.793495 268.094538 
L 150.170773 267.860896 
L 150.296533 266.41068 
L 150.422292 266.440431 
L 150.548052 265.398484 
L 150.673811 265.31097 
L 151.05109 265.619536 
L 151.17685 265.379373 
L 151.302609 267.125475 
L 151.554128 265.403299 
L 151.805647 265.342222 
L 152.308685 261.551471 
L 152.434445 261.463265 
L 152.811723 260.879001 
L 153.063243 259.721919 
L 153.189002 259.962413 
L 153.314762 259.419688 
L 153.69204 259.70635 
L 153.8178 258.726254 
L 153.943559 258.773814 
L 154.195078 257.103065 
L 154.572357 255.546246 
L 154.698116 253.871081 
L 154.823876 253.814786 
L 154.949636 254.725272 
L 155.075395 254.044199 
L 155.578433 257.570697 
L 155.704193 256.391558 
L 155.829952 256.933609 
L 155.955712 256.115463 
L 156.33299 255.850071 
L 156.584509 264.462295 
L 156.710269 265.368586 
L 156.836029 270.953844 
L 157.087548 270.953844 
L 157.464826 264.959213 
L 158.345143 264.959213 
L 158.596662 260.429798 
L 158.722422 260.429798 
L 158.973941 258.176212 
L 159.22546 261.453135 
L 159.351219 260.115205 
L 159.476979 261.816206 
L 159.854257 262.36193 
L 159.980017 260.136158 
L 160.105776 261.414419 
L 160.357295 258.362491 
L 160.734574 256.981801 
L 160.986093 258.931441 
L 161.111853 258.125498 
L 161.237612 259.579269 
L 161.614891 258.811795 
L 161.74065 258.240858 
L 161.992169 260.893452 
L 162.117929 264.896927 
L 162.495208 265.116749 
L 162.620967 263.764469 
L 162.746727 266.542282 
L 162.998246 264.326949 
L 163.124005 264.314514 
L 163.375524 264.845913 
L 163.627043 265.626241 
L 164.130082 265.626241 
L 164.255841 264.720304 
L 164.50736 261.48911 
L 164.758879 263.775294 
L 165.136158 265.792577 
L 165.261917 268.22733 
L 165.513436 265.168133 
L 165.639196 267.481657 
L 166.016475 268.019905 
L 166.142234 264.847359 
L 166.267994 265.591972 
L 166.393753 268.279097 
L 166.645272 268.164012 
L 167.022551 268.164012 
L 167.27407 266.172761 
L 167.399829 266.78972 
L 168.154387 262.337403 
L 168.280146 263.035306 
L 168.783184 261.343007 
L 169.034703 263.005473 
L 169.160463 261.841427 
L 169.537741 260.920478 
L 169.663501 261.138535 
L 169.91502 263.564852 
L 170.04078 263.829921 
L 170.418058 262.827037 
L 170.669577 266.318765 
L 170.795337 263.404735 
L 170.921096 264.70483 
L 171.298375 263.322089 
L 171.549894 261.707507 
L 171.675654 262.075799 
L 171.801413 263.298211 
L 172.178692 263.155615 
L 172.304451 261.412173 
L 172.68173 263.910097 
L 173.059008 263.910097 
L 173.184768 268.538266 
L 173.310527 267.478544 
L 173.436287 268.785968 
L 173.562047 268.071936 
L 174.065085 270.669413 
L 174.316604 274.57964 
L 174.442363 270.200374 
L 174.568123 270.192395 
L 174.819642 272.90008 
L 174.945401 272.961552 
L 175.19692 275.733086 
L 175.825718 270.39053 
L 175.951478 272.321812 
L 176.202997 268.038482 
L 176.580275 268.461851 
L 176.831794 269.483221 
L 176.957554 269.359441 
L 177.083314 266.933035 
L 177.460592 265.692974 
L 177.712111 263.462851 
L 177.837871 264.983113 
L 177.96363 264.87062 
L 178.340909 265.238029 
L 178.466668 265.143535 
L 178.843947 271.61893 
L 179.221226 273.064006 
L 179.346985 269.342252 
L 179.472745 270.998882 
L 179.598504 268.153937 
L 179.724264 268.436548 
L 180.227302 270.686051 
L 180.478821 274.713907 
L 180.60458 276.648135 
L 180.981859 275.454208 
L 181.107619 273.073315 
L 181.233378 273.666388 
L 181.862176 269.63807 
L 182.113695 270.485809 
L 182.365214 272.557801 
L 182.742493 273.339165 
L 182.868252 271.973725 
L 182.994012 271.973725 
L 183.119771 272.733104 
L 183.245531 272.587975 
L 183.748569 273.810929 
L 183.874328 274.33392 
L 184.125847 273.106553 
L 184.503126 273.460623 
L 184.754645 271.450308 
L 184.880405 271.538286 
L 185.006164 269.656314 
L 185.383443 269.656314 
L 185.509202 270.130307 
L 185.634962 269.345181 
L 185.760721 269.282827 
L 185.886481 268.470288 
L 186.766798 268.378173 
L 187.144076 271.14816 
L 187.269836 270.969564 
L 187.395595 271.051975 
L 187.521355 273.443156 
L 187.647114 272.000783 
L 188.024393 272.574902 
L 188.150152 272.560958 
L 188.275912 272.318028 
L 188.401672 273.144213 
L 188.527431 271.746787 
L 188.90471 269.602567 
L 189.030469 271.195906 
L 189.156229 271.249319 
L 189.407748 271.634598 
L 189.785026 272.937536 
L 189.910786 272.592589 
L 190.288065 269.020367 
L 190.665343 269.769073 
L 191.042622 269.504226 
L 191.168381 270.425156 
L 191.54566 269.896225 
L 191.671419 269.140642 
L 191.797179 269.33514 
L 192.048698 268.184053 
L 192.425977 267.708891 
L 192.551736 268.855451 
L 192.677496 268.464099 
L 192.803255 268.819739 
L 192.929015 269.60362 
L 193.306293 269.465667 
L 193.432053 269.610975 
L 193.557812 268.993531 
L 193.683572 269.36374 
L 194.31237 266.729444 
L 194.438129 267.120895 
L 194.563889 268.352365 
L 195.066927 268.666242 
L 195.444205 267.438265 
L 195.569965 268.40941 
L 195.947244 268.796288 
L 196.198763 270.053587 
L 196.324522 270.190155 
L 196.450282 270.732437 
L 196.82756 270.484192 
L 197.079079 270.727942 
L 197.204839 270.864957 
L 197.330598 270.014534 
L 197.707877 269.643811 
L 197.959396 269.965822 
L 198.085156 269.64981 
L 198.210915 268.269968 
L 198.713953 266.911484 
L 198.965472 265.909025 
L 199.091232 265.625462 
L 199.468511 266.374131 
L 199.72003 264.648444 
L 199.845789 264.941812 
L 199.971549 263.879241 
L 200.348827 263.674004 
L 200.474587 264.376741 
L 200.600346 264.37073 
L 200.851865 263.336779 
L 201.229144 263.599019 
L 201.354904 263.303454 
L 201.480663 263.454327 
L 201.732182 261.457203 
L 202.612499 261.457203 
L 203.115537 259.342623 
L 203.367056 257.920203 
L 203.492816 259.470782 
L 203.870094 257.355042 
L 203.995854 257.747087 
L 204.247373 257.097123 
L 204.750411 252.653459 
L 205.00193 254.710334 
L 205.12769 255.05152 
L 205.253449 253.455621 
L 205.882247 252.104436 
L 206.008006 252.888326 
L 206.133766 255.251854 
L 206.636804 252.805263 
L 206.888323 254.337053 
L 207.014083 253.279617 
L 207.391361 251.414613 
L 207.64288 251.727521 
L 207.894399 251.241103 
L 208.271678 252.616519 
L 208.397437 253.506765 
L 208.523197 252.298034 
L 208.648957 252.192088 
L 208.774716 249.81715 
L 209.026235 249.84281 
L 209.151995 248.315959 
L 209.277754 248.298565 
L 209.529273 247.338471 
L 210.032311 247.359956 
L 210.158071 247.108045 
L 210.28383 247.264985 
L 210.40959 249.016559 
L 210.53535 249.023481 
L 210.912628 249.741625 
L 211.164147 248.368318 
L 211.289907 248.488862 
L 211.415666 247.440861 
L 212.044464 249.532619 
L 212.295983 251.961043 
L 212.673262 251.757947 
L 212.799021 251.409023 
L 213.1763 251.409023 
L 213.553578 254.931564 
L 213.679338 253.873889 
L 213.930857 255.688061 
L 214.056616 252.98094 
L 214.433895 253.247266 
L 214.559655 253.784249 
L 214.811174 251.444502 
L 214.936933 253.210535 
L 215.314212 254.003964 
L 215.439971 253.373671 
L 215.565731 253.363363 
L 215.69149 254.757649 
L 215.81725 254.494259 
L 216.194529 254.190456 
L 216.320288 253.548752 
L 216.446048 253.508829 
L 216.571807 253.825666 
L 216.697567 253.663837 
L 217.074845 253.867522 
L 217.200605 254.692511 
L 217.326364 254.644737 
L 217.452124 255.290686 
L 217.577883 255.290686 
L 217.955162 253.885511 
L 218.080922 252.057269 
L 218.332441 253.026194 
L 218.4582 253.607715 
L 218.835479 253.670564 
L 218.961238 253.30337 
L 219.338517 248.958378 
L 219.715796 248.484165 
L 219.841555 249.382388 
L 219.967315 249.01159 
L 220.093074 247.520863 
L 220.218834 247.536051 
L 220.470353 247.432292 
L 220.721872 244.951769 
L 220.973391 245.895656 
L 221.09915 245.560151 
L 221.602189 247.406674 
L 221.853708 247.065178 
L 221.979467 246.567574 
L 222.356746 246.397967 
L 222.734024 247.136798 
L 222.859784 246.41581 
L 223.362822 243.17927 
L 223.740101 241.334125 
L 224.117379 241.407109 
L 224.243139 240.948127 
L 225.123455 245.227671 
L 225.249215 244.909716 
L 225.374975 243.064769 
L 225.500734 243.528429 
L 225.878013 242.045301 
L 226.003772 242.68779 
L 226.381051 241.426775 
L 226.758329 239.455877 
L 226.884089 239.516856 
L 227.135608 239.143686 
L 227.261368 238.475917 
L 227.638646 239.514915 
L 227.764406 238.533731 
L 228.141684 238.984797 
L 228.267444 238.984797 
L 228.518963 238.014044 
L 228.770482 238.106283 
L 229.022001 237.285368 
L 229.525039 237.072063 
L 229.650799 237.295111 
L 229.902318 237.184025 
L 230.279596 237.214509 
L 230.405356 237.63751 
L 230.531115 237.627556 
L 230.782635 237.367668 
L 231.285673 237.486271 
L 231.662951 237.82967 
L 232.920547 237.834581 
L 233.172066 237.156647 
L 233.423585 236.777774 
L 233.800863 236.419196 
L 234.052382 236.720806 
L 234.178142 236.763202 
L 234.303901 237.036039 
L 234.68118 237.064717 
L 234.80694 236.928727 
L 235.058459 237.188421 
L 235.184218 237.008346 
L 235.561497 236.927964 
L 235.687256 237.091361 
L 235.938775 237.683361 
L 236.064535 237.350636 
L 236.441814 237.16113 
L 236.693333 236.607063 
L 236.944852 236.39869 
L 237.32213 236.714916 
L 237.825168 236.143151 
L 238.579726 234.8095 
L 238.705485 235.01875 
L 239.460042 234.634511 
L 239.711561 234.684416 
L 240.2146 234.331932 
L 240.466119 233.901078 
L 240.843397 233.747506 
L 241.849473 232.172896 
L 241.975233 232.256652 
L 242.226752 232.013146 
L 242.604031 232.141375 
L 242.981309 231.051943 
L 243.610107 230.236392 
L 243.987386 229.597279 
L 244.364664 229.351758 
L 244.490424 229.063644 
L 244.616183 229.116061 
L 244.867702 228.599073 
L 245.37074 228.250985 
L 245.4965 228.478875 
L 245.62226 228.42158 
L 245.748019 228.193866 
L 245.999538 228.193866 
L 246.125298 227.579727 
L 246.251057 227.647109 
L 246.376817 227.317764 
L 246.502576 227.993495 
L 247.508653 227.993495 
L 247.885931 228.248075 
L 248.26321 226.540637 
L 248.388969 226.20993 
L 248.892007 225.279019 
L 249.269286 223.967614 
L 249.646565 223.330184 
L 249.772324 222.829192 
L 249.898084 223.033369 
L 250.149603 222.134932 
L 250.652641 221.344463 
L 250.7784 221.529471 
L 250.90416 221.256761 
L 251.029919 221.819976 
L 251.155679 221.819976 
L 251.407198 220.882494 
L 251.532958 220.899581 
L 251.784477 219.980109 
L 252.287515 220.042003 
L 252.413274 219.798612 
L 252.664793 220.78548 
L 253.419351 223.325886 
L 253.54511 223.661102 
L 253.67087 223.06973 
L 254.048148 223.483471 
L 254.425427 221.778063 
L 254.551186 221.59806 
L 254.928465 221.807285 
L 255.054225 221.72923 
L 255.305744 220.87196 
L 255.431503 220.971052 
L 255.808782 220.971052 
L 256.060301 218.042571 
L 256.18606 217.675813 
L 256.31182 217.936919 
L 256.689098 217.904829 
L 256.814858 217.1882 
L 256.940618 217.171122 
L 257.192137 216.330548 
L 257.695175 216.189847 
L 257.946694 215.745275 
L 258.575492 215.335138 
L 258.701251 215.134464 
L 258.827011 214.581478 
L 259.455808 214.581478 
L 259.581568 214.321326 
L 259.833087 214.763567 
L 259.958846 214.763567 
L 260.587644 215.512761 
L 261.090682 215.371335 
L 261.216442 215.25339 
L 261.59372 215.71641 
L 262.096758 215.819937 
L 262.348278 216.297789 
L 262.725556 216.302843 
L 262.851316 215.650423 
L 263.354354 218.437488 
L 263.731632 218.608024 
L 263.983151 218.29187 
L 264.108911 218.241142 
L 264.234671 217.893277 
L 264.611949 217.936336 
L 264.737709 217.608314 
L 264.863468 217.686308 
L 265.114987 216.936843 
L 265.492266 217.157311 
L 265.618025 217.45046 
L 265.743785 217.09869 
L 266.372583 217.106001 
L 266.624102 216.128102 
L 267.252899 213.456249 
L 267.378659 213.941377 
L 267.630178 213.503048 
L 267.755937 214.339269 
L 268.133216 213.829871 
L 268.510495 215.614933 
L 269.139292 212.827984 
L 269.390811 211.956831 
L 269.516571 213.465253 
L 269.89385 213.161989 
L 270.019609 212.835826 
L 270.145369 211.965401 
L 270.271128 212.207058 
L 270.396888 211.587237 
L 271.025685 210.2783 
L 271.151445 210.197401 
L 271.277204 210.448174 
L 271.654483 209.964096 
L 271.906002 210.705164 
L 272.031762 210.532731 
L 272.660559 208.262745 
L 272.912078 209.440605 
L 273.037838 209.271612 
L 273.415117 208.442276 
L 273.540876 208.623416 
L 273.666636 209.268799 
L 273.792395 209.178085 
L 273.918155 208.508386 
L 274.295433 208.465838 
L 274.421193 208.104606 
L 274.672712 208.089704 
L 275.17575 212.977063 
L 275.30151 212.784164 
L 275.427269 215.903405 
L 275.553029 216.017409 
L 275.678788 214.164231 
L 276.056067 213.24871 
L 276.181826 211.817579 
L 276.433345 212.948001 
L 276.559105 210.59496 
L 276.936383 211.846666 
L 277.062143 212.86284 
L 277.187903 211.786545 
L 277.313662 214.180499 
L 277.439422 214.115786 
L 277.8167 213.480856 
L 278.068219 211.909638 
L 279.074296 211.909638 
L 279.200055 208.369246 
L 279.703093 204.41454 
L 280.45765 207.326412 
L 280.58341 205.745681 
L 280.834929 206.544858 
L 280.960689 208.555973 
L 281.337967 208.466055 
L 281.715246 204.553494 
L 281.841005 206.708645 
L 281.966765 206.708645 
L 282.218284 205.708748 
L 282.469803 203.674346 
L 282.595562 201.772339 
L 282.721322 202.445718 
L 283.098601 200.398465 
L 283.35012 203.434259 
L 283.475879 202.623774 
L 283.601639 203.76598 
L 283.978917 202.84476 
L 284.230436 204.595107 
L 284.481956 203.091726 
L 284.859234 201.646505 
L 284.984994 202.174886 
L 285.110753 204.325088 
L 285.236513 204.104346 
L 285.362272 202.882959 
L 285.739551 203.220249 
L 285.86531 200.173703 
L 285.99107 200.307912 
L 286.116829 200.145315 
L 286.242589 199.476064 
L 286.619868 199.939582 
L 286.745627 199.799475 
L 286.871387 201.487557 
L 286.997146 201.068833 
L 287.122906 202.226636 
L 287.751703 198.924864 
L 287.877463 196.874583 
L 288.003222 196.992583 
L 288.380501 194.894265 
L 288.506261 196.48516 
L 288.63202 194.6886 
L 288.75778 194.877684 
L 288.883539 193.119126 
L 289.260818 192.632733 
L 289.386577 193.387093 
L 289.638096 187.920048 
L 290.141135 185.740179 
L 290.518413 179.671809 
L 290.644173 179.950646 
L 291.021451 181.437305 
L 291.147211 177.778891 
L 291.27297 178.742744 
L 291.39873 181.130689 
L 291.524489 181.312263 
L 291.901768 178.956935 
L 292.027528 180.700716 
L 292.404806 173.855921 
L 292.782085 171.697254 
L 292.907844 175.809825 
L 293.033604 175.601827 
L 293.159363 180.499629 
L 293.285123 180.921597 
L 293.536642 180.921597 
L 293.913921 175.321969 
L 294.03968 176.080835 
L 294.542718 173.091035 
L 294.794237 166.631906 
L 295.674554 166.631906 
L 295.800314 168.313204 
L 296.051833 168.420821 
L 296.554871 178.909385 
L 296.68063 177.956817 
L 296.80639 181.860917 
L 297.057909 181.860917 
L 297.183668 178.861979 
L 297.309428 180.568768 
L 297.435187 177.747186 
L 297.560947 183.818644 
L 297.686707 184.266336 
L 298.189745 192.75768 
L 298.315504 191.042478 
L 298.567023 186.593799 
L 298.944302 190.113925 
L 299.321581 185.915366 
L 299.44734 189.247487 
L 299.824619 187.882923 
L 300.076138 191.344429 
L 300.201897 190.483067 
L 300.327657 186.983384 
L 300.704935 186.544228 
L 300.830695 184.435812 
L 300.956454 185.662778 
L 301.207974 181.873957 
L 301.585252 181.873957 
L 301.836771 183.351464 
L 301.962531 182.525584 
L 302.08829 184.021675 
L 302.465569 186.912513 
L 302.591328 186.657028 
L 302.717088 185.171044 
L 302.842847 185.611797 
L 302.968607 185.234989 
L 303.471645 181.483682 
L 303.597405 180.906347 
L 303.723164 180.870534 
L 303.848924 178.874421 
L 304.226202 180.255783 
L 304.603481 177.310162 
L 304.72924 178.070049 
L 305.358038 178.070049 
L 305.609557 182.533088 
L 305.986836 182.232798 
L 306.238355 180.810705 
L 306.364114 182.362994 
L 306.489874 179.922357 
L 306.992912 176.95431 
L 307.118672 177.118167 
L 307.244431 176.358407 
L 307.370191 177.003862 
L 307.747469 176.624793 
L 307.873229 172.865321 
L 307.998988 172.882861 
L 308.124748 171.736824 
L 308.250507 172.523976 
L 308.627786 171.271659 
L 308.753546 170.341896 
L 309.005065 172.650739 
L 309.130824 171.989776 
L 309.508103 172.208663 
L 309.633862 173.43319 
L 309.759622 172.940642 
L 309.885381 171.283433 
L 310.011141 172.042247 
L 310.388419 172.042247 
L 310.514179 172.850994 
L 310.639939 176.174258 
L 310.891458 173.835815 
L 311.268736 173.491154 
L 311.520255 170.393677 
L 311.646015 170.621866 
L 311.771774 168.303645 
L 312.149053 167.174193 
L 312.274813 168.201467 
L 312.526332 166.50272 
L 312.652091 170.860753 
L 313.02937 170.175326 
L 313.155129 170.904626 
L 313.280889 167.86117 
L 313.406648 168.780133 
L 313.532408 168.845509 
L 314.035446 164.948233 
L 314.161206 166.267352 
L 314.286965 164.517914 
L 314.412725 166.311057 
L 314.790003 165.868962 
L 314.915763 165.997996 
L 315.167282 163.4672 
L 315.293041 165.539803 
L 315.67032 169.802964 
L 315.796079 175.677599 
L 315.921839 174.880286 
L 316.047599 170.503653 
L 316.173358 171.096199 
L 316.299118 171.096199 
L 316.550637 167.647726 
L 316.676396 168.304224 
L 316.802156 165.370729 
L 317.053675 166.29878 
L 317.430953 165.47006 
L 317.556713 163.927376 
L 317.682472 164.315942 
L 317.933992 165.42131 
L 318.31127 166.62421 
L 318.43703 169.765952 
L 318.562789 168.472686 
L 318.688549 168.435144 
L 318.814308 170.470954 
L 319.191587 167.175482 
L 319.443106 164.305675 
L 319.568865 166.903615 
L 319.694625 166.010234 
L 320.071904 165.240331 
L 320.197663 165.442187 
L 320.323423 165.858998 
L 320.449182 164.631838 
L 320.574942 164.631838 
L 320.95222 163.076414 
L 321.07798 161.439763 
L 321.203739 161.775674 
L 321.329499 161.754167 
L 321.455258 161.021341 
L 321.832537 161.333143 
L 322.209816 165.349228 
L 322.335575 164.353698 
L 322.838613 164.353698 
L 322.964373 164.656521 
L 323.090132 164.583822 
L 323.215892 165.226968 
L 323.593171 165.692519 
L 323.71893 165.462797 
L 323.84469 167.090929 
L 323.970449 165.472555 
L 324.850766 165.472555 
L 324.976525 165.283548 
L 325.353804 165.46078 
L 325.479564 166.630642 
L 325.605323 165.406053 
L 325.731083 165.718457 
L 325.856842 164.97205 
L 326.234121 165.510443 
L 326.35988 164.475777 
L 326.48564 164.580571 
L 326.737159 164.102668 
L 327.114438 163.241319 
L 327.240197 163.500517 
L 327.491716 165.315953 
L 327.617476 164.04375 
L 327.994754 164.071087 
L 328.246273 165.225923 
L 328.372033 164.108741 
L 328.497792 164.616772 
L 328.875071 164.389695 
L 329.000831 163.880067 
L 329.12659 164.308211 
L 329.25235 162.939554 
L 329.378109 162.806958 
L 329.881147 162.813275 
L 330.006907 162.28058 
L 330.132666 162.989835 
L 330.258426 161.866537 
L 330.635704 160.991994 
L 330.761464 161.063944 
L 330.887224 160.870763 
L 331.138743 161.455357 
L 331.516021 161.138087 
L 331.641781 161.439213 
L 331.76754 161.307143 
L 331.8933 161.461838 
L 332.019059 160.502432 
L 332.396338 160.989634 
L 332.522097 160.620646 
L 332.773617 157.310998 
L 332.899376 157.348802 
L 333.276655 156.627131 
L 333.528174 158.384698 
L 333.653933 157.705721 
L 333.779693 159.347515 
L 334.156971 161.10238 
L 334.53425 159.144028 
L 334.66001 159.618347 
L 335.037288 159.422297 
L 335.163048 158.570557 
L 335.288807 159.563711 
L 335.540326 157.417369 
L 335.917605 157.417369 
L 336.043364 157.939687 
L 336.294883 160.363126 
L 336.420643 160.779079 
L 336.797922 160.033185 
L 336.923681 161.080339 
L 337.049441 159.902933 
L 337.30096 161.956423 
L 337.678238 160.741979 
L 337.803998 159.723039 
L 337.929757 160.064585 
L 338.055517 159.883692 
L 338.181276 160.944975 
L 338.558555 160.404788 
L 338.684315 162.63589 
L 338.810074 162.237808 
L 339.061593 164.97641 
L 339.94191 164.97641 
L 340.319189 163.191998 
L 340.444948 163.931253 
L 340.570708 162.70367 
L 340.696467 163.012665 
L 340.822227 164.550577 
L 341.199505 165.705637 
L 341.451024 164.08547 
L 341.702543 163.270335 
L 342.079822 163.741612 
L 342.205582 165.136326 
L 342.331341 163.754459 
L 342.457101 165.852295 
L 342.58286 165.049494 
L 342.960139 164.857604 
L 343.085898 164.29345 
L 343.840456 170.409885 
L 344.091975 173.944739 
L 344.217734 172.472883 
L 344.343494 172.402158 
L 344.720772 175.156694 
L 344.846532 179.570107 
L 345.098051 173.962108 
L 345.22381 173.247222 
L 345.726849 172.940587 
L 345.852608 172.390775 
L 345.978368 172.896055 
L 346.104127 174.510549 
L 346.607165 175.26277 
L 346.732925 172.508463 
L 346.858684 173.32305 
L 346.984444 172.209998 
L 347.487482 172.209998 
L 347.613242 172.068455 
L 347.739001 173.263577 
L 347.864761 173.008144 
L 348.242039 175.607365 
L 348.367799 173.966756 
L 348.493558 174.940586 
L 348.619318 173.415618 
L 348.745077 173.248048 
L 349.122356 173.469269 
L 349.373875 175.406465 
L 349.499635 177.261431 
L 349.625394 176.588579 
L 349.876913 176.588579 
L 350.002673 180.768925 
L 350.128432 181.055771 
L 350.505711 175.199157 
L 351.260268 175.089557 
L 351.386028 177.179632 
L 351.511787 177.179632 
L 351.763306 177.45784 
L 352.014825 175.048191 
L 352.140585 175.225055 
L 352.266344 174.391437 
L 352.643623 174.686784 
L 352.769382 173.743521 
L 352.895142 173.859959 
L 353.020902 173.735887 
L 353.146661 172.011232 
L 353.52394 172.297203 
L 353.649699 174.62783 
L 354.026978 173.035624 
L 354.404256 172.250715 
L 354.530016 170.532191 
L 354.781535 170.805492 
L 354.907295 170.805492 
L 355.536092 168.214864 
L 355.661852 169.351511 
L 355.787611 167.969421 
L 356.16489 168.94955 
L 356.290649 168.537288 
L 356.667928 166.042518 
L 357.170966 164.902935 
L 357.296726 166.340995 
L 357.548245 163.042156 
L 357.925523 161.812487 
L 358.051283 160.943777 
L 358.177042 162.448814 
L 358.302802 160.594928 
L 358.428561 161.00621 
L 358.80584 160.164345 
L 358.9316 160.706498 
L 359.057359 162.455036 
L 359.183119 161.997846 
L 359.308878 162.044978 
L 359.686157 163.64112 
L 359.811916 164.702318 
L 360.063435 163.852688 
L 360.189195 165.049784 
L 360.566474 163.922651 
L 360.692233 164.24414 
L 360.817993 163.36711 
L 361.069512 164.314364 
L 361.44679 164.60556 
L 361.57255 163.467135 
L 361.698309 163.697987 
L 361.824069 163.569386 
L 361.949828 164.801358 
L 362.201347 164.801358 
L 362.327107 163.783016 
L 362.578626 166.424998 
L 362.830145 164.012676 
L 363.333183 163.904558 
L 363.458943 165.014527 
L 363.584702 162.971549 
L 363.710462 163.266673 
L 364.2135 162.565483 
L 364.33926 161.599948 
L 364.590779 162.902168 
L 364.968057 161.761575 
L 365.093817 162.371016 
L 365.219576 164.80375 
L 365.345336 164.099126 
L 365.471095 164.5494 
L 365.848374 164.678633 
L 366.099893 165.766432 
L 366.225653 166.565689 
L 366.728691 166.574484 
L 366.98021 165.307472 
L 367.231729 165.658911 
L 367.609007 165.658911 
L 367.734767 165.461604 
L 367.860527 165.933259 
L 368.112046 167.764956 
L 368.489324 167.88658 
L 368.615084 167.368118 
L 368.866603 167.496509 
L 368.992362 168.140511 
L 369.369641 168.148181 
L 369.4954 167.823441 
L 369.62116 169.062752 
L 369.74692 169.048078 
L 369.872679 169.828446 
L 371.004515 169.828446 
L 371.130274 170.008398 
L 371.256034 169.698413 
L 371.381793 168.546244 
L 371.507553 168.436292 
L 371.633313 167.560709 
L 372.010591 167.448271 
L 372.136351 167.259901 
L 372.26211 167.505283 
L 372.38787 168.050976 
L 372.513629 167.95862 
L 373.016667 168.19137 
L 373.142427 167.69293 
L 373.268186 168.194615 
L 373.393946 169.197802 
L 373.771225 168.974306 
L 374.022744 167.510822 
L 374.148503 167.244738 
L 374.274263 166.540204 
L 374.651541 166.547143 
L 374.90306 167.285301 
L 375.02882 167.919709 
L 375.154579 167.618385 
L 375.531858 168.998397 
L 375.657618 168.454616 
L 375.909137 169.744553 
L 376.034896 169.882962 
L 376.412175 169.383039 
L 376.537934 169.698303 
L 376.789453 168.818951 
L 376.915213 169.284483 
L 377.418251 169.911792 
L 377.544011 170.123015 
L 377.66977 169.854148 
L 377.79553 169.977677 
L 378.172808 169.92474 
L 378.675846 171.1241 
L 379.053125 171.561773 
L 379.178885 172.690251 
L 379.304644 172.585419 
L 379.430404 171.873577 
L 379.556163 172.409929 
L 379.933442 172.417163 
L 380.184961 172.736316 
L 380.31072 172.672026 
L 380.939518 171.003833 
L 381.065278 171.373696 
L 381.442556 170.510325 
L 381.945594 168.772714 
L 382.197113 167.720883 
L 382.574392 167.546237 
L 382.825911 168.302811 
L 383.07743 167.944017 
L 383.454709 167.818845 
L 383.957747 166.860091 
L 385.089583 166.860091 
L 385.341102 165.926601 
L 385.71838 164.948239 
L 386.095659 165.115953 
L 386.347178 164.793423 
L 386.472938 163.945314 
L 386.598697 164.095935 
L 387.101735 163.403837 
L 387.227495 163.341794 
L 387.479014 164.203558 
L 387.856292 164.189927 
L 387.982052 164.405732 
L 388.233571 164.293982 
L 388.359331 164.567709 
L 388.736609 164.773122 
L 388.988128 164.381479 
L 389.113888 164.641522 
L 389.239647 164.641191 
L 389.616926 164.040722 
L 389.742685 164.326332 
L 389.994204 163.882458 
L 390.119964 164.138409 
L 390.497243 163.861272 
L 390.748762 164.015691 
L 390.874521 164.562809 
L 391.754838 163.055824 
L 391.880597 163.369034 
L 392.257876 163.132246 
L 392.383636 163.440423 
L 392.635155 162.926784 
L 392.760914 162.158212 
L 393.138193 161.589851 
L 393.389712 161.755036 
L 393.641231 161.084136 
L 394.01851 161.233113 
L 394.270029 160.574866 
L 394.395788 161.110747 
L 394.521548 160.770848 
L 395.276105 160.353635 
L 395.401864 161.174378 
L 395.653384 161.174378 
L 395.904903 161.633988 
L 396.156422 160.845317 
L 396.282181 160.463328 
L 396.910979 160.463328 
L 397.036738 160.017834 
L 397.539777 159.776602 
L 397.665536 160.135952 
L 397.917055 159.485417 
L 398.042815 160.086925 
L 398.420093 159.748667 
L 398.545853 159.87185 
L 398.797372 159.538829 
L 398.923131 159.132958 
L 399.42617 158.619169 
L 399.677689 158.849242 
L 399.803448 158.639682 
L 400.180727 158.540354 
L 400.306486 158.223659 
L 400.432246 158.267408 
L 400.683765 157.676812 
L 401.061043 157.451341 
L 401.186803 157.947222 
L 401.312563 157.695054 
L 401.438322 157.77601 
L 401.564082 157.149835 
L 401.94136 156.55599 
L 402.192879 155.680844 
L 402.444398 155.685682 
L 402.821677 156.168386 
L 402.947436 155.814502 
L 403.198956 155.8922 
L 403.576234 155.8922 
L 403.701994 156.331256 
L 403.953513 156.083184 
L 404.205032 154.52847 
L 404.58231 154.514698 
L 404.833829 154.15962 
L 404.959589 153.996855 
L 405.085349 154.100601 
L 405.462627 154.038624 
L 405.588387 153.26034 
L 405.714146 153.706493 
L 405.839906 153.342478 
L 405.965665 153.489456 
L 406.342944 153.23082 
L 406.468703 152.799888 
L 406.594463 152.817998 
L 406.720222 153.237509 
L 406.845982 153.003677 
L 407.223261 152.895566 
L 407.47478 153.833374 
L 407.726299 153.625839 
L 408.229337 153.852612 
L 408.355096 153.75122 
L 408.606616 152.932479 
L 409.361173 152.865204 
L 409.486932 153.175695 
L 410.241489 152.362901 
L 410.367249 152.743116 
L 410.744528 152.752371 
L 410.870287 152.531798 
L 410.996047 153.253732 
L 411.121806 153.090938 
L 411.247566 153.789039 
L 411.624844 154.022273 
L 411.876363 152.960192 
L 412.002123 152.945565 
L 412.127882 153.143798 
L 412.630921 153.406515 
L 412.75668 153.830465 
L 413.008199 155.48287 
L 413.385478 155.53862 
L 413.762756 154.509777 
L 413.888516 154.628603 
L 414.517314 155.080995 
L 414.643073 154.863098 
L 414.768833 154.415283 
L 415.146111 154.582538 
L 415.271871 154.801964 
L 415.39763 154.690317 
L 415.52339 154.114522 
L 416.780985 154.088103 
L 416.906745 153.665504 
L 417.158264 154.679703 
L 417.284023 154.569191 
L 417.912821 154.975647 
L 418.038581 155.489644 
L 418.2901 156.975515 
L 418.667378 157.303759 
L 419.044657 156.362189 
L 419.170416 155.770822 
L 419.547695 155.22461 
L 419.799214 155.357668 
L 420.553771 153.953849 
L 420.80529 153.988034 
L 420.93105 153.850038 
L 421.434088 153.578663 
L 421.559848 153.204141 
L 421.685607 153.417105 
L 421.811367 153.05476 
L 422.188645 152.786884 
L 422.314405 152.931501 
L 422.565924 153.708121 
L 422.691683 153.994244 
L 423.068962 154.244349 
L 423.194721 154.042732 
L 423.320481 154.257004 
L 423.572 153.956713 
L 423.949279 154.116147 
L 424.075038 154.798684 
L 424.326557 154.832301 
L 424.452317 154.501249 
L 424.829595 153.829967 
L 424.955355 153.880963 
L 425.332634 153.446562 
L 425.835672 153.334023 
L 425.961431 153.533965 
L 426.21295 152.818797 
L 426.715988 152.329382 
L 427.093267 149.938314 
L 427.344786 149.910731 
L 427.596305 150.109722 
L 427.847824 150.681201 
L 427.973584 150.650317 
L 428.350862 151.148661 
L 428.476622 150.655402 
L 428.602381 150.913412 
L 428.728141 150.651844 
L 428.8539 150.835146 
L 429.356939 150.858236 
L 429.482698 151.441782 
L 429.734217 150.990003 
L 430.111496 151.622678 
L 430.363015 151.155272 
L 430.488774 149.918509 
L 430.614534 149.888648 
L 430.991813 150.287742 
L 431.369091 149.988325 
L 431.494851 150.491809 
L 431.74637 150.491809 
L 431.872129 150.198694 
L 432.249408 147.722931 
L 433.507003 147.722931 
L 434.010041 145.191078 
L 434.135801 144.628473 
L 434.51308 144.579198 
L 434.638839 143.890534 
L 434.764599 144.445122 
L 434.890358 143.395964 
L 435.016118 143.66007 
L 435.393396 143.233709 
L 435.519156 143.318063 
L 435.644915 142.832082 
L 435.770675 142.800005 
L 435.896434 142.449338 
L 436.273713 142.36958 
L 436.525232 143.588248 
L 436.650992 143.802763 
L 436.776751 143.290808 
L 437.279789 142.154765 
L 437.531308 142.010051 
L 437.657068 142.377918 
L 438.285866 142.993818 
L 438.411625 142.60481 
L 438.537385 141.796621 
L 438.788904 141.745707 
L 439.291942 140.739439 
L 439.79498 140.670591 
L 439.920739 140.208431 
L 440.046499 140.267857 
L 440.172259 140.027006 
L 440.298018 139.461646 
L 440.675297 139.107617 
L 440.801056 139.699006 
L 441.052575 138.176727 
L 441.178335 138.012722 
L 441.555613 137.747632 
L 441.681373 137.420378 
L 442.058652 138.174216 
L 442.310171 138.174216 
L 442.43593 138.635105 
L 442.56169 138.146469 
L 442.938968 138.146469 
L 443.442006 136.532648 
L 443.567766 136.823872 
L 443.693525 136.466156 
L 443.819285 136.725506 
L 443.945045 136.725506 
L 444.196564 136.519868 
L 444.322323 135.995795 
L 444.573842 136.507494 
L 445.07688 135.830008 
L 445.579918 136.584713 
L 445.957197 135.797444 
L 446.082957 135.882591 
L 446.334476 135.683196 
L 446.460235 135.698733 
L 446.837514 135.592524 
L 446.963273 135.069992 
L 447.089033 135.273739 
L 447.340552 135.228575 
L 447.717831 135.228575 
L 447.96935 134.734234 
L 448.095109 134.834069 
L 448.220869 134.64765 
L 448.598147 134.603894 
L 448.723907 134.21602 
L 449.478464 135.391191 
L 449.604224 135.328516 
L 449.729983 134.599867 
L 449.855743 134.893004 
L 449.981502 134.437735 
L 450.233021 134.274036 
L 450.6103 134.719743 
L 450.861819 135.219253 
L 451.239098 136.064256 
L 451.364857 135.138308 
L 451.490617 135.231787 
L 451.742136 134.294902 
L 452.119414 134.414502 
L 452.245174 134.155139 
L 452.370933 134.502753 
L 452.622452 134.201115 
L 452.999731 134.033304 
L 453.25125 135.306773 
L 453.37701 135.122348 
L 453.502769 134.407525 
L 454.005807 134.305942 
L 454.257326 132.961782 
L 454.383086 133.357866 
L 454.760364 133.892871 
L 454.886124 133.790043 
L 455.011884 133.425074 
L 455.640681 135.411478 
L 455.8922 134.955612 
L 456.01796 135.107756 
L 456.143719 135.600568 
L 456.520998 135.116579 
L 456.772517 135.900325 
L 457.024036 136.045128 
L 457.401315 136.023153 
L 457.527074 136.825346 
L 457.652834 136.672884 
L 458.030112 135.594644 
L 458.281631 135.968311 
L 458.407391 135.696618 
L 458.53315 135.696618 
L 458.65891 135.234609 
L 458.78467 135.57256 
L 459.287708 135.760208 
L 459.790746 135.679054 
L 460.168024 135.679054 
L 460.419543 134.843036 
L 460.545303 134.947439 
L 460.922582 134.920498 
L 461.29986 131.443055 
L 461.42562 131.377164 
L 461.677139 131.377164 
L 461.802898 129.517526 
L 462.683215 129.517526 
L 462.808975 127.631449 
L 462.934734 131.471077 
L 463.060494 130.00875 
L 463.186253 130.44102 
L 463.312013 130.44102 
L 463.563532 128.620761 
L 463.689291 129.186496 
L 463.815051 129.034706 
L 463.94081 129.135206 
L 464.06657 127.857162 
L 464.443849 127.549083 
L 464.569608 127.608964 
L 464.821127 128.438069 
L 464.946887 128.058645 
L 465.324165 127.934223 
L 465.575684 128.763998 
L 465.827203 128.333566 
L 466.204482 127.650267 
L 466.330242 126.536756 
L 466.456001 126.581253 
L 466.581761 125.618075 
L 466.70752 125.710979 
L 467.084799 124.821652 
L 467.210558 125.136149 
L 467.336318 124.971103 
L 467.587837 126.421113 
L 467.965116 126.913665 
L 468.216635 125.803387 
L 468.342394 125.640041 
L 468.468154 126.561951 
L 468.845432 126.185665 
L 468.971192 126.305865 
L 469.096951 125.470493 
L 469.222711 125.459777 
L 469.34847 124.40381 
L 469.47423 124.40381 
L 469.725749 123.103041 
L 469.977268 123.144027 
L 470.228787 122.211125 
L 470.606066 121.972867 
L 470.857585 119.968479 
L 470.983344 119.389812 
L 471.109104 119.446462 
L 471.486382 119.388186 
L 471.612142 119.970165 
L 471.863661 119.964743 
L 471.989421 119.170238 
L 472.366699 119.420284 
L 472.492459 119.088329 
L 472.618218 119.438387 
L 472.869737 118.41108 
L 473.372775 118.227501 
L 473.624295 118.196624 
L 473.750054 118.431477 
L 474.127333 118.256401 
L 474.253092 117.830958 
L 475.007649 119.178827 
L 475.133409 117.889805 
L 475.384928 118.055058 
L 475.510688 117.72902 
L 475.887966 117.549596 
L 476.013726 117.033301 
L 476.139485 117.100457 
L 476.265245 117.365711 
L 476.391004 116.897835 
L 476.642523 116.897835 
L 476.894042 116.694794 
L 477.774359 116.694794 
L 477.900119 116.272014 
L 478.151638 114.623488 
L 478.277397 114.623488 
L 478.654676 115.085113 
L 478.780435 114.643987 
L 479.031955 115.089118 
L 479.409233 115.296447 
L 479.534993 116.270922 
L 479.660752 115.199639 
L 479.786512 115.359321 
L 479.912271 115.297573 
L 480.415309 116.023257 
L 480.541069 115.462242 
L 480.666828 115.980175 
L 480.792588 116.984731 
L 481.169867 116.622764 
L 481.547145 115.397224 
L 481.672905 116.096731 
L 482.050183 116.166593 
L 482.175943 116.912134 
L 482.301702 116.435863 
L 482.427462 116.441639 
L 482.553221 115.512643 
L 482.9305 115.774834 
L 483.05626 115.478461 
L 483.182019 115.615225 
L 483.307779 115.318368 
L 483.433538 115.95407 
L 483.810817 115.909176 
L 484.188095 115.159915 
L 484.313855 115.427131 
L 484.691134 115.497808 
L 484.816893 115.290439 
L 485.068412 114.406375 
L 485.194172 114.406375 
L 485.57145 117.002454 
L 485.822969 116.16156 
L 486.074488 115.273142 
L 486.451767 115.036057 
L 486.577527 115.108766 
L 486.703286 115.31309 
L 486.954805 115.260128 
L 487.583603 114.554931 
L 487.835122 114.819546 
L 488.086641 114.819546 
L 488.2124 114.994879 
L 488.46392 114.193498 
L 489.092717 114.193498 
L 489.218477 113.477486 
L 489.344236 113.459028 
L 489.595755 112.609056 
L 489.973034 112.410415 
L 490.098794 112.148735 
L 490.224553 112.163216 
L 490.476072 112.5682 
L 490.853351 112.35375 
L 491.10487 111.721335 
L 491.356389 112.174634 
L 491.733667 112.207535 
L 491.985187 112.483692 
L 492.110946 112.489147 
L 492.362465 112.269697 
L 492.613984 112.269697 
L 493.117022 111.102083 
L 493.494301 110.797848 
L 493.62006 111.017557 
L 493.87158 110.369772 
L 493.997339 110.710019 
L 494.500377 110.362483 
L 494.626137 110.198492 
L 494.877656 110.55027 
L 495.254934 110.425904 
L 495.506453 109.742412 
L 495.632213 109.806158 
L 495.757973 109.590725 
L 496.135251 109.176555 
L 496.261011 108.551906 
L 496.38677 108.56725 
L 496.638289 108.036199 
L 497.015568 107.891451 
L 497.141327 107.421264 
L 497.518606 107.856469 
L 497.895885 107.958599 
L 498.021644 107.79601 
L 498.398923 106.69763 
L 498.776201 106.327046 
L 498.901961 106.038979 
L 499.15348 106.569473 
L 499.279239 106.467308 
L 499.782278 106.341668 
L 499.908037 106.095768 
L 500.033797 106.340464 
L 500.662594 105.336727 
L 501.039873 104.675185 
L 501.542911 104.694299 
L 501.668671 104.228853 
L 501.79443 104.606516 
L 501.92019 104.172848 
L 502.423228 104.442092 
L 503.303545 102.04924 
L 503.429304 103.019645 
L 504.058102 102.652136 
L 504.183861 103.134361 
L 504.309621 103.134361 
L 504.43538 107.366081 
L 504.56114 102.310365 
L 504.938419 101.949834 
L 505.064178 103.515328 
L 505.189938 103.41427 
L 505.315697 99.925542 
L 505.441457 99.745891 
L 505.818735 99.504531 
L 505.944495 99.128249 
L 506.070254 97.979907 
L 506.196014 98.917364 
L 506.321773 99.006996 
L 506.699052 97.545406 
L 506.824812 98.232592 
L 507.076331 95.685386 
L 507.20209 97.801863 
L 507.453609 97.801863 
L 507.705128 93.00471 
L 508.711205 93.00471 
L 508.836964 90.123922 
L 508.962724 94.312088 
L 509.088483 94.312088 
L 509.340002 95.029393 
L 509.465762 99.14081 
L 509.591521 96.351886 
L 509.717281 96.347176 
L 509.84304 100.091394 
L 510.220319 98.854168 
L 510.346078 96.138268 
L 510.597598 97.082516 
L 510.723357 94.246387 
L 511.100636 91.481067 
L 511.226395 92.08576 
L 511.352155 90.018918 
L 511.603674 92.63005 
L 511.980952 92.333681 
L 512.106712 94.600203 
L 512.232471 93.967902 
L 512.358231 91.799909 
L 512.483991 92.712713 
L 512.861269 92.373839 
L 512.987029 93.39106 
L 513.112788 93.46028 
L 513.238548 91.337691 
L 513.364307 93.722113 
L 513.741586 94.213985 
L 513.867345 95.719369 
L 513.993105 95.643595 
L 514.118864 96.298563 
L 514.244624 100.803099 
L 514.621903 99.916062 
L 514.873422 97.724027 
L 514.999181 97.840204 
L 515.124941 96.858464 
L 515.37646 96.858464 
L 515.502219 95.237992 
L 515.753738 96.875947 
L 515.879498 96.656758 
L 516.005258 94.984528 
L 516.382536 93.744092 
L 516.508296 94.312336 
L 516.634055 93.747521 
L 516.759815 94.891624 
L 516.885574 93.274972 
L 517.262853 94.973039 
L 517.388612 96.982496 
L 517.514372 94.123713 
L 517.640131 95.096378 
L 517.765891 93.717073 
L 518.268929 91.506542 
L 518.520448 89.789872 
L 518.646208 89.151943 
L 519.023486 90.230492 
L 519.149246 89.67138 
L 519.275005 89.892061 
L 519.778044 89.892061 
L 520.029563 83.570163 
L 520.155322 83.270573 
L 520.281082 84.193284 
L 520.406841 82.36393 
L 520.78412 80.528196 
L 520.909879 81.931685 
L 521.035639 81.733734 
L 521.287158 80.279038 
L 521.664437 79.929796 
L 521.790196 80.950358 
L 521.915956 79.360756 
L 522.041715 79.393969 
L 522.167475 77.97804 
L 522.544753 78.261166 
L 522.670513 77.607978 
L 522.796272 76.240744 
L 523.173551 78.842617 
L 523.42507 83.882449 
L 523.676589 79.659803 
L 523.928108 81.96072 
L 524.431146 78.010524 
L 524.556906 77.862509 
L 524.682665 76.489613 
L 524.808425 78.615866 
L 526.06602 78.615866 
L 526.317539 74.942802 
L 526.443299 75.04153 
L 526.569058 74.713131 
L 526.694818 74.713131 
L 526.946337 74.422589 
L 527.197856 80.786671 
L 527.449375 78.533313 
L 527.826654 81.040232 
L 528.078173 76.77077 
L 528.329692 78.957428 
L 528.70697 78.731934 
L 528.83273 80.938866 
L 528.958489 79.238529 
L 529.210009 83.366119 
L 529.587287 89.15396 
L 529.838806 83.400251 
L 529.964566 85.676481 
L 530.090325 83.78166 
L 530.467604 83.695546 
L 530.593363 86.408074 
L 530.719123 82.514192 
L 530.970642 84.633669 
L 531.347921 84.633669 
L 531.47368 83.872122 
L 531.59944 77.286523 
L 531.725199 77.402581 
L 531.850959 74.96492 
L 532.228237 74.523135 
L 532.353997 72.268887 
L 532.479756 72.887696 
L 532.605516 69.508992 
L 533.234314 67.263028 
L 533.360073 65.622966 
L 533.485833 67.031516 
L 533.988871 65.729787 
L 534.11463 67.112729 
L 534.366149 63.998158 
L 534.994947 63.998158 
L 535.246466 58.398632 
L 535.372226 59.59769 
L 535.497985 59.59769 
L 535.749504 55.605594 
L 535.875264 55.827647 
L 536.001023 53.836042 
L 536.252542 60.053753 
L 536.629821 60.336131 
L 536.88134 58.630157 
L 537.0071 61.541507 
L 537.132859 57.866017 
L 537.635897 54.910003 
L 537.761657 56.367907 
L 537.887416 55.888964 
L 538.013176 58.235703 
L 538.264695 58.235703 
L 538.390455 60.041123 
L 538.390455 60.041123 
" clip-path="url(#p05dea35ebb)" style="fill: none; stroke: #348dc1; stroke-width: 1.5; stroke-linecap: round"/>
   </g>
   <g id="line2d_16">
    <path d="M 47.966 298.54958 
L 561.744 298.54958 
" clip-path="url(#p05dea35ebb)" style="fill: none; stroke-dasharray: 3.7,1.6; stroke-dashoffset: 0; stroke: #000000"/>
   </g>
  </g>
  <g id="text_14">
   <!-- Cumulative Returns -->
   <g transform="translate(221.879531 31.620938) scale(0.14 -0.14)">
    <defs>
     <path id="Arial-BoldMT-43" d="M 3397 1684 
L 4294 1400 
Q 4088 650 3608 286 
Q 3128 -78 2391 -78 
Q 1478 -78 890 545 
Q 303 1169 303 2250 
Q 303 3394 893 4026 
Q 1484 4659 2447 4659 
Q 3288 4659 3813 4163 
Q 4125 3869 4281 3319 
L 3366 3100 
Q 3284 3456 3026 3662 
Q 2769 3869 2400 3869 
Q 1891 3869 1573 3503 
Q 1256 3138 1256 2319 
Q 1256 1450 1568 1081 
Q 1881 713 2381 713 
Q 2750 713 3015 947 
Q 3281 1181 3397 1684 
z
" transform="scale(0.015625)"/>
     <path id="Arial-BoldMT-75" d="M 2644 0 
L 2644 497 
Q 2463 231 2167 78 
Q 1872 -75 1544 -75 
Q 1209 -75 943 72 
Q 678 219 559 484 
Q 441 750 441 1219 
L 441 3319 
L 1319 3319 
L 1319 1794 
Q 1319 1094 1367 936 
Q 1416 778 1544 686 
Q 1672 594 1869 594 
Q 2094 594 2272 717 
Q 2450 841 2515 1023 
Q 2581 1206 2581 1919 
L 2581 3319 
L 3459 3319 
L 3459 0 
L 2644 0 
z
" transform="scale(0.015625)"/>
     <path id="Arial-BoldMT-6d" d="M 394 3319 
L 1203 3319 
L 1203 2866 
Q 1638 3394 2238 3394 
Q 2556 3394 2790 3262 
Q 3025 3131 3175 2866 
Q 3394 3131 3647 3262 
Q 3900 3394 4188 3394 
Q 4553 3394 4806 3245 
Q 5059 3097 5184 2809 
Q 5275 2597 5275 2122 
L 5275 0 
L 4397 0 
L 4397 1897 
Q 4397 2391 4306 2534 
Q 4184 2722 3931 2722 
Q 3747 2722 3584 2609 
Q 3422 2497 3350 2280 
Q 3278 2063 3278 1594 
L 3278 0 
L 2400 0 
L 2400 1819 
Q 2400 2303 2353 2443 
Q 2306 2584 2207 2653 
Q 2109 2722 1941 2722 
Q 1738 2722 1575 2612 
Q 1413 2503 1342 2297 
Q 1272 2091 1272 1613 
L 1272 0 
L 394 0 
L 394 3319 
z
" transform="scale(0.015625)"/>
     <path id="Arial-BoldMT-6c" d="M 459 0 
L 459 4581 
L 1338 4581 
L 1338 0 
L 459 0 
z
" transform="scale(0.015625)"/>
     <path id="Arial-BoldMT-61" d="M 1116 2306 
L 319 2450 
Q 453 2931 781 3162 
Q 1109 3394 1756 3394 
Q 2344 3394 2631 3255 
Q 2919 3116 3036 2902 
Q 3153 2688 3153 2116 
L 3144 1091 
Q 3144 653 3186 445 
Q 3228 238 3344 0 
L 2475 0 
Q 2441 88 2391 259 
Q 2369 338 2359 363 
Q 2134 144 1878 34 
Q 1622 -75 1331 -75 
Q 819 -75 523 203 
Q 228 481 228 906 
Q 228 1188 362 1408 
Q 497 1628 739 1745 
Q 981 1863 1438 1950 
Q 2053 2066 2291 2166 
L 2291 2253 
Q 2291 2506 2166 2614 
Q 2041 2722 1694 2722 
Q 1459 2722 1328 2630 
Q 1197 2538 1116 2306 
z
M 2291 1594 
Q 2122 1538 1756 1459 
Q 1391 1381 1278 1306 
Q 1106 1184 1106 997 
Q 1106 813 1243 678 
Q 1381 544 1594 544 
Q 1831 544 2047 700 
Q 2206 819 2256 991 
Q 2291 1103 2291 1419 
L 2291 1594 
z
" transform="scale(0.015625)"/>
     <path id="Arial-BoldMT-74" d="M 1981 3319 
L 1981 2619 
L 1381 2619 
L 1381 1281 
Q 1381 875 1398 808 
Q 1416 741 1477 697 
Q 1538 653 1625 653 
Q 1747 653 1978 738 
L 2053 56 
Q 1747 -75 1359 -75 
Q 1122 -75 931 4 
Q 741 84 652 211 
Q 563 338 528 553 
Q 500 706 500 1172 
L 500 2619 
L 97 2619 
L 97 3319 
L 500 3319 
L 500 3978 
L 1381 4491 
L 1381 3319 
L 1981 3319 
z
" transform="scale(0.015625)"/>
     <path id="Arial-BoldMT-69" d="M 459 3769 
L 459 4581 
L 1338 4581 
L 1338 3769 
L 459 3769 
z
M 459 0 
L 459 3319 
L 1338 3319 
L 1338 0 
L 459 0 
z
" transform="scale(0.015625)"/>
     <path id="Arial-BoldMT-76" d="M 1372 0 
L 34 3319 
L 956 3319 
L 1581 1625 
L 1763 1059 
Q 1834 1275 1853 1344 
Q 1897 1484 1947 1625 
L 2578 3319 
L 3481 3319 
L 2163 0 
L 1372 0 
z
" transform="scale(0.015625)"/>
     <path id="Arial-BoldMT-65" d="M 2381 1056 
L 3256 909 
Q 3088 428 2723 176 
Q 2359 -75 1813 -75 
Q 947 -75 531 491 
Q 203 944 203 1634 
Q 203 2459 634 2926 
Q 1066 3394 1725 3394 
Q 2466 3394 2894 2905 
Q 3322 2416 3303 1406 
L 1103 1406 
Q 1113 1016 1316 798 
Q 1519 581 1822 581 
Q 2028 581 2168 693 
Q 2309 806 2381 1056 
z
M 2431 1944 
Q 2422 2325 2234 2523 
Q 2047 2722 1778 2722 
Q 1491 2722 1303 2513 
Q 1116 2303 1119 1944 
L 2431 1944 
z
" transform="scale(0.015625)"/>
     <path id="Arial-BoldMT-20" transform="scale(0.015625)"/>
     <path id="Arial-BoldMT-52" d="M 469 0 
L 469 4581 
L 2416 4581 
Q 3150 4581 3483 4457 
Q 3816 4334 4016 4018 
Q 4216 3703 4216 3297 
Q 4216 2781 3912 2445 
Q 3609 2109 3006 2022 
Q 3306 1847 3501 1637 
Q 3697 1428 4028 894 
L 4588 0 
L 3481 0 
L 2813 997 
Q 2456 1531 2325 1670 
Q 2194 1809 2047 1861 
Q 1900 1913 1581 1913 
L 1394 1913 
L 1394 0 
L 469 0 
z
M 1394 2644 
L 2078 2644 
Q 2744 2644 2909 2700 
Q 3075 2756 3169 2893 
Q 3263 3031 3263 3238 
Q 3263 3469 3139 3611 
Q 3016 3753 2791 3791 
Q 2678 3806 2116 3806 
L 1394 3806 
L 1394 2644 
z
" transform="scale(0.015625)"/>
     <path id="Arial-BoldMT-72" d="M 1300 0 
L 422 0 
L 422 3319 
L 1238 3319 
L 1238 2847 
Q 1447 3181 1614 3287 
Q 1781 3394 1994 3394 
Q 2294 3394 2572 3228 
L 2300 2463 
Q 2078 2606 1888 2606 
Q 1703 2606 1575 2504 
Q 1447 2403 1373 2137 
Q 1300 1872 1300 1025 
L 1300 0 
z
" transform="scale(0.015625)"/>
     <path id="Arial-BoldMT-6e" d="M 3478 0 
L 2600 0 
L 2600 1694 
Q 2600 2231 2544 2389 
Q 2488 2547 2361 2634 
Q 2234 2722 2056 2722 
Q 1828 2722 1647 2597 
Q 1466 2472 1398 2265 
Q 1331 2059 1331 1503 
L 1331 0 
L 453 0 
L 453 3319 
L 1269 3319 
L 1269 2831 
Q 1703 3394 2363 3394 
Q 2653 3394 2893 3289 
Q 3134 3184 3257 3021 
Q 3381 2859 3429 2653 
Q 3478 2447 3478 2063 
L 3478 0 
z
" transform="scale(0.015625)"/>
     <path id="Arial-BoldMT-73" d="M 150 947 
L 1031 1081 
Q 1088 825 1259 692 
Q 1431 559 1741 559 
Q 2081 559 2253 684 
Q 2369 772 2369 919 
Q 2369 1019 2306 1084 
Q 2241 1147 2013 1200 
Q 950 1434 666 1628 
Q 272 1897 272 2375 
Q 272 2806 612 3100 
Q 953 3394 1669 3394 
Q 2350 3394 2681 3172 
Q 3013 2950 3138 2516 
L 2309 2363 
Q 2256 2556 2107 2659 
Q 1959 2763 1684 2763 
Q 1338 2763 1188 2666 
Q 1088 2597 1088 2488 
Q 1088 2394 1175 2328 
Q 1294 2241 1995 2081 
Q 2697 1922 2975 1691 
Q 3250 1456 3250 1038 
Q 3250 581 2869 253 
Q 2488 -75 1741 -75 
Q 1063 -75 667 200 
Q 272 475 150 947 
z
" transform="scale(0.015625)"/>
    </defs>
    <use xlink:href="#Arial-BoldMT-43"/>
    <use xlink:href="#Arial-BoldMT-75" transform="translate(72.216797 0)"/>
    <use xlink:href="#Arial-BoldMT-6d" transform="translate(133.300781 0)"/>
    <use xlink:href="#Arial-BoldMT-75" transform="translate(222.216797 0)"/>
    <use xlink:href="#Arial-BoldMT-6c" transform="translate(283.300781 0)"/>
    <use xlink:href="#Arial-BoldMT-61" transform="translate(311.083984 0)"/>
    <use xlink:href="#Arial-BoldMT-74" transform="translate(366.699219 0)"/>
    <use xlink:href="#Arial-BoldMT-69" transform="translate(400 0)"/>
    <use xlink:href="#Arial-BoldMT-76" transform="translate(427.783203 0)"/>
    <use xlink:href="#Arial-BoldMT-65" transform="translate(483.398438 0)"/>
    <use xlink:href="#Arial-BoldMT-20" transform="translate(539.013672 0)"/>
    <use xlink:href="#Arial-BoldMT-52" transform="translate(566.796875 0)"/>
    <use xlink:href="#Arial-BoldMT-65" transform="translate(639.013672 0)"/>
    <use xlink:href="#Arial-BoldMT-74" transform="translate(694.628906 0)"/>
    <use xlink:href="#Arial-BoldMT-75" transform="translate(727.929688 0)"/>
    <use xlink:href="#Arial-BoldMT-72" transform="translate(789.013672 0)"/>
    <use xlink:href="#Arial-BoldMT-6e" transform="translate(827.929688 0)"/>
    <use xlink:href="#Arial-BoldMT-73" transform="translate(889.013672 0)"/>
   </g>
  </g>
 </g>
 <defs>
  <clipPath id="p05dea35ebb">
   <rect x="47.966" y="41.472" width="513.778" height="272.008926"/>
  </clipPath>
 </defs>
</svg>