<svg xmlns:xlink="http://www.w3.org/1999/xlink" width="576pt" height="360pt" viewBox="0 0 576 360" xmlns="http://www.w3.org/2000/svg" version="1.1">
 <metadata>
  <rdf:RDF xmlns:dc="http://purl.org/dc/elements/1.1/" xmlns:cc="http://creativecommons.org/ns#" xmlns:rdf="http://www.w3.org/1999/02/22-rdf-syntax-ns#">
   <cc:Work>
    <dc:type rdf:resource="http://purl.org/dc/dcmitype/StillImage"/>
    <dc:date>2026-06-03T09:05:57.079508</dc:date>
    <dc:format>image/svg+xml</dc:format>
    <dc:creator>
     <cc:Agent>
      <dc:title>Matplotlib v3.10.8, https://matplotlib.org/</dc:title>
     </cc:Agent>
    </dc:creator>
   </cc:Work>
  </rdf:RDF>
 </metadata>
 <defs>
  <style type="text/css">*{stroke-linejoin: round; stroke-linecap: butt}</style>
 </defs>
 <g id="figure_1">
  <g id="patch_1">
   <path d="M 0 360 
L 576 360 
L 576 0 
L 0 0 
z
" style="fill: #ffffff"/>
  </g>
  <g id="axes_1">
   <g id="patch_2">
    <path d="M 47.966 313.480926 
L 561.744 313.480926 
L 561.744 41.572392 
L 47.966 41.572392 
z
" style="fill: #ffffff"/>
   </g>
   <g id="matplotlib.axis_1">
    <g id="xtick_1">
     <g id="line2d_1">
      <path d="M 60.001187 313.480926 
L 60.001187 41.572392 
" clip-path="url(#p242f6b856a)" style="fill: none; stroke: #dddddd; stroke-width: 0.5; stroke-linecap: round"/>
     </g>
     <g id="text_1">
      <!-- 2016 -->
      <g style="fill: #666666" transform="translate(35.48973 343.939) rotate(-30) scale(0.121 -0.121)">
       <defs>
        <path id="ArialMT-32" d="M 3222 541 
L 3222 0 
L 194 0 
Q 188 203 259 391 
Q 375 700 629 1000 
Q 884 1300 1366 1694 
Q 2113 2306 2375 2664 
Q 2638 3022 2638 3341 
Q 2638 3675 2398 3904 
Q 2159 4134 1775 4134 
Q 1369 4134 1125 3890 
Q 881 3647 878 3216 
L 300 3275 
Q 359 3922 746 4261 
Q 1134 4600 1788 4600 
Q 2447 4600 2831 4234 
Q 3216 3869 3216 3328 
Q 3216 3053 3103 2787 
Q 2991 2522 2730 2228 
Q 2469 1934 1863 1422 
Q 1356 997 1212 845 
Q 1069 694 975 541 
L 3222 541 
z
" transform="scale(0.015625)"/>
        <path id="ArialMT-30" d="M 266 2259 
Q 266 3072 433 3567 
Q 600 4063 929 4331 
Q 1259 4600 1759 4600 
Q 2128 4600 2406 4451 
Q 2684 4303 2865 4023 
Q 3047 3744 3150 3342 
Q 3253 2941 3253 2259 
Q 3253 1453 3087 958 
Q 2922 463 2592 192 
Q 2263 -78 1759 -78 
Q 1097 -78 719 397 
Q 266 969 266 2259 
z
M 844 2259 
Q 844 1131 1108 757 
Q 1372 384 1759 384 
Q 2147 384 2411 759 
Q 2675 1134 2675 2259 
Q 2675 3391 2411 3762 
Q 2147 4134 1753 4134 
Q 1366 4134 1134 3806 
Q 844 3388 844 2259 
z
" transform="scale(0.015625)"/>
        <path id="ArialMT-31" d="M 2384 0 
L 1822 0 
L 1822 3584 
Q 1619 3391 1289 3197 
Q 959 3003 697 2906 
L 697 3450 
Q 1169 3672 1522 3987 
Q 1875 4303 2022 4600 
L 2384 4600 
L 2384 0 
z
" transform="scale(0.015625)"/>
        <path id="ArialMT-36" d="M 3184 3459 
L 2625 3416 
Q 2550 3747 2413 3897 
Q 2184 4138 1850 4138 
Q 1581 4138 1378 3988 
Q 1113 3794 959 3422 
Q 806 3050 800 2363 
Q 1003 2672 1297 2822 
Q 1591 2972 1913 2972 
Q 2475 2972 2870 2558 
Q 3266 2144 3266 1488 
Q 3266 1056 3080 686 
Q 2894 316 2569 119 
Q 2244 -78 1831 -78 
Q 1128 -78 684 439 
Q 241 956 241 2144 
Q 241 3472 731 4075 
Q 1159 4600 1884 4600 
Q 2425 4600 2770 4297 
Q 3116 3994 3184 3459 
z
M 888 1484 
Q 888 1194 1011 928 
Q 1134 663 1356 523 
Q 1578 384 1822 384 
Q 2178 384 2434 671 
Q 2691 959 2691 1453 
Q 2691 1928 2437 2201 
Q 2184 2475 1800 2475 
Q 1419 2475 1153 2201 
Q 888 1928 888 1484 
z
" transform="scale(0.015625)"/>
       </defs>
       <use xlink:href="#ArialMT-32"/>
       <use xlink:href="#ArialMT-30" transform="translate(55.615234 0)"/>
       <use xlink:href="#ArialMT-31" transform="translate(111.230469 0)"/>
       <use xlink:href="#ArialMT-36" transform="translate(166.845703 0)"/>
      </g>
     </g>
    </g>
    <g id="xtick_2">
     <g id="line2d_2">
      <path d="M 151.931407 313.480926 
L 151.931407 41.572392 
" clip-path="url(#p242f6b856a)" style="fill: none; stroke: #dddddd; stroke-width: 0.5; stroke-linecap: round"/>
     </g>
     <g id="text_2">
      <!-- 2018 -->
      <g style="fill: #666666" transform="translate(127.41995 343.939) rotate(-30) scale(0.121 -0.121)">
       <defs>
        <path id="ArialMT-38" d="M 1131 2484 
Q 781 2613 612 2850 
Q 444 3088 444 3419 
Q 444 3919 803 4259 
Q 1163 4600 1759 4600 
Q 2359 4600 2725 4251 
Q 3091 3903 3091 3403 
Q 3091 3084 2923 2848 
Q 2756 2613 2416 2484 
Q 2838 2347 3058 2040 
Q 3278 1734 3278 1309 
Q 3278 722 2862 322 
Q 2447 -78 1769 -78 
Q 1091 -78 675 323 
Q 259 725 259 1325 
Q 259 1772 486 2073 
Q 713 2375 1131 2484 
z
M 1019 3438 
Q 1019 3113 1228 2906 
Q 1438 2700 1772 2700 
Q 2097 2700 2305 2904 
Q 2513 3109 2513 3406 
Q 2513 3716 2298 3927 
Q 2084 4138 1766 4138 
Q 1444 4138 1231 3931 
Q 1019 3725 1019 3438 
z
M 838 1322 
Q 838 1081 952 856 
Q 1066 631 1291 507 
Q 1516 384 1775 384 
Q 2178 384 2440 643 
Q 2703 903 2703 1303 
Q 2703 1709 2433 1975 
Q 2163 2241 1756 2241 
Q 1359 2241 1098 1978 
Q 838 1716 838 1322 
z
" transform="scale(0.015625)"/>
       </defs>
       <use xlink:href="#ArialMT-32"/>
       <use xlink:href="#ArialMT-30" transform="translate(55.615234 0)"/>
       <use xlink:href="#ArialMT-31" transform="translate(111.230469 0)"/>
       <use xlink:href="#ArialMT-38" transform="translate(166.845703 0)"/>
      </g>
     </g>
    </g>
    <g id="xtick_3">
     <g id="line2d_3">
      <path d="M 243.735867 313.480926 
L 243.735867 41.572392 
" clip-path="url(#p242f6b856a)" style="fill: none; stroke: #dddddd; stroke-width: 0.5; stroke-linecap: round"/>
     </g>
     <g id="text_3">
      <!-- 2020 -->
      <g style="fill: #666666" transform="translate(219.224409 343.939) rotate(-30) scale(0.121 -0.121)">
       <use xlink:href="#ArialMT-32"/>
       <use xlink:href="#ArialMT-30" transform="translate(55.615234 0)"/>
       <use xlink:href="#ArialMT-32" transform="translate(111.230469 0)"/>
       <use xlink:href="#ArialMT-30" transform="translate(166.845703 0)"/>
      </g>
     </g>
    </g>
    <g id="xtick_4">
     <g id="line2d_4">
      <path d="M 335.666086 313.480926 
L 335.666086 41.572392 
" clip-path="url(#p242f6b856a)" style="fill: none; stroke: #dddddd; stroke-width: 0.5; stroke-linecap: round"/>
     </g>
     <g id="text_4">
      <!-- 2022 -->
      <g style="fill: #666666" transform="translate(311.154629 343.939) rotate(-30) scale(0.121 -0.121)">
       <use xlink:href="#ArialMT-32"/>
       <use xlink:href="#ArialMT-30" transform="translate(55.615234 0)"/>
       <use xlink:href="#ArialMT-32" transform="translate(111.230469 0)"/>
       <use xlink:href="#ArialMT-32" transform="translate(166.845703 0)"/>
      </g>
     </g>
    </g>
    <g id="xtick_5">
     <g id="line2d_5">
      <path d="M 427.470546 313.480926 
L 427.470546 41.572392 
" clip-path="url(#p242f6b856a)" style="fill: none; stroke: #dddddd; stroke-width: 0.5; stroke-linecap: round"/>
     </g>
     <g id="text_5">
      <!-- 2024 -->
      <g style="fill: #666666" transform="translate(402.959088 343.939) rotate(-30) scale(0.121 -0.121)">
       <defs>
        <path id="ArialMT-34" d="M 2069 0 
L 2069 1097 
L 81 1097 
L 81 1613 
L 2172 4581 
L 2631 4581 
L 2631 1613 
L 3250 1613 
L 3250 1097 
L 2631 1097 
L 2631 0 
L 2069 0 
z
M 2069 1613 
L 2069 3678 
L 634 1613 
L 2069 1613 
z
" transform="scale(0.015625)"/>
       </defs>
       <use xlink:href="#ArialMT-32"/>
       <use xlink:href="#ArialMT-30" transform="translate(55.615234 0)"/>
       <use xlink:href="#ArialMT-32" transform="translate(111.230469 0)"/>
       <use xlink:href="#ArialMT-34" transform="translate(166.845703 0)"/>
      </g>
     </g>
    </g>
    <g id="xtick_6">
     <g id="line2d_6">
      <path d="M 519.400765 313.480926 
L 519.400765 41.572392 
" clip-path="url(#p242f6b856a)" style="fill: none; stroke: #dddddd; stroke-width: 0.5; stroke-linecap: round"/>
     </g>
     <g id="text_6">
      <!-- 2026 -->
      <g style="fill: #666666" transform="translate(494.889308 343.939) rotate(-30) scale(0.121 -0.121)">
       <use xlink:href="#ArialMT-32"/>
       <use xlink:href="#ArialMT-30" transform="translate(55.615234 0)"/>
       <use xlink:href="#ArialMT-32" transform="translate(111.230469 0)"/>
       <use xlink:href="#ArialMT-36" transform="translate(166.845703 0)"/>
      </g>
     </g>
    </g>
   </g>
   <g id="matplotlib.axis_2">
    <g id="ytick_1">
     <g id="line2d_7">
      <path d="M 47.966 297.906761 
L 561.744 297.906761 
" clip-path="url(#p242f6b856a)" style="fill: none; stroke: #dddddd; stroke-width: 0.5; stroke-linecap: round"/>
     </g>
     <g id="text_7">
      <!-- 0% -->
      <g style="fill: #666666" transform="translate(20.977719 302.237238) scale(0.121 -0.121)">
       <defs>
        <path id="ArialMT-25" d="M 372 3481 
Q 372 3972 619 4315 
Q 866 4659 1334 4659 
Q 1766 4659 2048 4351 
Q 2331 4044 2331 3447 
Q 2331 2866 2045 2552 
Q 1759 2238 1341 2238 
Q 925 2238 648 2547 
Q 372 2856 372 3481 
z
M 1350 4272 
Q 1141 4272 1002 4090 
Q 863 3909 863 3425 
Q 863 2984 1003 2804 
Q 1144 2625 1350 2625 
Q 1563 2625 1702 2806 
Q 1841 2988 1841 3469 
Q 1841 3913 1700 4092 
Q 1559 4272 1350 4272 
z
M 1353 -169 
L 3859 4659 
L 4316 4659 
L 1819 -169 
L 1353 -169 
z
M 3334 1075 
Q 3334 1569 3581 1911 
Q 3828 2253 4300 2253 
Q 4731 2253 5014 1945 
Q 5297 1638 5297 1041 
Q 5297 459 5011 145 
Q 4725 -169 4303 -169 
Q 3888 -169 3611 142 
Q 3334 453 3334 1075 
z
M 4316 1866 
Q 4103 1866 3964 1684 
Q 3825 1503 3825 1019 
Q 3825 581 3965 400 
Q 4106 219 4313 219 
Q 4528 219 4667 400 
Q 4806 581 4806 1063 
Q 4806 1506 4665 1686 
Q 4525 1866 4316 1866 
z
" transform="scale(0.015625)"/>
       </defs>
       <use xlink:href="#ArialMT-30"/>
       <use xlink:href="#ArialMT-25" transform="translate(55.615234 0)"/>
      </g>
     </g>
    </g>
    <g id="ytick_2">
     <g id="line2d_8">
      <path d="M 47.966 255.715546 
L 561.744 255.715546 
" clip-path="url(#p242f6b856a)" style="fill: none; stroke: #dddddd; stroke-width: 0.5; stroke-linecap: round"/>
     </g>
     <g id="text_8">
      <!-- 10% -->
      <g style="fill: #666666" transform="translate(14.248984 260.046022) scale(0.121 -0.121)">
       <use xlink:href="#ArialMT-31"/>
       <use xlink:href="#ArialMT-30" transform="translate(55.615234 0)"/>
       <use xlink:href="#ArialMT-25" transform="translate(111.230469 0)"/>
      </g>
     </g>
    </g>
    <g id="ytick_3">
     <g id="line2d_9">
      <path d="M 47.966 213.52433 
L 561.744 213.52433 
" clip-path="url(#p242f6b856a)" style="fill: none; stroke: #dddddd; stroke-width: 0.5; stroke-linecap: round"/>
     </g>
     <g id="text_9">
      <!-- 20% -->
      <g style="fill: #666666" transform="translate(14.248984 217.854807) scale(0.121 -0.121)">
       <use xlink:href="#ArialMT-32"/>
       <use xlink:href="#ArialMT-30" transform="translate(55.615234 0)"/>
       <use xlink:href="#ArialMT-25" transform="translate(111.230469 0)"/>
      </g>
     </g>
    </g>
    <g id="ytick_4">
     <g id="line2d_10">
      <path d="M 47.966 171.333115 
L 561.744 171.333115 
" clip-path="url(#p242f6b856a)" style="fill: none; stroke: #dddddd; stroke-width: 0.5; stroke-linecap: round"/>
     </g>
     <g id="text_10">
      <!-- 30% -->
      <g style="fill: #666666" transform="translate(14.248984 175.663591) scale(0.121 -0.121)">
       <defs>
        <path id="ArialMT-33" d="M 269 1209 
L 831 1284 
Q 928 806 1161 595 
Q 1394 384 1728 384 
Q 2125 384 2398 659 
Q 2672 934 2672 1341 
Q 2672 1728 2419 1979 
Q 2166 2231 1775 2231 
Q 1616 2231 1378 2169 
L 1441 2663 
Q 1497 2656 1531 2656 
Q 1891 2656 2178 2843 
Q 2466 3031 2466 3422 
Q 2466 3731 2256 3934 
Q 2047 4138 1716 4138 
Q 1388 4138 1169 3931 
Q 950 3725 888 3313 
L 325 3413 
Q 428 3978 793 4289 
Q 1159 4600 1703 4600 
Q 2078 4600 2393 4439 
Q 2709 4278 2876 4000 
Q 3044 3722 3044 3409 
Q 3044 3113 2884 2869 
Q 2725 2625 2413 2481 
Q 2819 2388 3044 2092 
Q 3269 1797 3269 1353 
Q 3269 753 2831 336 
Q 2394 -81 1725 -81 
Q 1122 -81 723 278 
Q 325 638 269 1209 
z
" transform="scale(0.015625)"/>
       </defs>
       <use xlink:href="#ArialMT-33"/>
       <use xlink:href="#ArialMT-30" transform="translate(55.615234 0)"/>
       <use xlink:href="#ArialMT-25" transform="translate(111.230469 0)"/>
      </g>
     </g>
    </g>
    <g id="ytick_5">
     <g id="line2d_11">
      <path d="M 47.966 129.141899 
L 561.744 129.141899 
" clip-path="url(#p242f6b856a)" style="fill: none; stroke: #dddddd; stroke-width: 0.5; stroke-linecap: round"/>
     </g>
     <g id="text_11">
      <!-- 40% -->
      <g style="fill: #666666" transform="translate(14.248984 133.472376) scale(0.121 -0.121)">
       <use xlink:href="#ArialMT-34"/>
       <use xlink:href="#ArialMT-30" transform="translate(55.615234 0)"/>
       <use xlink:href="#ArialMT-25" transform="translate(111.230469 0)"/>
      </g>
     </g>
    </g>
    <g id="ytick_6">
     <g id="line2d_12">
      <path d="M 47.966 86.950684 
L 561.744 86.950684 
" clip-path="url(#p242f6b856a)" style="fill: none; stroke: #dddddd; stroke-width: 0.5; stroke-linecap: round"/>
     </g>
     <g id="text_12">
      <!-- 50% -->
      <g style="fill: #666666" transform="translate(14.248984 91.28116) scale(0.121 -0.121)">
       <defs>
        <path id="ArialMT-35" d="M 266 1200 
L 856 1250 
Q 922 819 1161 601 
Q 1400 384 1738 384 
Q 2144 384 2425 690 
Q 2706 997 2706 1503 
Q 2706 1984 2436 2262 
Q 2166 2541 1728 2541 
Q 1456 2541 1237 2417 
Q 1019 2294 894 2097 
L 366 2166 
L 809 4519 
L 3088 4519 
L 3088 3981 
L 1259 3981 
L 1013 2750 
Q 1425 3038 1878 3038 
Q 2478 3038 2890 2622 
Q 3303 2206 3303 1553 
Q 3303 931 2941 478 
Q 2500 -78 1738 -78 
Q 1113 -78 717 272 
Q 322 622 266 1200 
z
" transform="scale(0.015625)"/>
       </defs>
       <use xlink:href="#ArialMT-35"/>
       <use xlink:href="#ArialMT-30" transform="translate(55.615234 0)"/>
       <use xlink:href="#ArialMT-25" transform="translate(111.230469 0)"/>
      </g>
     </g>
    </g>
    <g id="ytick_7">
     <g id="line2d_13">
      <path d="M 47.966 44.759468 
L 561.744 44.759468 
" clip-path="url(#p242f6b856a)" style="fill: none; stroke: #dddddd; stroke-width: 0.5; stroke-linecap: round"/>
     </g>
     <g id="text_13">
      <!-- 60% -->
      <g style="fill: #666666" transform="translate(14.248984 49.089945) scale(0.121 -0.121)">
       <use xlink:href="#ArialMT-36"/>
       <use xlink:href="#ArialMT-30" transform="translate(55.615234 0)"/>
       <use xlink:href="#ArialMT-25" transform="translate(111.230469 0)"/>
      </g>
     </g>
    </g>
   </g>
   <g id="line2d_14">
    <path d="M 47.966 297.906761 
L 561.744 297.906761 
" clip-path="url(#p242f6b856a)" style="fill: none; stroke: #808080; stroke-linecap: round"/>
   </g>
   <g id="line2d_15">
    <path d="M 71.319545 297.906761 
L 71.445305 297.845015 
L 71.822584 297.845015 
L 72.074103 297.001399 
L 72.325622 297.432909 
L 72.7029 296.881936 
L 72.954419 297.263204 
L 73.080179 297.466587 
L 73.205938 297.1677 
L 73.708977 297.968492 
L 73.960496 300.07834 
L 74.086255 300.151959 
L 74.589293 301.121447 
L 74.840812 300.439693 
L 75.092331 300.493131 
L 75.721129 299.25057 
L 75.846889 300.163236 
L 76.224167 300.372937 
L 76.349927 300.250539 
L 76.475686 300.320342 
L 76.727205 300.046823 
L 77.104484 299.610063 
L 77.230244 299.776139 
L 77.356003 300.487134 
L 77.481763 300.497855 
L 77.607522 300.170633 
L 77.984801 299.881953 
L 78.11056 300.137285 
L 78.487839 299.622982 
L 78.865117 299.573104 
L 78.990877 298.590805 
L 79.116637 298.574373 
L 79.242396 298.445059 
L 79.368156 298.127601 
L 79.745434 298.100254 
L 79.871194 297.785849 
L 80.122713 297.922528 
L 80.499991 297.922528 
L 80.625751 298.573253 
L 80.751511 298.486805 
L 80.87727 297.923907 
L 81.00303 297.953054 
L 81.128789 297.661815 
L 81.506068 297.158576 
L 81.631827 297.209256 
L 81.757587 296.573545 
L 82.009106 296.590695 
L 82.637904 295.320181 
L 82.763663 295.500483 
L 83.266701 294.160205 
L 83.392461 294.110131 
L 83.64398 293.350264 
L 83.769739 293.360746 
L 84.147018 293.58124 
L 84.398537 292.745859 
L 84.524297 292.483655 
L 84.650056 292.590541 
L 85.027335 292.406047 
L 85.278854 292.608508 
L 85.404613 292.49824 
L 85.530373 292.61757 
L 85.907651 292.571335 
L 86.033411 292.018524 
L 86.15917 292.719414 
L 86.41069 292.572013 
L 86.662209 292.572013 
L 86.787968 292.696877 
L 87.165247 292.177962 
L 87.291006 292.159411 
L 87.919804 291.330654 
L 88.045563 291.407328 
L 88.171323 290.697664 
L 88.548602 289.686607 
L 88.92588 289.930249 
L 89.05164 289.798212 
L 89.428918 290.129097 
L 89.554678 289.962054 
L 89.806197 290.332039 
L 89.931956 289.917739 
L 90.309235 289.939995 
L 90.434995 290.14791 
L 90.560754 289.8456 
L 90.686514 290.125242 
L 91.189552 290.109662 
L 91.441071 289.51461 
L 91.56683 289.302796 
L 91.69259 289.345655 
L 92.069869 290.264307 
L 92.195628 289.98582 
L 92.321388 290.422862 
L 92.824426 290.422862 
L 93.075945 289.745276 
L 93.201704 289.855535 
L 93.327464 289.423695 
L 93.453223 289.526114 
L 93.830502 290.11464 
L 93.956262 289.873341 
L 94.082021 289.986389 
L 94.33354 289.480839 
L 95.465376 289.480839 
L 95.716895 288.364717 
L 95.968414 288.381112 
L 96.094174 288.391411 
L 96.471452 288.641098 
L 96.597212 288.115429 
L 96.722971 288.152688 
L 96.97449 287.897521 
L 97.477529 287.455346 
L 97.729048 287.866403 
L 97.854807 288.359326 
L 98.232086 288.476919 
L 98.357845 288.179512 
L 98.483605 288.342609 
L 98.735124 287.514324 
L 99.112402 287.54155 
L 99.238162 287.306275 
L 99.363922 287.743922 
L 99.489681 287.429701 
L 99.615441 287.651626 
L 100.118479 287.745503 
L 100.495757 288.221659 
L 100.998795 287.300193 
L 101.250315 287.584611 
L 101.376074 287.146314 
L 101.879112 287.558705 
L 102.256391 289.565725 
L 102.633669 289.926092 
L 102.759429 290.679395 
L 103.010948 290.234409 
L 103.136708 290.23333 
L 103.765505 292.919173 
L 103.891265 295.060618 
L 104.017024 295.190278 
L 104.394303 295.973054 
L 104.520062 296.882533 
L 104.771581 296.013522 
L 105.400379 295.327183 
L 105.526139 295.526074 
L 105.651898 295.421416 
L 105.777658 294.62683 
L 105.903417 294.585643 
L 106.280696 293.893178 
L 106.406455 293.134678 
L 106.657974 293.35955 
L 107.161013 292.733421 
L 107.412532 293.135844 
L 107.91557 293.280456 
L 108.292848 293.49308 
L 108.418608 293.066976 
L 108.670127 293.066976 
L 108.921646 292.350102 
L 109.047406 292.426248 
L 109.173165 292.04936 
L 110.053482 292.04936 
L 110.179241 292.606582 
L 110.55652 292.638123 
L 110.808039 293.099154 
L 111.436837 292.040599 
L 111.562596 292.024763 
L 111.688356 292.124244 
L 111.814115 291.883857 
L 111.939875 292.307921 
L 112.568673 290.293464 
L 112.694432 290.569238 
L 112.820192 290.438925 
L 113.19747 290.813024 
L 113.448989 290.544943 
L 113.574749 290.941314 
L 113.700508 290.93481 
L 114.203547 290.604393 
L 114.580825 291.236373 
L 115.209623 290.635695 
L 115.335382 290.344159 
L 115.461142 290.862154 
L 116.08994 291.034217 
L 116.341459 290.406773 
L 116.844497 290.194464 
L 117.096016 290.560893 
L 117.221775 290.282367 
L 117.724813 290.282367 
L 117.976333 289.712589 
L 118.102092 289.64136 
L 118.73089 289.660589 
L 118.856649 289.555805 
L 118.982409 289.925983 
L 119.359687 290.148264 
L 119.736966 290.852997 
L 119.862726 290.748846 
L 120.365764 291.324204 
L 120.617283 290.977951 
L 120.743042 291.066169 
L 120.994561 291.066169 
L 121.37184 291.37538 
L 121.623359 291.950241 
L 122.126397 292.420034 
L 122.377916 292.814215 
L 122.503676 292.28859 
L 123.006714 292.140232 
L 123.132473 292.564255 
L 123.258233 292.491098 
L 123.383993 292.268965 
L 123.761271 292.086786 
L 124.01279 291.625832 
L 124.264309 290.19207 
L 124.767347 290.19207 
L 125.018866 289.824945 
L 125.144626 289.963861 
L 125.521905 290.213789 
L 125.647664 289.818083 
L 125.899183 288.447042 
L 126.024943 288.173639 
L 126.402221 288.016208 
L 126.527981 287.587227 
L 126.7795 288.291235 
L 126.905259 288.386016 
L 127.408298 287.203325 
L 127.659817 286.263419 
L 128.288614 284.657096 
L 128.414374 284.982612 
L 128.665893 284.080087 
L 129.043172 283.864009 
L 129.168931 284.119949 
L 129.42045 283.049536 
L 129.54621 282.873494 
L 129.923488 282.766393 
L 130.049248 282.03658 
L 130.175007 282.060772 
L 130.426526 280.468957 
L 130.803805 281.003131 
L 130.929565 280.780108 
L 131.181084 279.948416 
L 131.306843 280.058697 
L 131.684122 279.536308 
L 131.809881 279.671534 
L 132.0614 280.190464 
L 132.18716 279.773949 
L 132.564438 279.645644 
L 132.815958 278.639901 
L 132.941717 279.066913 
L 133.067477 278.977287 
L 133.444755 278.999601 
L 133.570515 278.850236 
L 133.947793 280.797881 
L 134.325072 280.240272 
L 134.576591 279.721271 
L 134.82811 279.274406 
L 135.205389 279.155479 
L 135.331148 278.956941 
L 135.456908 278.406961 
L 135.582667 278.616745 
L 135.708427 277.294241 
L 136.085705 277.038828 
L 136.211465 276.759233 
L 136.588744 277.916101 
L 136.966022 277.016872 
L 137.091782 277.016872 
L 137.343301 277.21675 
L 137.46906 277.063574 
L 137.846339 277.009678 
L 138.097858 276.554146 
L 138.223618 276.647536 
L 138.349377 276.601897 
L 138.726656 276.257792 
L 138.852415 276.463347 
L 139.103934 275.950911 
L 139.229694 275.956242 
L 139.732732 276.342247 
L 139.984251 276.276061 
L 140.110011 275.767976 
L 140.864568 275.749101 
L 140.990327 275.749101 
L 141.493365 274.508019 
L 141.870644 273.805888 
L 142.247923 273.796753 
L 142.373682 273.926682 
L 142.499442 273.364199 
L 142.625201 273.488456 
L 143.253999 272.910966 
L 143.379758 272.2967 
L 143.505518 272.258721 
L 143.631277 271.943017 
L 144.134316 272.400967 
L 144.260075 272.311816 
L 144.511594 272.499313 
L 144.888873 272.090683 
L 145.014632 271.364639 
L 145.140392 271.465113 
L 145.391911 270.36705 
L 145.76919 270.223111 
L 146.020709 271.562211 
L 146.272228 270.425081 
L 146.649506 270.013435 
L 146.775266 268.876182 
L 146.901025 269.086842 
L 147.026785 271.357954 
L 147.152544 271.217704 
L 147.655583 272.133142 
L 147.781342 271.81445 
L 148.032861 272.961038 
L 148.535899 272.137078 
L 148.787418 273.370587 
L 148.913178 272.621565 
L 149.290457 271.612796 
L 149.416216 272.649264 
L 149.541976 272.135955 
L 149.667735 272.354618 
L 149.793495 272.964454 
L 150.170773 272.909705 
L 150.296533 271.954796 
L 150.422292 271.998515 
L 150.673811 271.375687 
L 151.05109 271.382136 
L 151.17685 271.15453 
L 151.302609 272.137284 
L 151.554128 271.116466 
L 151.805647 271.057127 
L 152.308685 268.215937 
L 152.811723 267.200609 
L 153.063243 266.625159 
L 153.189002 266.887435 
L 153.314762 266.517719 
L 153.69204 266.579001 
L 153.8178 265.782073 
L 153.943559 265.817234 
L 154.195078 264.709902 
L 154.572357 263.698397 
L 154.823876 262.277699 
L 154.949636 262.535788 
L 155.075395 261.998063 
L 155.452674 263.185689 
L 155.578433 264.135482 
L 155.704193 263.478441 
L 155.829952 263.665416 
L 155.955712 262.895032 
L 156.33299 262.314222 
L 156.836029 271.080714 
L 157.087548 271.080714 
L 157.464826 267.992729 
L 158.345143 267.992729 
L 158.596662 265.183493 
L 158.722422 265.183493 
L 158.973941 264.102787 
L 159.22546 265.94099 
L 159.351219 265.482773 
L 159.476979 266.27298 
L 159.854257 266.623752 
L 159.980017 265.330216 
L 160.105776 265.967497 
L 160.357295 264.617432 
L 160.734574 263.932272 
L 160.986093 264.737667 
L 161.111853 264.411016 
L 161.237612 264.929255 
L 161.74065 264.460591 
L 161.992169 265.528627 
L 162.117929 267.14421 
L 162.495208 267.256099 
L 162.620967 266.635393 
L 162.746727 267.955352 
L 162.998246 266.603876 
L 163.124005 266.630922 
L 163.375524 266.566775 
L 163.501284 266.682067 
L 163.878562 266.626848 
L 164.130082 266.626848 
L 164.50736 264.046054 
L 164.758879 265.211016 
L 165.136158 266.101043 
L 165.261917 267.173809 
L 165.513436 264.737954 
L 165.639196 265.896761 
L 166.016475 266.268284 
L 166.142234 264.713027 
L 166.267994 265.100387 
L 166.393753 266.459663 
L 166.645272 266.356195 
L 167.022551 266.356195 
L 167.27407 265.530531 
L 167.399829 265.809993 
L 167.777108 264.621606 
L 167.902868 265.220693 
L 168.028627 265.21867 
L 168.154387 264.833786 
L 168.280146 265.121388 
L 168.783184 264.374241 
L 169.034703 265.408183 
L 169.160463 264.801521 
L 169.537741 264.186735 
L 169.663501 264.324167 
L 169.91502 265.500542 
L 170.04078 265.513706 
L 170.418058 264.962706 
L 170.669577 266.81398 
L 170.795337 265.39391 
L 170.921096 265.88086 
L 171.298375 265.176222 
L 171.549894 264.491058 
L 171.675654 264.641641 
L 171.801413 265.389355 
L 172.178692 265.302803 
L 172.304451 264.396985 
L 172.55597 265.286224 
L 173.059008 265.294657 
L 173.184768 267.610628 
L 173.310527 267.196551 
L 173.436287 267.749796 
L 173.562047 267.469789 
L 174.065085 269.026669 
L 174.316604 270.924436 
L 174.442363 268.532802 
L 174.568123 268.542996 
L 174.819642 269.725403 
L 174.945401 269.541257 
L 175.19692 270.447606 
L 175.825718 267.672869 
L 175.951478 268.634774 
L 176.202997 266.414993 
L 176.580275 266.64832 
L 176.831794 267.039052 
L 176.957554 266.698479 
L 177.083314 265.321492 
L 177.460592 264.398291 
L 177.712111 263.125631 
L 177.837871 263.729259 
L 177.96363 263.447055 
L 178.340909 263.26809 
L 178.466668 262.911546 
L 178.843947 265.011228 
L 179.221226 265.410061 
L 179.346985 263.328016 
L 179.472745 264.147881 
L 179.598504 262.928125 
L 180.227302 264.579073 
L 180.478821 266.673279 
L 180.60458 267.827931 
L 180.981859 267.26579 
L 181.107619 266.081556 
L 181.233378 266.338639 
L 181.862176 264.172163 
L 182.113695 264.50133 
L 182.365214 265.419226 
L 182.742493 265.735871 
L 182.868252 265.034449 
L 182.994012 265.034449 
L 183.119771 265.620047 
L 183.245531 265.544306 
L 183.748569 266.505434 
L 183.874328 266.893869 
L 184.125847 265.844757 
L 184.503126 266.149357 
L 184.754645 264.560169 
L 184.880405 264.618312 
L 185.006164 263.068694 
L 185.383443 263.068694 
L 185.509202 263.433721 
L 185.634962 262.866432 
L 185.760721 262.863842 
L 185.886481 262.127731 
L 186.766798 262.090916 
L 187.144076 264.111804 
L 187.395595 263.977462 
L 187.521355 265.85116 
L 187.647114 264.667861 
L 188.150152 265.216572 
L 188.275912 264.914801 
L 188.401672 265.500932 
L 188.527431 264.360465 
L 188.90471 262.610873 
L 189.030469 263.768084 
L 189.281988 263.624067 
L 189.785026 265.033283 
L 189.910786 264.652918 
L 190.162305 263.103707 
L 190.288065 261.359754 
L 190.665343 261.80364 
L 190.916862 261.636599 
L 191.042622 261.786331 
L 191.168381 262.556058 
L 191.54566 261.949621 
L 191.671419 261.18123 
L 191.797179 261.293768 
L 192.048698 259.999769 
L 192.425977 259.471617 
L 192.551736 260.483321 
L 192.677496 260.20921 
L 192.803255 260.528601 
L 192.929015 261.500565 
L 193.432053 261.449536 
L 193.557812 260.773152 
L 193.683572 261.081737 
L 194.31237 258.364372 
L 194.438129 258.674942 
L 194.563889 259.762213 
L 194.689648 259.670844 
L 195.066927 259.833568 
L 195.444205 258.742671 
L 195.569965 259.809006 
L 195.947244 260.164697 
L 196.198763 261.271938 
L 196.324522 261.396416 
L 196.450282 262.032838 
L 196.82756 261.814695 
L 197.204839 262.22357 
L 197.330598 261.332602 
L 197.707877 261.058264 
L 197.959396 261.379938 
L 198.085156 260.840061 
L 198.210915 259.337169 
L 198.713953 258.101272 
L 198.965472 257.149632 
L 199.091232 256.752595 
L 199.468511 257.444855 
L 199.72003 256.042275 
L 199.845789 256.264454 
L 199.971549 255.28245 
L 200.348827 255.068613 
L 200.474587 255.741462 
L 200.600346 255.753219 
L 200.851865 254.682954 
L 201.229144 254.892568 
L 201.480663 254.737396 
L 201.732182 252.715648 
L 202.612499 252.715648 
L 203.115537 250.47642 
L 203.367056 249.00669 
L 203.492816 250.38735 
L 203.870094 247.91897 
L 203.995854 248.299859 
L 204.247373 247.534001 
L 204.750411 240.963931 
L 205.00193 243.660403 
L 205.12769 243.850183 
L 205.253449 242.183626 
L 205.756487 240.470285 
L 205.882247 239.756161 
L 206.008006 240.519017 
L 206.133766 243.974181 
L 206.636804 240.845364 
L 206.888323 243.167817 
L 207.391361 239.878467 
L 207.517121 239.911586 
L 207.64288 240.110798 
L 207.894399 239.127872 
L 208.271678 240.587783 
L 208.397437 242.036027 
L 208.523197 241.110085 
L 208.648957 241.187922 
L 208.774716 238.512288 
L 209.026235 238.526357 
L 209.151995 236.424987 
L 209.277754 236.233968 
L 209.529273 235.001198 
L 209.655033 235.001198 
L 210.28383 235.592597 
L 210.40959 237.517913 
L 210.53535 237.671135 
L 210.912628 238.643608 
L 211.038388 237.405118 
L 211.164147 237.338185 
L 211.289907 237.522232 
L 211.415666 236.669382 
L 212.044464 238.856881 
L 212.295983 241.444539 
L 212.673262 241.522248 
L 212.799021 241.063313 
L 213.1763 241.063313 
L 213.553578 244.381996 
L 213.679338 243.521224 
L 213.930857 244.940999 
L 214.056616 242.435541 
L 214.559655 243.221382 
L 214.811174 241.069424 
L 214.936933 242.893783 
L 215.314212 243.590899 
L 215.439971 242.855457 
L 215.565731 242.899889 
L 215.69149 244.149513 
L 216.194529 243.479823 
L 216.320288 242.926309 
L 216.446048 242.907152 
L 216.571807 243.265319 
L 216.697567 243.005512 
L 217.074845 243.104179 
L 217.200605 243.814014 
L 217.326364 243.585295 
L 217.452124 244.189942 
L 217.577883 244.189942 
L 217.955162 243.258582 
L 218.080922 241.513791 
L 218.332441 242.095371 
L 218.4582 242.55521 
L 218.835479 242.72194 
L 218.961238 242.438456 
L 219.086998 241.214443 
L 219.338517 238.462976 
L 219.715796 238.099481 
L 219.841555 238.368022 
L 219.967315 238.358138 
L 220.093074 237.077897 
L 220.470353 236.969493 
L 220.721872 234.789947 
L 220.973391 235.616223 
L 221.09915 235.268153 
L 221.602189 237.091805 
L 221.727948 237.096979 
L 221.979467 236.362107 
L 222.356746 236.079509 
L 222.608265 236.276938 
L 222.734024 236.797242 
L 222.859784 236.002464 
L 223.740101 232.742261 
L 224.117379 232.780563 
L 224.243139 232.337017 
L 225.123455 235.56937 
L 225.249215 235.224582 
L 225.374975 233.707354 
L 225.500734 234.027591 
L 225.878013 232.900919 
L 226.003772 233.187044 
L 226.381051 232.186761 
L 226.758329 230.610518 
L 226.884089 230.674199 
L 227.135608 230.479102 
L 227.261368 229.93558 
L 227.638646 230.546836 
L 227.764406 229.816304 
L 228.267444 230.237674 
L 228.518963 229.537725 
L 228.770482 229.557412 
L 229.022001 228.724182 
L 229.39928 228.356247 
L 229.650799 228.661262 
L 229.902318 228.557091 
L 230.279596 228.693399 
L 230.405356 229.24639 
L 230.531115 229.237156 
L 230.782635 228.798915 
L 231.411432 229.167238 
L 231.537192 229.464225 
L 231.662951 229.35854 
L 232.543268 229.429041 
L 232.920547 229.429041 
L 233.172066 228.69579 
L 233.423585 228.1625 
L 233.800863 227.76565 
L 234.052382 228.156135 
L 234.178142 228.120041 
L 234.303901 228.489808 
L 234.68118 228.554716 
L 234.80694 228.348627 
L 235.058459 228.794745 
L 235.184218 228.520634 
L 235.561497 228.323343 
L 235.687256 228.47395 
L 235.938775 229.129635 
L 236.064535 228.765413 
L 236.441814 228.477722 
L 236.567573 227.927255 
L 236.693333 227.906922 
L 236.944852 227.676303 
L 237.32213 228.063378 
L 237.573649 227.892907 
L 238.202447 227.099305 
L 238.328207 226.559523 
L 238.453966 226.637888 
L 238.579726 226.507107 
L 238.705485 226.732124 
L 239.208523 226.27281 
L 239.334283 226.412577 
L 239.460042 226.341793 
L 239.711561 226.443626 
L 240.2146 226.016797 
L 240.466119 225.492059 
L 240.843397 225.397608 
L 241.094916 224.922195 
L 241.220676 224.903115 
L 241.346435 224.32983 
L 241.723714 223.84456 
L 241.849473 223.374154 
L 242.100993 223.35006 
L 242.604031 223.485439 
L 242.981309 222.365523 
L 243.107069 222.250317 
L 243.484347 221.658338 
L 243.861626 220.473509 
L 243.987386 220.387929 
L 244.364664 220.285641 
L 244.490424 219.88837 
L 244.616183 220.214881 
L 244.867702 219.594951 
L 245.37074 218.982182 
L 245.4965 219.343221 
L 245.62226 219.346134 
L 245.748019 219.150363 
L 245.999538 219.150363 
L 246.125298 218.465742 
L 246.251057 218.701985 
L 246.376817 218.373628 
L 246.502576 219.257914 
L 247.508653 219.257914 
L 247.885931 220.394297 
L 248.26321 218.458603 
L 248.892007 217.333698 
L 249.143526 216.497323 
L 249.772324 214.651473 
L 249.898084 214.993968 
L 250.149603 213.539523 
L 250.526881 213.140187 
L 250.652641 213.175889 
L 250.7784 214.006065 
L 250.90416 213.676483 
L 251.029919 215.488269 
L 251.155679 215.488269 
L 251.784477 212.202017 
L 251.910236 212.323224 
L 252.287515 213.158915 
L 252.413274 212.820471 
L 252.664793 213.974495 
L 252.790553 214.61264 
L 253.54511 216.538833 
L 253.67087 215.954418 
L 254.048148 216.294696 
L 254.425427 214.791529 
L 254.551186 214.642146 
L 254.928465 214.860195 
L 255.179984 214.502552 
L 255.305744 213.996642 
L 255.431503 214.083397 
L 255.808782 214.083397 
L 256.060301 211.264888 
L 256.18606 210.778674 
L 256.31182 211.031798 
L 256.689098 211.005668 
L 256.814858 210.38131 
L 256.940618 210.399435 
L 257.192137 209.747459 
L 257.569415 209.674426 
L 257.695175 209.960082 
L 257.946694 209.230102 
L 258.072453 209.191277 
L 258.575492 208.750188 
L 258.95277 208.057558 
L 259.455808 208.057558 
L 259.581568 207.639031 
L 259.707327 208.132668 
L 259.833087 207.840189 
L 259.958846 207.840189 
L 260.210365 208.522745 
L 260.461885 208.400675 
L 260.713404 208.838829 
L 261.216442 208.478579 
L 261.467961 209.198663 
L 261.59372 209.567704 
L 261.970999 209.691953 
L 262.096758 209.527756 
L 262.222518 210.000565 
L 262.348278 210.000911 
L 262.474037 209.739504 
L 262.725556 209.739504 
L 262.851316 208.909995 
L 263.354354 211.588652 
L 263.731632 211.798402 
L 263.983151 211.272132 
L 264.108911 211.445122 
L 264.234671 210.986363 
L 264.611949 210.75345 
L 264.863468 210.090313 
L 264.989228 209.81164 
L 265.114987 209.062736 
L 265.618025 209.668902 
L 265.869544 209.441992 
L 266.372583 209.402916 
L 266.875621 206.167919 
L 267.252899 204.096808 
L 267.378659 204.094335 
L 267.630178 202.660332 
L 267.755937 203.491696 
L 268.133216 202.146977 
L 268.258976 202.766223 
L 268.384735 202.823863 
L 268.510495 204.175894 
L 269.265052 199.939755 
L 269.390811 199.739146 
L 269.516571 201.838199 
L 269.89385 201.657067 
L 270.019609 201.052113 
L 270.145369 199.884024 
L 270.271128 200.071123 
L 270.396888 199.38092 
L 270.774166 198.403779 
L 270.899926 198.410437 
L 271.151445 197.927884 
L 271.277204 198.463972 
L 271.654483 198.016577 
L 271.906002 199.037582 
L 272.031762 198.785898 
L 272.157521 198.131366 
L 272.660559 196.048536 
L 272.912078 197.683802 
L 273.037838 197.351326 
L 273.415117 196.478826 
L 273.540876 196.723316 
L 273.666636 197.624218 
L 273.792395 197.556668 
L 273.918155 196.55591 
L 274.295433 196.47561 
L 274.546952 196.024269 
L 274.672712 196.024269 
L 275.17575 200.641386 
L 275.30151 200.339416 
L 275.427269 203.525108 
L 275.553029 203.563999 
L 275.678788 201.784543 
L 276.056067 200.887737 
L 276.181826 199.538495 
L 276.433345 200.372091 
L 276.559105 198.050947 
L 276.936383 199.18058 
L 277.062143 200.232085 
L 277.187903 199.306991 
L 277.313662 201.733944 
L 277.439422 201.789574 
L 277.8167 201.367877 
L 278.068219 200.1003 
L 279.074296 200.1003 
L 279.200055 196.703134 
L 279.703093 192.554496 
L 280.45765 195.008134 
L 280.58341 193.522768 
L 280.834929 194.362715 
L 280.960689 196.255076 
L 281.337967 196.074632 
L 281.589486 194.0294 
L 281.715246 192.543665 
L 281.841005 194.604284 
L 281.966765 194.604284 
L 282.344043 192.211538 
L 282.595562 189.00098 
L 282.721322 189.507701 
L 283.098601 187.337803 
L 283.35012 190.103152 
L 283.475879 189.551568 
L 283.601639 190.848122 
L 283.978917 189.874301 
L 284.230436 191.397914 
L 284.481956 190.103522 
L 284.859234 188.539874 
L 284.984994 189.140044 
L 285.110753 191.273812 
L 285.236513 191.121211 
L 285.362272 189.924264 
L 285.739551 190.324848 
L 285.86531 187.494195 
L 286.116829 187.537827 
L 286.242589 186.929114 
L 286.619868 187.443512 
L 286.745627 187.412176 
L 286.871387 189.134486 
L 286.997146 188.772477 
L 287.122906 190.000932 
L 287.751703 187.254324 
L 287.877463 185.491879 
L 288.003222 185.737946 
L 288.380501 183.705333 
L 288.506261 185.470797 
L 288.63202 183.799195 
L 288.75778 184.161638 
L 288.883539 182.562936 
L 289.260818 182.129882 
L 289.386577 182.729242 
L 289.638096 177.456656 
L 290.141135 175.244628 
L 290.518413 169.409122 
L 291.021451 170.787425 
L 291.147211 167.194295 
L 291.27297 168.08745 
L 291.39873 170.322395 
L 291.524489 170.464672 
L 291.901768 168.03314 
L 292.027528 169.921003 
L 292.404806 163.876182 
L 292.782085 162.150899 
L 292.907844 165.993455 
L 293.033604 165.599655 
L 293.285123 170.911834 
L 293.536642 170.911834 
L 293.913921 165.945442 
L 294.03968 166.636587 
L 294.16544 166.576598 
L 294.542718 164.200206 
L 294.794237 157.94625 
L 295.674554 157.94625 
L 295.926073 159.402021 
L 296.051833 159.402021 
L 296.554871 168.55501 
L 296.68063 167.598959 
L 296.80639 171.171981 
L 297.057909 171.171981 
L 297.183668 168.320262 
L 297.309428 169.771042 
L 297.435187 166.971674 
L 297.560947 172.179714 
L 297.686707 172.603523 
L 298.189745 180.404159 
L 298.315504 178.965067 
L 298.567023 174.756577 
L 298.944302 177.768959 
L 299.321581 173.950274 
L 299.44734 176.971043 
L 299.824619 175.542822 
L 300.076138 178.96626 
L 300.201897 178.335281 
L 300.327657 175.162147 
L 300.704935 174.701724 
L 300.830695 172.982668 
L 300.956454 174.076035 
L 301.207974 170.642721 
L 301.585252 170.642721 
L 301.711012 171.061593 
L 301.836771 171.889175 
L 301.962531 171.245049 
L 302.465569 175.130567 
L 302.591328 174.913972 
L 302.717088 173.456249 
L 302.842847 173.855708 
L 302.968607 173.372156 
L 303.471645 169.734399 
L 303.723164 169.068369 
L 303.848924 167.537829 
L 304.226202 168.815972 
L 304.603481 166.384363 
L 304.72924 167.127121 
L 305.358038 167.127121 
L 305.609557 170.949978 
L 305.986836 170.662335 
L 306.238355 169.35067 
L 306.364114 170.910357 
L 306.489874 168.360873 
L 306.992912 165.619956 
L 307.118672 165.666928 
L 307.244431 165.023223 
L 307.370191 165.602646 
L 307.747469 165.160849 
L 307.873229 161.520169 
L 307.998988 161.431207 
L 308.124748 160.252584 
L 308.250507 160.795576 
L 308.753546 158.992873 
L 309.005065 161.043351 
L 309.130824 160.360939 
L 309.508103 160.501635 
L 309.633862 161.677961 
L 309.759622 161.357707 
L 309.885381 159.734575 
L 310.011141 160.534395 
L 310.388419 160.534395 
L 310.514179 161.514621 
L 310.639939 164.505383 
L 310.891458 162.478109 
L 311.268736 161.964875 
L 311.520255 158.965056 
L 311.646015 159.11026 
L 311.771774 156.950777 
L 312.149053 155.996065 
L 312.274813 157.018041 
L 312.526332 155.520932 
L 312.652091 159.423773 
L 313.02937 158.700397 
L 313.155129 158.870568 
L 313.280889 156.114448 
L 313.532408 156.926869 
L 314.035446 153.23945 
L 314.161206 154.648032 
L 314.286965 152.992411 
L 314.412725 154.520356 
L 314.790003 154.239873 
L 314.915763 154.293153 
L 315.167282 151.702577 
L 315.67032 157.12399 
L 315.796079 162.43418 
L 315.921839 162.273407 
L 316.047599 158.101008 
L 316.173358 158.508153 
L 316.299118 158.508153 
L 316.550637 155.232768 
L 316.676396 155.931752 
L 316.802156 153.15153 
L 317.053675 153.894539 
L 317.430953 153.047989 
L 317.556713 151.843852 
L 317.682472 151.950887 
L 317.933992 153.00755 
L 318.31127 153.976807 
L 318.43703 156.942756 
L 318.562789 155.49887 
L 318.688549 155.449198 
L 318.814308 157.145481 
L 319.443106 151.759583 
L 319.568865 154.24006 
L 319.694625 153.475715 
L 320.071904 152.933479 
L 320.323423 153.234687 
L 320.449182 152.124851 
L 320.574942 152.124851 
L 320.95222 150.148696 
L 321.07798 148.507129 
L 321.203739 148.729101 
L 321.329499 148.668499 
L 321.455258 147.789031 
L 321.832537 148.01903 
L 322.209816 152.575208 
L 322.335575 151.707905 
L 322.838613 151.707905 
L 322.964373 151.862923 
L 323.090132 151.482794 
L 323.215892 152.205525 
L 323.593171 152.58958 
L 323.71893 152.170237 
L 323.84469 153.809146 
L 323.970449 152.210215 
L 324.850766 152.210215 
L 324.976525 151.578075 
L 325.353804 151.505985 
L 325.479564 152.860072 
L 325.605323 151.726903 
L 325.731083 152.166327 
L 325.856842 151.400081 
L 326.234121 152.217575 
L 326.35988 151.109548 
L 326.48564 151.38784 
L 326.737159 150.522859 
L 327.114438 149.852282 
L 327.240197 150.101976 
L 327.491716 152.289114 
L 327.617476 151.047404 
L 327.868995 151.047404 
L 327.994754 150.920221 
L 328.120514 151.990899 
L 328.246273 152.064377 
L 328.372033 150.948608 
L 328.497792 151.392943 
L 328.875071 151.152431 
L 329.000831 150.680722 
L 329.12659 150.908416 
L 329.25235 148.977896 
L 329.378109 148.875035 
L 329.881147 148.972907 
L 330.006907 148.480247 
L 330.132666 149.376474 
L 330.258426 147.877748 
L 330.761464 147.047087 
L 330.887224 146.842976 
L 331.138743 147.655986 
L 331.516021 147.575223 
L 331.641781 147.905311 
L 331.76754 147.515558 
L 331.8933 147.569161 
L 332.019059 146.41439 
L 332.396338 146.806152 
L 332.522097 146.541216 
L 332.773617 142.984938 
L 332.899376 143.169305 
L 333.276655 142.291151 
L 333.528174 143.970868 
L 333.653933 143.116401 
L 333.779693 144.895646 
L 334.156971 146.635212 
L 334.53425 144.224999 
L 334.66001 144.758688 
L 335.037288 144.636804 
L 335.163048 143.697548 
L 335.288807 144.793767 
L 335.540326 142.354191 
L 335.917605 142.354191 
L 336.043364 142.719041 
L 336.294883 145.208052 
L 336.420643 145.440963 
L 336.797922 144.578734 
L 336.923681 145.66312 
L 337.049441 144.405193 
L 337.30096 146.884652 
L 337.678238 145.41072 
L 337.803998 143.99971 
L 337.929757 144.266711 
L 338.055517 143.917853 
L 338.181276 145.03259 
L 338.558555 144.46317 
L 338.684315 147.257946 
L 338.810074 146.767085 
L 339.061593 150.064617 
L 339.94191 150.064617 
L 340.319189 148.108216 
L 340.444948 148.617884 
L 340.570708 147.42585 
L 340.696467 147.589122 
L 340.822227 149.245802 
L 341.199505 150.705493 
L 341.576784 148.889549 
L 341.702543 148.284205 
L 342.079822 148.67497 
L 342.205582 150.224678 
L 342.331341 148.776166 
L 342.457101 151.064064 
L 342.58286 150.316091 
L 342.960139 150.136028 
L 343.085898 149.493215 
L 343.840456 156.329701 
L 344.091975 160.26454 
L 344.343494 158.551837 
L 344.720772 161.54814 
L 344.846532 166.847312 
L 345.098051 160.379341 
L 345.22381 159.332957 
L 345.601089 159.316757 
L 345.726849 159.107773 
L 345.852608 158.553992 
L 345.978368 159.295412 
L 346.104127 161.043417 
L 346.481406 161.431927 
L 346.607165 161.860217 
L 346.732925 158.671486 
L 346.858684 159.280912 
L 346.984444 157.786379 
L 347.487482 157.786379 
L 347.613242 157.541614 
L 347.739001 158.955128 
L 347.864761 158.575148 
L 348.242039 161.557864 
L 348.367799 159.953077 
L 348.493558 160.908958 
L 348.745077 159.07365 
L 349.122356 159.471517 
L 349.248115 160.23275 
L 349.499635 163.735783 
L 349.625394 163.108804 
L 349.876913 163.108804 
L 350.002673 167.865115 
L 350.128432 168.366333 
L 350.505711 161.624575 
L 351.260268 161.578699 
L 351.386028 163.961045 
L 351.511787 163.961045 
L 351.763306 164.303875 
L 352.014825 161.587175 
L 352.140585 161.862381 
L 352.266344 160.820524 
L 352.643623 161.183866 
L 352.769382 159.88021 
L 352.895142 160.03737 
L 353.020902 159.831966 
L 353.146661 157.916386 
L 353.52394 158.227105 
L 353.649699 160.833909 
L 354.026978 158.945233 
L 354.404256 158.152795 
L 354.530016 156.621835 
L 354.655775 156.849082 
L 354.907295 156.730806 
L 355.536092 153.831554 
L 355.661852 154.923631 
L 355.787611 153.334874 
L 356.16489 154.450584 
L 356.290649 153.859254 
L 356.416409 152.711716 
L 356.542168 152.676938 
L 356.667928 151.254916 
L 357.045207 150.411182 
L 357.170966 150.493808 
L 357.296726 152.172514 
L 357.548245 148.718358 
L 357.925523 147.470108 
L 358.051283 146.438151 
L 358.177042 147.984913 
L 358.302802 145.921703 
L 358.428561 146.39648 
L 358.80584 145.63852 
L 358.9316 146.254574 
L 359.057359 148.147289 
L 359.183119 147.486441 
L 359.308878 147.620997 
L 359.811916 150.386815 
L 360.063435 149.499605 
L 360.189195 150.850551 
L 360.566474 149.296293 
L 360.692233 149.555681 
L 360.817993 148.776728 
L 361.069512 149.876306 
L 361.44679 150.323109 
L 361.57255 148.927919 
L 361.698309 149.028086 
L 361.824069 148.866526 
L 361.949828 149.994894 
L 362.201347 149.994894 
L 362.327107 149.009215 
L 362.578626 152.009222 
L 362.830145 149.491451 
L 363.333183 149.213057 
L 363.458943 150.323197 
L 363.584702 148.286506 
L 363.710462 148.423723 
L 364.2135 147.522237 
L 364.33926 146.529137 
L 364.590779 147.891333 
L 364.968057 146.774088 
L 365.093817 147.232042 
L 365.219576 149.914702 
L 365.345336 149.191042 
L 365.471095 149.641148 
L 365.848374 149.906369 
L 366.099893 150.93596 
L 366.225653 151.564441 
L 366.728691 151.562185 
L 366.98021 149.831743 
L 367.105969 150.335332 
L 367.231729 150.144457 
L 367.609007 150.144457 
L 367.734767 149.883795 
L 367.860527 150.551554 
L 368.112046 153.020872 
L 368.489324 153.214657 
L 368.615084 152.712282 
L 368.866603 152.971967 
L 368.992362 153.670734 
L 369.369641 153.780755 
L 369.4954 153.255178 
L 369.62116 154.921224 
L 369.74692 154.814929 
L 369.872679 155.812525 
L 371.004515 155.812525 
L 371.130274 156.51163 
L 371.256034 156.149734 
L 371.381793 154.661394 
L 371.507553 154.619107 
L 371.633313 153.230885 
L 372.136351 152.844919 
L 372.38787 154.16674 
L 372.513629 154.104767 
L 373.016667 154.918079 
L 373.142427 154.36682 
L 373.268186 154.976996 
L 373.393946 156.5826 
L 373.771225 156.52546 
L 374.022744 154.183232 
L 374.148503 154.041088 
L 374.274263 152.614304 
L 374.651541 152.553066 
L 374.90306 153.578518 
L 375.02882 154.552012 
L 375.154579 153.70871 
L 375.531858 155.310441 
L 375.657618 154.480216 
L 375.909137 156.448174 
L 376.034896 156.689199 
L 376.412175 156.179676 
L 376.537934 156.620503 
L 376.663694 156.395297 
L 376.789453 155.777488 
L 376.915213 156.127437 
L 377.292492 156.70033 
L 377.418251 156.41153 
L 377.544011 156.544277 
L 377.66977 156.057413 
L 377.79553 156.245205 
L 378.172808 155.931472 
L 378.298568 156.139072 
L 378.550087 157.077543 
L 378.675846 157.045685 
L 379.053125 157.789633 
L 379.178885 159.242329 
L 379.304644 159.190229 
L 379.430404 158.509239 
L 379.556163 159.132884 
L 379.933442 159.547832 
L 380.184961 160.215406 
L 380.31072 160.354565 
L 380.43648 160.272284 
L 380.939518 158.267229 
L 381.065278 158.825292 
L 381.442556 158.165892 
L 381.945594 156.423145 
L 382.197113 154.53146 
L 382.574392 154.254665 
L 382.700152 154.502491 
L 382.825911 155.002837 
L 383.07743 154.364599 
L 383.454709 153.906139 
L 383.957747 152.148706 
L 385.089583 152.148706 
L 385.215342 151.184782 
L 385.341102 151.298406 
L 385.592621 150.294804 
L 386.095659 150.988843 
L 386.221418 150.64181 
L 386.347178 150.764123 
L 386.472938 149.628715 
L 386.598697 149.917363 
L 387.101735 149.089089 
L 387.227495 149.205636 
L 387.479014 150.973332 
L 387.856292 150.175297 
L 387.982052 150.189792 
L 388.107811 150.411636 
L 388.233571 150.362049 
L 388.359331 150.871836 
L 388.736609 151.205363 
L 388.862369 150.897128 
L 388.988128 150.239208 
L 389.113888 150.540762 
L 389.239647 150.489776 
L 389.616926 150.084446 
L 389.742685 150.840886 
L 389.994204 150.677871 
L 390.119964 151.329157 
L 390.497243 150.818983 
L 390.623002 151.178819 
L 390.748762 151.10553 
L 390.874521 152.042224 
L 391.000281 151.635452 
L 391.377559 151.2847 
L 391.629078 150.145256 
L 391.754838 149.673828 
L 391.880597 149.86725 
L 392.257876 149.755298 
L 392.383636 150.304977 
L 392.635155 149.726218 
L 392.760914 148.899264 
L 393.263952 148.20261 
L 393.389712 148.20261 
L 393.641231 147.156073 
L 394.144269 147.29438 
L 394.270029 146.866241 
L 394.395788 147.636328 
L 394.521548 147.062003 
L 395.024586 146.329873 
L 395.276105 146.917811 
L 395.401864 148.335491 
L 395.653384 148.335491 
L 395.904903 149.737917 
L 396.282181 147.880104 
L 396.910979 147.880104 
L 397.036738 147.653584 
L 397.162498 147.935931 
L 397.288257 147.935931 
L 397.539777 147.133773 
L 397.665536 147.717773 
L 397.791296 147.512225 
L 397.917055 147.063844 
L 398.042815 148.018078 
L 398.420093 147.255056 
L 398.545853 147.464823 
L 398.923131 146.930522 
L 399.30041 146.404462 
L 399.677689 147.269618 
L 399.803448 146.973367 
L 400.180727 146.976685 
L 400.306486 146.618503 
L 400.432246 146.866957 
L 400.683765 145.730791 
L 401.061043 145.597924 
L 401.186803 146.449077 
L 401.438322 146.2931 
L 401.564082 145.562923 
L 401.94136 144.971483 
L 402.318639 143.710862 
L 402.444398 143.367132 
L 402.821677 143.91354 
L 402.947436 143.751821 
L 403.073196 144.426188 
L 403.576234 144.426188 
L 403.701994 145.109099 
L 403.827753 144.607621 
L 403.953513 144.62978 
L 404.079272 144.242819 
L 404.205032 143.182898 
L 404.58231 142.773829 
L 404.70807 142.469081 
L 405.085349 143.0057 
L 405.462627 142.785282 
L 405.588387 142.033912 
L 405.714146 142.493169 
L 405.839906 141.77508 
L 405.965665 141.937347 
L 406.342944 142.103091 
L 406.468703 141.747538 
L 406.594463 141.783176 
L 406.720222 142.33185 
L 406.845982 142.278278 
L 407.223261 142.370036 
L 407.34902 142.005956 
L 407.47478 142.127786 
L 407.600539 142.025536 
L 407.726299 141.362295 
L 408.103577 141.18386 
L 408.355096 141.282955 
L 408.606616 140.404177 
L 409.235413 141.034807 
L 409.361173 140.79733 
L 409.486932 141.65425 
L 409.98997 141.613209 
L 410.11573 141.955625 
L 410.241489 141.477636 
L 410.367249 142.096815 
L 410.744528 142.494448 
L 410.870287 142.301708 
L 410.996047 143.490981 
L 411.121806 143.325743 
L 411.247566 144.047208 
L 411.624844 143.920952 
L 411.876363 142.362601 
L 412.002123 142.567087 
L 412.127882 142.367226 
L 412.630921 142.120094 
L 412.75668 142.489434 
L 413.008199 144.12459 
L 413.385478 144.225352 
L 413.636997 143.795612 
L 413.762756 143.49437 
L 414.391554 143.760813 
L 414.517314 143.958749 
L 414.643073 143.885238 
L 414.768833 143.494322 
L 415.146111 143.744867 
L 415.271871 143.974055 
L 415.39763 143.842356 
L 415.52339 143.294078 
L 416.780985 143.271412 
L 416.906745 142.977147 
L 417.158264 143.957188 
L 417.284023 143.762253 
L 417.409783 143.951438 
L 417.787061 144.088138 
L 417.912821 144.266182 
L 418.038581 144.867267 
L 418.2901 146.269947 
L 418.667378 146.873457 
L 419.170416 144.966098 
L 419.547695 144.607961 
L 419.799214 144.869748 
L 420.553771 143.925652 
L 420.93105 143.892527 
L 421.434088 143.566512 
L 421.559848 143.058746 
L 421.685607 143.238563 
L 421.811367 142.986356 
L 422.314405 142.893658 
L 422.565924 143.714857 
L 422.691683 143.924666 
L 423.068962 144.175358 
L 423.194721 143.995631 
L 423.320481 144.156554 
L 423.572 143.966547 
L 423.949279 144.029563 
L 424.075038 144.748374 
L 424.326557 144.742184 
L 424.452317 144.46742 
L 424.955355 143.994401 
L 425.206874 143.939944 
L 425.332634 143.752447 
L 425.835672 143.801447 
L 425.961431 143.99563 
L 426.21295 143.195868 
L 426.715988 142.707103 
L 427.093267 140.377822 
L 427.596305 140.361134 
L 427.847824 140.748937 
L 427.973584 140.606725 
L 428.350862 141.142396 
L 428.476622 140.755212 
L 428.602381 140.884874 
L 428.8539 140.601371 
L 429.356939 140.636912 
L 429.482698 141.224157 
L 429.734217 141.005053 
L 430.111496 141.903057 
L 430.237255 141.748617 
L 430.363015 141.353926 
L 430.614534 139.624217 
L 431.74637 140.352339 
L 431.872129 140.385499 
L 432.249408 138.088065 
L 433.507003 138.088065 
L 434.010041 135.011603 
L 434.135801 134.504403 
L 434.51308 134.721623 
L 434.638839 134.091146 
L 434.764599 134.95563 
L 434.890358 133.836105 
L 435.016118 133.986257 
L 435.393396 133.716362 
L 435.519156 133.894453 
L 435.770675 133.351828 
L 435.896434 133.016754 
L 436.273713 132.764128 
L 436.525232 133.815224 
L 436.650992 134.095561 
L 437.15403 132.76116 
L 437.531308 132.282017 
L 437.657068 132.746806 
L 438.285866 133.458704 
L 438.411625 133.129291 
L 438.537385 132.299373 
L 438.788904 132.234992 
L 439.291942 131.254273 
L 439.79498 131.209701 
L 439.920739 130.791892 
L 440.046499 130.837867 
L 440.172259 130.620722 
L 440.298018 130.060075 
L 440.675297 129.972062 
L 440.801056 130.710251 
L 441.052575 128.917164 
L 441.178335 128.781177 
L 441.555613 128.874508 
L 441.807132 128.813437 
L 441.932892 129.068343 
L 442.058652 128.935114 
L 442.310171 128.935114 
L 442.43593 129.131745 
L 442.56169 128.647508 
L 442.938968 128.647508 
L 443.442006 126.386985 
L 443.567766 126.890278 
L 443.693525 126.320385 
L 443.945045 126.359852 
L 444.196564 126.017287 
L 444.322323 125.561977 
L 444.573842 126.031045 
L 445.07688 125.297569 
L 445.20264 125.678318 
L 445.328399 125.551956 
L 445.579918 126.036032 
L 445.957197 125.351402 
L 446.082957 125.403174 
L 446.208716 125.100958 
L 446.460235 125.284989 
L 446.837514 125.262289 
L 446.963273 124.72847 
L 447.089033 124.895848 
L 447.340552 124.737514 
L 447.717831 124.737514 
L 447.96935 124.386256 
L 448.095109 124.459171 
L 448.220869 124.208415 
L 448.598147 124.486481 
L 448.723907 124.227138 
L 448.849666 124.385889 
L 449.101185 124.931185 
L 449.478464 125.566258 
L 449.604224 125.294842 
L 449.729983 124.734961 
L 449.855743 124.879667 
L 449.981502 124.345247 
L 450.233021 124.20951 
L 450.358781 124.361277 
L 450.6103 124.202013 
L 450.861819 124.578013 
L 451.239098 125.223202 
L 451.364857 124.463658 
L 451.490617 124.643518 
L 451.742136 123.995295 
L 452.119414 123.884577 
L 452.245174 123.692701 
L 452.370933 124.04926 
L 452.622452 123.83524 
L 452.999731 123.82629 
L 453.25125 124.821053 
L 453.37701 124.577224 
L 453.502769 123.695751 
L 454.005807 123.138875 
L 454.257326 121.789494 
L 454.383086 122.058615 
L 454.760364 122.50827 
L 454.886124 122.460776 
L 455.011884 122.126369 
L 455.640681 123.856448 
L 455.8922 123.506113 
L 456.01796 123.608165 
L 456.143719 124.091701 
L 456.520998 123.680392 
L 456.772517 124.339998 
L 457.024036 124.476589 
L 457.401315 124.456855 
L 457.527074 125.214137 
L 457.778593 124.701805 
L 457.904353 124.069616 
L 458.030112 124.069616 
L 458.281631 124.253821 
L 458.65891 123.729276 
L 458.78467 123.902654 
L 459.539227 123.920042 
L 459.664986 123.670738 
L 460.168024 123.670738 
L 460.419543 123.051183 
L 460.545303 123.081687 
L 460.922582 122.976721 
L 461.29986 121.126346 
L 461.42562 121.633335 
L 462.683215 121.584037 
L 462.808975 121.405783 
L 462.934734 123.772419 
L 463.186253 122.175743 
L 463.312013 122.175743 
L 463.563532 120.562874 
L 463.689291 120.495745 
L 464.06657 119.707845 
L 464.443849 119.509397 
L 464.695368 120.10353 
L 464.821127 120.385941 
L 464.946887 120.27453 
L 465.324165 120.259936 
L 465.575684 120.647805 
L 465.827203 120.089324 
L 466.204482 119.688803 
L 466.581761 118.461646 
L 466.70752 118.520243 
L 467.084799 117.999072 
L 467.336318 118.018006 
L 467.587837 118.815282 
L 467.965116 119.072031 
L 468.216635 118.363983 
L 468.342394 118.224998 
L 468.468154 118.729947 
L 468.971192 118.353114 
L 469.34847 117.027175 
L 469.47423 117.027175 
L 469.851509 115.758866 
L 469.977268 115.66348 
L 470.228787 114.983858 
L 470.606066 114.843249 
L 470.857585 113.336722 
L 471.109104 112.760684 
L 471.486382 112.574833 
L 471.737902 113.157216 
L 471.863661 113.22036 
L 471.989421 112.581701 
L 472.366699 112.648598 
L 472.492459 112.463155 
L 472.618218 112.740142 
L 472.743978 112.527164 
L 472.869737 112.071395 
L 473.372775 111.892402 
L 473.750054 111.610459 
L 474.253092 111.27031 
L 474.378852 111.402322 
L 474.630371 112.036465 
L 475.007649 112.442051 
L 475.133409 111.786752 
L 475.259169 111.778164 
L 475.384928 112.017172 
L 475.887966 111.993745 
L 476.139485 111.750354 
L 476.265245 111.937166 
L 476.391004 111.783252 
L 476.642523 111.783252 
L 476.768283 111.391207 
L 477.774359 111.391207 
L 478.277397 109.907441 
L 478.654676 110.225257 
L 478.780435 110.102041 
L 479.409233 110.758062 
L 479.534993 111.398325 
L 479.660752 110.886579 
L 479.912271 111.539827 
L 480.415309 112.189187 
L 480.541069 111.778278 
L 480.792588 112.58096 
L 481.169867 112.299138 
L 481.547145 111.697399 
L 481.672905 112.379364 
L 482.050183 112.509121 
L 482.175943 113.104246 
L 482.553221 111.893001 
L 482.9305 112.103082 
L 483.307779 111.372145 
L 483.433538 111.528695 
L 483.810817 111.42547 
L 484.062336 110.822562 
L 484.313855 110.743762 
L 484.691134 110.658611 
L 484.942653 110.031853 
L 485.068412 109.43266 
L 485.194172 109.43266 
L 485.57145 110.359532 
L 485.69721 110.341887 
L 486.074488 109.309896 
L 486.577527 109.056119 
L 486.829046 109.075493 
L 486.954805 109.147995 
L 487.457843 108.648673 
L 487.835122 109.137045 
L 488.2124 109.232733 
L 488.46392 108.595052 
L 489.092717 108.595052 
L 489.469996 107.430944 
L 489.595755 107.163303 
L 489.973034 107.096897 
L 490.098794 106.854782 
L 490.224553 106.862613 
L 490.476072 107.08054 
L 490.853351 106.86658 
L 491.10487 106.319675 
L 491.356389 106.435793 
L 491.733667 106.387119 
L 492.110946 106.812921 
L 492.362465 106.608285 
L 492.613984 106.608285 
L 493.117022 105.782749 
L 493.494301 105.540381 
L 493.62006 105.600245 
L 493.87158 105.197242 
L 493.997339 105.270527 
L 494.374618 105.189966 
L 494.626137 104.944461 
L 494.877656 105.084503 
L 495.757973 104.615219 
L 496.135251 104.39562 
L 496.51253 103.456766 
L 496.638289 103.270906 
L 497.015568 103.14516 
L 497.141327 102.958597 
L 497.518606 103.331914 
L 497.895885 103.423081 
L 498.147404 102.932932 
L 498.398923 102.458499 
L 498.901961 102.133917 
L 499.15348 102.911774 
L 499.279239 102.993871 
L 499.656518 102.78342 
L 499.782278 102.924712 
L 499.908037 102.796238 
L 500.033797 102.882273 
L 500.159556 102.758154 
L 500.536835 102.141874 
L 500.914113 101.231109 
L 501.039873 101.160845 
L 501.417152 101.123889 
L 501.542911 101.240183 
L 501.668671 100.943618 
L 501.79443 101.221226 
L 501.92019 100.756281 
L 502.423228 101.229051 
L 503.303545 98.836598 
L 503.429304 99.596356 
L 503.555064 99.246929 
L 503.680823 99.335527 
L 503.932342 99.335527 
L 504.058102 98.949615 
L 504.183861 99.453508 
L 504.309621 99.453508 
L 504.43538 102.905927 
L 504.56114 98.744964 
L 504.938419 98.584653 
L 505.064178 99.591827 
L 505.189938 99.55763 
L 505.315697 96.586839 
L 505.441457 96.558607 
L 505.944495 96.079284 
L 506.070254 94.882241 
L 506.196014 96.213785 
L 506.321773 96.269421 
L 506.699052 95.238242 
L 506.824812 95.500864 
L 507.076331 93.524632 
L 507.20209 95.125453 
L 507.453609 95.125453 
L 507.705128 91.12588 
L 508.711205 91.12588 
L 508.836964 88.329435 
L 508.962724 91.53904 
L 509.088483 91.53904 
L 509.340002 91.966106 
L 509.465762 94.902146 
L 509.591521 92.69479 
L 509.717281 92.738144 
L 509.84304 95.831013 
L 510.220319 94.898709 
L 510.346078 92.347141 
L 510.471838 92.906311 
L 510.597598 92.667937 
L 510.723357 90.246465 
L 511.100636 88.095255 
L 511.226395 88.878192 
L 511.352155 86.636421 
L 511.603674 89.123146 
L 511.980952 88.557528 
L 512.106712 90.252648 
L 512.232471 89.611076 
L 512.358231 87.490013 
L 512.483991 88.056899 
L 512.861269 87.832042 
L 512.987029 88.869268 
L 513.112788 88.916263 
L 513.238548 86.957166 
L 513.364307 89.057124 
L 513.741586 89.792338 
L 513.867345 91.073069 
L 513.993105 90.505918 
L 514.118864 91.176889 
L 514.244624 94.888091 
L 514.621903 94.462219 
L 514.873422 92.641383 
L 514.999181 92.875553 
L 515.124941 92.137588 
L 515.37646 92.137588 
L 515.502219 90.470494 
L 515.753738 91.692064 
L 515.879498 91.533729 
L 516.005258 90.052999 
L 516.382536 88.980533 
L 516.508296 89.65746 
L 516.634055 89.210031 
L 516.759815 90.050987 
L 516.885574 88.774113 
L 517.262853 89.906923 
L 517.388612 91.60509 
L 517.514372 89.080393 
L 517.640131 89.630667 
L 517.765891 88.649164 
L 518.268929 86.480511 
L 518.520448 85.26426 
L 518.646208 84.703185 
L 519.023486 85.582724 
L 519.149246 85.19735 
L 519.275005 85.567 
L 519.778044 85.567 
L 520.029563 80.589505 
L 520.155322 80.366079 
L 520.281082 81.142786 
L 520.406841 80.002969 
L 520.78412 78.817427 
L 520.909879 79.700633 
L 521.035639 79.696437 
L 521.287158 78.552081 
L 521.664437 78.054824 
L 521.790196 78.642814 
L 522.041715 77.208552 
L 522.167475 76.437797 
L 522.544753 76.325321 
L 522.670513 75.752727 
L 522.796272 74.257903 
L 522.922032 74.589621 
L 523.047791 76.063897 
L 523.173551 76.063897 
L 523.42507 80.338707 
L 523.676589 76.908062 
L 523.928108 78.572264 
L 524.431146 75.194385 
L 524.556906 75.01878 
L 524.682665 73.87097 
L 524.808425 75.768541 
L 526.06602 75.768541 
L 526.317539 72.614851 
L 526.569058 72.987028 
L 526.694818 72.987028 
L 526.946337 72.086403 
L 527.197856 76.731386 
L 527.449375 75.083758 
L 527.826654 77.099927 
L 528.078173 73.821293 
L 528.329692 75.518114 
L 528.70697 75.663702 
L 528.83273 77.541872 
L 528.958489 76.242857 
L 529.084249 79.143803 
L 529.210009 79.28812 
L 529.587287 83.84955 
L 529.838806 79.043556 
L 529.964566 80.854404 
L 530.090325 79.627014 
L 530.467604 79.480431 
L 530.593363 81.614134 
L 530.719123 78.746134 
L 530.970642 80.390004 
L 531.347921 80.390004 
L 531.47368 79.782681 
L 531.59944 74.219111 
L 531.725199 74.275027 
L 531.850959 72.125889 
L 532.228237 71.851112 
L 532.353997 70.038896 
L 532.479756 70.611301 
L 532.731276 67.29113 
L 533.108554 66.505845 
L 533.360073 64.211167 
L 533.485833 65.008846 
L 533.988871 64.312847 
L 534.11463 65.037553 
L 534.24039 62.420893 
L 534.366149 62.175593 
L 534.994947 62.175593 
L 535.246466 58.025349 
L 535.372226 58.931567 
L 535.497985 58.931567 
L 535.749504 55.772384 
L 535.875264 55.830999 
L 536.001023 53.93187 
L 536.252542 58.581937 
L 536.629821 58.742745 
L 536.88134 57.05359 
L 537.0071 59.848989 
L 537.132859 57.101385 
L 537.635897 54.143817 
L 537.761657 55.197302 
L 537.887416 54.230837 
L 538.013176 55.879795 
L 538.264695 55.879795 
L 538.390455 57.028845 
L 538.390455 57.028845 
" clip-path="url(#p242f6b856a)" style="fill: none; stroke: #348dc1; stroke-width: 1.5; stroke-linecap: round"/>
   </g>
   <g id="line2d_16">
    <path d="M 47.966 297.906761 
L 561.744 297.906761 
" clip-path="url(#p242f6b856a)" style="fill: none; stroke-dasharray: 3.7,1.6; stroke-dashoffset: 0; stroke: #000000"/>
   </g>
  </g>
  <g id="text_14">
   <!-- Cumulative Returns -->
   <g transform="translate(221.879531 31.620938) scale(0.14 -0.14)">
    <defs>
     <path id="Arial-BoldMT-43" d="M 3397 1684 
L 4294 1400 
Q 4088 650 3608 286 
Q 3128 -78 2391 -78 
Q 1478 -78 890 545 
Q 303 1169 303 2250 
Q 303 3394 893 4026 
Q 1484 4659 2447 4659 
Q 3288 4659 3813 4163 
Q 4125 3869 4281 3319 
L 3366 3100 
Q 3284 3456 3026 3662 
Q 2769 3869 2400 3869 
Q 1891 3869 1573 3503 
Q 1256 3138 1256 2319 
Q 1256 1450 1568 1081 
Q 1881 713 2381 713 
Q 2750 713 3015 947 
Q 3281 1181 3397 1684 
z
" transform="scale(0.015625)"/>
     <path id="Arial-BoldMT-75" d="M 2644 0 
L 2644 497 
Q 2463 231 2167 78 
Q 1872 -75 1544 -75 
Q 1209 -75 943 72 
Q 678 219 559 484 
Q 441 750 441 1219 
L 441 3319 
L 1319 3319 
L 1319 1794 
Q 1319 1094 1367 936 
Q 1416 778 1544 686 
Q 1672 594 1869 594 
Q 2094 594 2272 717 
Q 2450 841 2515 1023 
Q 2581 1206 2581 1919 
L 2581 3319 
L 3459 3319 
L 3459 0 
L 2644 0 
z
" transform="scale(0.015625)"/>
     <path id="Arial-BoldMT-6d" d="M 394 3319 
L 1203 3319 
L 1203 2866 
Q 1638 3394 2238 3394 
Q 2556 3394 2790 3262 
Q 3025 3131 3175 2866 
Q 3394 3131 3647 3262 
Q 3900 3394 4188 3394 
Q 4553 3394 4806 3245 
Q 5059 3097 5184 2809 
Q 5275 2597 5275 2122 
L 5275 0 
L 4397 0 
L 4397 1897 
Q 4397 2391 4306 2534 
Q 4184 2722 3931 2722 
Q 3747 2722 3584 2609 
Q 3422 2497 3350 2280 
Q 3278 2063 3278 1594 
L 3278 0 
L 2400 0 
L 2400 1819 
Q 2400 2303 2353 2443 
Q 2306 2584 2207 2653 
Q 2109 2722 1941 2722 
Q 1738 2722 1575 2612 
Q 1413 2503 1342 2297 
Q 1272 2091 1272 1613 
L 1272 0 
L 394 0 
L 394 3319 
z
" transform="scale(0.015625)"/>
     <path id="Arial-BoldMT-6c" d="M 459 0 
L 459 4581 
L 1338 4581 
L 1338 0 
L 459 0 
z
" transform="scale(0.015625)"/>
     <path id="Arial-BoldMT-61" d="M 1116 2306 
L 319 2450 
Q 453 2931 781 3162 
Q 1109 3394 1756 3394 
Q 2344 3394 2631 3255 
Q 2919 3116 3036 2902 
Q 3153 2688 3153 2116 
L 3144 1091 
Q 3144 653 3186 445 
Q 3228 238 3344 0 
L 2475 0 
Q 2441 88 2391 259 
Q 2369 338 2359 363 
Q 2134 144 1878 34 
Q 1622 -75 1331 -75 
Q 819 -75 523 203 
Q 228 481 228 906 
Q 228 1188 362 1408 
Q 497 1628 739 1745 
Q 981 1863 1438 1950 
Q 2053 2066 2291 2166 
L 2291 2253 
Q 2291 2506 2166 2614 
Q 2041 2722 1694 2722 
Q 1459 2722 1328 2630 
Q 1197 2538 1116 2306 
z
M 2291 1594 
Q 2122 1538 1756 1459 
Q 1391 1381 1278 1306 
Q 1106 1184 1106 997 
Q 1106 813 1243 678 
Q 1381 544 1594 544 
Q 1831 544 2047 700 
Q 2206 819 2256 991 
Q 2291 1103 2291 1419 
L 2291 1594 
z
" transform="scale(0.015625)"/>
     <path id="Arial-BoldMT-74" d="M 1981 3319 
L 1981 2619 
L 1381 2619 
L 1381 1281 
Q 1381 875 1398 808 
Q 1416 741 1477 697 
Q 1538 653 1625 653 
Q 1747 653 1978 738 
L 2053 56 
Q 1747 -75 1359 -75 
Q 1122 -75 931 4 
Q 741 84 652 211 
Q 563 338 528 553 
Q 500 706 500 1172 
L 500 2619 
L 97 2619 
L 97 3319 
L 500 3319 
L 500 3978 
L 1381 4491 
L 1381 3319 
L 1981 3319 
z
" transform="scale(0.015625)"/>
     <path id="Arial-BoldMT-69" d="M 459 3769 
L 459 4581 
L 1338 4581 
L 1338 3769 
L 459 3769 
z
M 459 0 
L 459 3319 
L 1338 3319 
L 1338 0 
L 459 0 
z
" transform="scale(0.015625)"/>
     <path id="Arial-BoldMT-76" d="M 1372 0 
L 34 3319 
L 956 3319 
L 1581 1625 
L 1763 1059 
Q 1834 1275 1853 1344 
Q 1897 1484 1947 1625 
L 2578 3319 
L 3481 3319 
L 2163 0 
L 1372 0 
z
" transform="scale(0.015625)"/>
     <path id="Arial-BoldMT-65" d="M 2381 1056 
L 3256 909 
Q 3088 428 2723 176 
Q 2359 -75 1813 -75 
Q 947 -75 531 491 
Q 203 944 203 1634 
Q 203 2459 634 2926 
Q 1066 3394 1725 3394 
Q 2466 3394 2894 2905 
Q 3322 2416 3303 1406 
L 1103 1406 
Q 1113 1016 1316 798 
Q 1519 581 1822 581 
Q 2028 581 2168 693 
Q 2309 806 2381 1056 
z
M 2431 1944 
Q 2422 2325 2234 2523 
Q 2047 2722 1778 2722 
Q 1491 2722 1303 2513 
Q 1116 2303 1119 1944 
L 2431 1944 
z
" transform="scale(0.015625)"/>
     <path id="Arial-BoldMT-20" transform="scale(0.015625)"/>
     <path id="Arial-BoldMT-52" d="M 469 0 
L 469 4581 
L 2416 4581 
Q 3150 4581 3483 4457 
Q 3816 4334 4016 4018 
Q 4216 3703 4216 3297 
Q 4216 2781 3912 2445 
Q 3609 2109 3006 2022 
Q 3306 1847 3501 1637 
Q 3697 1428 4028 894 
L 4588 0 
L 3481 0 
L 2813 997 
Q 2456 1531 2325 1670 
Q 2194 1809 2047 1861 
Q 1900 1913 1581 1913 
L 1394 1913 
L 1394 0 
L 469 0 
z
M 1394 2644 
L 2078 2644 
Q 2744 2644 2909 2700 
Q 3075 2756 3169 2893 
Q 3263 3031 3263 3238 
Q 3263 3469 3139 3611 
Q 3016 3753 2791 3791 
Q 2678 3806 2116 3806 
L 1394 3806 
L 1394 2644 
z
" transform="scale(0.015625)"/>
     <path id="Arial-BoldMT-72" d="M 1300 0 
L 422 0 
L 422 3319 
L 1238 3319 
L 1238 2847 
Q 1447 3181 1614 3287 
Q 1781 3394 1994 3394 
Q 2294 3394 2572 3228 
L 2300 2463 
Q 2078 2606 1888 2606 
Q 1703 2606 1575 2504 
Q 1447 2403 1373 2137 
Q 1300 1872 1300 1025 
L 1300 0 
z
" transform="scale(0.015625)"/>
     <path id="Arial-BoldMT-6e" d="M 3478 0 
L 2600 0 
L 2600 1694 
Q 2600 2231 2544 2389 
Q 2488 2547 2361 2634 
Q 2234 2722 2056 2722 
Q 1828 2722 1647 2597 
Q 1466 2472 1398 2265 
Q 1331 2059 1331 1503 
L 1331 0 
L 453 0 
L 453 3319 
L 1269 3319 
L 1269 2831 
Q 1703 3394 2363 3394 
Q 2653 3394 2893 3289 
Q 3134 3184 3257 3021 
Q 3381 2859 3429 2653 
Q 3478 2447 3478 2063 
L 3478 0 
z
" transform="scale(0.015625)"/>
     <path id="Arial-BoldMT-73" d="M 150 947 
L 1031 1081 
Q 1088 825 1259 692 
Q 1431 559 1741 559 
Q 2081 559 2253 684 
Q 2369 772 2369 919 
Q 2369 1019 2306 1084 
Q 2241 1147 2013 1200 
Q 950 1434 666 1628 
Q 272 1897 272 2375 
Q 272 2806 612 3100 
Q 953 3394 1669 3394 
Q 2350 3394 2681 3172 
Q 3013 2950 3138 2516 
L 2309 2363 
Q 2256 2556 2107 2659 
Q 1959 2763 1684 2763 
Q 1338 2763 1188 2666 
Q 1088 2597 1088 2488 
Q 1088 2394 1175 2328 
Q 1294 2241 1995 2081 
Q 2697 1922 2975 1691 
Q 3250 1456 3250 1038 
Q 3250 581 2869 253 
Q 2488 -75 1741 -75 
Q 1063 -75 667 200 
Q 272 475 150 947 
z
" transform="scale(0.015625)"/>
    </defs>
    <use xlink:href="#Arial-BoldMT-43"/>
    <use xlink:href="#Arial-BoldMT-75" transform="translate(72.216797 0)"/>
    <use xlink:href="#Arial-BoldMT-6d" transform="translate(133.300781 0)"/>
    <use xlink:href="#Arial-BoldMT-75" transform="translate(222.216797 0)"/>
    <use xlink:href="#Arial-BoldMT-6c" transform="translate(283.300781 0)"/>
    <use xlink:href="#Arial-BoldMT-61" transform="translate(311.083984 0)"/>
    <use xlink:href="#Arial-BoldMT-74" transform="translate(366.699219 0)"/>
    <use xlink:href="#Arial-BoldMT-69" transform="translate(400 0)"/>
    <use xlink:href="#Arial-BoldMT-76" transform="translate(427.783203 0)"/>
    <use xlink:href="#Arial-BoldMT-65" transform="translate(483.398438 0)"/>
    <use xlink:href="#Arial-BoldMT-20" transform="translate(539.013672 0)"/>
    <use xlink:href="#Arial-BoldMT-52" transform="translate(566.796875 0)"/>
    <use xlink:href="#Arial-BoldMT-65" transform="translate(639.013672 0)"/>
    <use xlink:href="#Arial-BoldMT-74" transform="translate(694.628906 0)"/>
    <use xlink:href="#Arial-BoldMT-75" transform="translate(727.929688 0)"/>
    <use xlink:href="#Arial-BoldMT-72" transform="translate(789.013672 0)"/>
    <use xlink:href="#Arial-BoldMT-6e" transform="translate(827.929688 0)"/>
    <use xlink:href="#Arial-BoldMT-73" transform="translate(889.013672 0)"/>
   </g>
  </g>
 </g>
 <defs>
  <clipPath id="p242f6b856a">
   <rect x="47.966" y="41.572392" width="513.778" height="271.908534"/>
  </clipPath>
 </defs>
</svg>