<svg xmlns:xlink="http://www.w3.org/1999/xlink" width="576pt" height="360pt" viewBox="0 0 576 360" xmlns="http://www.w3.org/2000/svg" version="1.1">
 <metadata>
  <rdf:RDF xmlns:dc="http://purl.org/dc/elements/1.1/" xmlns:cc="http://creativecommons.org/ns#" xmlns:rdf="http://www.w3.org/1999/02/22-rdf-syntax-ns#">
   <cc:Work>
    <dc:type rdf:resource="http://purl.org/dc/dcmitype/StillImage"/>
    <dc:date>2026-06-02T17:23:32.916645</dc:date>
    <dc:format>image/svg+xml</dc:format>
    <dc:creator>
     <cc:Agent>
      <dc:title>Matplotlib v3.10.8, https://matplotlib.org/</dc:title>
     </cc:Agent>
    </dc:creator>
   </cc:Work>
  </rdf:RDF>
 </metadata>
 <defs>
  <style type="text/css">*{stroke-linejoin: round; stroke-linecap: butt}</style>
 </defs>
 <g id="figure_1">
  <g id="patch_1">
   <path d="M 0 360 
L 576 360 
L 576 0 
L 0 0 
z
" style="fill: #ffffff"/>
  </g>
  <g id="axes_1">
   <g id="patch_2">
    <path d="M 47.966 313.480926 
L 561.744 313.480926 
L 561.744 41.472 
L 47.966 41.472 
z
" style="fill: #ffffff"/>
   </g>
   <g id="matplotlib.axis_1">
    <g id="xtick_1">
     <g id="line2d_1">
      <path d="M 60.001187 313.480926 
L 60.001187 41.472 
" clip-path="url(#pfc81b8e9cb)" style="fill: none; stroke: #dddddd; stroke-width: 0.5; stroke-linecap: round"/>
     </g>
     <g id="text_1">
      <!-- 2016 -->
      <g style="fill: #666666" transform="translate(35.48973 343.939) rotate(-30) scale(0.121 -0.121)">
       <defs>
        <path id="ArialMT-32" d="M 3222 541 
L 3222 0 
L 194 0 
Q 188 203 259 391 
Q 375 700 629 1000 
Q 884 1300 1366 1694 
Q 2113 2306 2375 2664 
Q 2638 3022 2638 3341 
Q 2638 3675 2398 3904 
Q 2159 4134 1775 4134 
Q 1369 4134 1125 3890 
Q 881 3647 878 3216 
L 300 3275 
Q 359 3922 746 4261 
Q 1134 4600 1788 4600 
Q 2447 4600 2831 4234 
Q 3216 3869 3216 3328 
Q 3216 3053 3103 2787 
Q 2991 2522 2730 2228 
Q 2469 1934 1863 1422 
Q 1356 997 1212 845 
Q 1069 694 975 541 
L 3222 541 
z
" transform="scale(0.015625)"/>
        <path id="ArialMT-30" d="M 266 2259 
Q 266 3072 433 3567 
Q 600 4063 929 4331 
Q 1259 4600 1759 4600 
Q 2128 4600 2406 4451 
Q 2684 4303 2865 4023 
Q 3047 3744 3150 3342 
Q 3253 2941 3253 2259 
Q 3253 1453 3087 958 
Q 2922 463 2592 192 
Q 2263 -78 1759 -78 
Q 1097 -78 719 397 
Q 266 969 266 2259 
z
M 844 2259 
Q 844 1131 1108 757 
Q 1372 384 1759 384 
Q 2147 384 2411 759 
Q 2675 1134 2675 2259 
Q 2675 3391 2411 3762 
Q 2147 4134 1753 4134 
Q 1366 4134 1134 3806 
Q 844 3388 844 2259 
z
" transform="scale(0.015625)"/>
        <path id="ArialMT-31" d="M 2384 0 
L 1822 0 
L 1822 3584 
Q 1619 3391 1289 3197 
Q 959 3003 697 2906 
L 697 3450 
Q 1169 3672 1522 3987 
Q 1875 4303 2022 4600 
L 2384 4600 
L 2384 0 
z
" transform="scale(0.015625)"/>
        <path id="ArialMT-36" d="M 3184 3459 
L 2625 3416 
Q 2550 3747 2413 3897 
Q 2184 4138 1850 4138 
Q 1581 4138 1378 3988 
Q 1113 3794 959 3422 
Q 806 3050 800 2363 
Q 1003 2672 1297 2822 
Q 1591 2972 1913 2972 
Q 2475 2972 2870 2558 
Q 3266 2144 3266 1488 
Q 3266 1056 3080 686 
Q 2894 316 2569 119 
Q 2244 -78 1831 -78 
Q 1128 -78 684 439 
Q 241 956 241 2144 
Q 241 3472 731 4075 
Q 1159 4600 1884 4600 
Q 2425 4600 2770 4297 
Q 3116 3994 3184 3459 
z
M 888 1484 
Q 888 1194 1011 928 
Q 1134 663 1356 523 
Q 1578 384 1822 384 
Q 2178 384 2434 671 
Q 2691 959 2691 1453 
Q 2691 1928 2437 2201 
Q 2184 2475 1800 2475 
Q 1419 2475 1153 2201 
Q 888 1928 888 1484 
z
" transform="scale(0.015625)"/>
       </defs>
       <use xlink:href="#ArialMT-32"/>
       <use xlink:href="#ArialMT-30" transform="translate(55.615234 0)"/>
       <use xlink:href="#ArialMT-31" transform="translate(111.230469 0)"/>
       <use xlink:href="#ArialMT-36" transform="translate(166.845703 0)"/>
      </g>
     </g>
    </g>
    <g id="xtick_2">
     <g id="line2d_2">
      <path d="M 151.931407 313.480926 
L 151.931407 41.472 
" clip-path="url(#pfc81b8e9cb)" style="fill: none; stroke: #dddddd; stroke-width: 0.5; stroke-linecap: round"/>
     </g>
     <g id="text_2">
      <!-- 2018 -->
      <g style="fill: #666666" transform="translate(127.41995 343.939) rotate(-30) scale(0.121 -0.121)">
       <defs>
        <path id="ArialMT-38" d="M 1131 2484 
Q 781 2613 612 2850 
Q 444 3088 444 3419 
Q 444 3919 803 4259 
Q 1163 4600 1759 4600 
Q 2359 4600 2725 4251 
Q 3091 3903 3091 3403 
Q 3091 3084 2923 2848 
Q 2756 2613 2416 2484 
Q 2838 2347 3058 2040 
Q 3278 1734 3278 1309 
Q 3278 722 2862 322 
Q 2447 -78 1769 -78 
Q 1091 -78 675 323 
Q 259 725 259 1325 
Q 259 1772 486 2073 
Q 713 2375 1131 2484 
z
M 1019 3438 
Q 1019 3113 1228 2906 
Q 1438 2700 1772 2700 
Q 2097 2700 2305 2904 
Q 2513 3109 2513 3406 
Q 2513 3716 2298 3927 
Q 2084 4138 1766 4138 
Q 1444 4138 1231 3931 
Q 1019 3725 1019 3438 
z
M 838 1322 
Q 838 1081 952 856 
Q 1066 631 1291 507 
Q 1516 384 1775 384 
Q 2178 384 2440 643 
Q 2703 903 2703 1303 
Q 2703 1709 2433 1975 
Q 2163 2241 1756 2241 
Q 1359 2241 1098 1978 
Q 838 1716 838 1322 
z
" transform="scale(0.015625)"/>
       </defs>
       <use xlink:href="#ArialMT-32"/>
       <use xlink:href="#ArialMT-30" transform="translate(55.615234 0)"/>
       <use xlink:href="#ArialMT-31" transform="translate(111.230469 0)"/>
       <use xlink:href="#ArialMT-38" transform="translate(166.845703 0)"/>
      </g>
     </g>
    </g>
    <g id="xtick_3">
     <g id="line2d_3">
      <path d="M 243.735867 313.480926 
L 243.735867 41.472 
" clip-path="url(#pfc81b8e9cb)" style="fill: none; stroke: #dddddd; stroke-width: 0.5; stroke-linecap: round"/>
     </g>
     <g id="text_3">
      <!-- 2020 -->
      <g style="fill: #666666" transform="translate(219.224409 343.939) rotate(-30) scale(0.121 -0.121)">
       <use xlink:href="#ArialMT-32"/>
       <use xlink:href="#ArialMT-30" transform="translate(55.615234 0)"/>
       <use xlink:href="#ArialMT-32" transform="translate(111.230469 0)"/>
       <use xlink:href="#ArialMT-30" transform="translate(166.845703 0)"/>
      </g>
     </g>
    </g>
    <g id="xtick_4">
     <g id="line2d_4">
      <path d="M 335.666086 313.480926 
L 335.666086 41.472 
" clip-path="url(#pfc81b8e9cb)" style="fill: none; stroke: #dddddd; stroke-width: 0.5; stroke-linecap: round"/>
     </g>
     <g id="text_4">
      <!-- 2022 -->
      <g style="fill: #666666" transform="translate(311.154629 343.939) rotate(-30) scale(0.121 -0.121)">
       <use xlink:href="#ArialMT-32"/>
       <use xlink:href="#ArialMT-30" transform="translate(55.615234 0)"/>
       <use xlink:href="#ArialMT-32" transform="translate(111.230469 0)"/>
       <use xlink:href="#ArialMT-32" transform="translate(166.845703 0)"/>
      </g>
     </g>
    </g>
    <g id="xtick_5">
     <g id="line2d_5">
      <path d="M 427.470546 313.480926 
L 427.470546 41.472 
" clip-path="url(#pfc81b8e9cb)" style="fill: none; stroke: #dddddd; stroke-width: 0.5; stroke-linecap: round"/>
     </g>
     <g id="text_5">
      <!-- 2024 -->
      <g style="fill: #666666" transform="translate(402.959088 343.939) rotate(-30) scale(0.121 -0.121)">
       <defs>
        <path id="ArialMT-34" d="M 2069 0 
L 2069 1097 
L 81 1097 
L 81 1613 
L 2172 4581 
L 2631 4581 
L 2631 1613 
L 3250 1613 
L 3250 1097 
L 2631 1097 
L 2631 0 
L 2069 0 
z
M 2069 1613 
L 2069 3678 
L 634 1613 
L 2069 1613 
z
" transform="scale(0.015625)"/>
       </defs>
       <use xlink:href="#ArialMT-32"/>
       <use xlink:href="#ArialMT-30" transform="translate(55.615234 0)"/>
       <use xlink:href="#ArialMT-32" transform="translate(111.230469 0)"/>
       <use xlink:href="#ArialMT-34" transform="translate(166.845703 0)"/>
      </g>
     </g>
    </g>
    <g id="xtick_6">
     <g id="line2d_6">
      <path d="M 519.400765 313.480926 
L 519.400765 41.472 
" clip-path="url(#pfc81b8e9cb)" style="fill: none; stroke: #dddddd; stroke-width: 0.5; stroke-linecap: round"/>
     </g>
     <g id="text_6">
      <!-- 2026 -->
      <g style="fill: #666666" transform="translate(494.889308 343.939) rotate(-30) scale(0.121 -0.121)">
       <use xlink:href="#ArialMT-32"/>
       <use xlink:href="#ArialMT-30" transform="translate(55.615234 0)"/>
       <use xlink:href="#ArialMT-32" transform="translate(111.230469 0)"/>
       <use xlink:href="#ArialMT-36" transform="translate(166.845703 0)"/>
      </g>
     </g>
    </g>
   </g>
   <g id="matplotlib.axis_2">
    <g id="ytick_1">
     <g id="line2d_7">
      <path d="M 47.966 297.460019 
L 561.744 297.460019 
" clip-path="url(#pfc81b8e9cb)" style="fill: none; stroke: #dddddd; stroke-width: 0.5; stroke-linecap: round"/>
     </g>
     <g id="text_7">
      <!-- 0% -->
      <g style="fill: #666666" transform="translate(20.977719 301.790496) scale(0.121 -0.121)">
       <defs>
        <path id="ArialMT-25" d="M 372 3481 
Q 372 3972 619 4315 
Q 866 4659 1334 4659 
Q 1766 4659 2048 4351 
Q 2331 4044 2331 3447 
Q 2331 2866 2045 2552 
Q 1759 2238 1341 2238 
Q 925 2238 648 2547 
Q 372 2856 372 3481 
z
M 1350 4272 
Q 1141 4272 1002 4090 
Q 863 3909 863 3425 
Q 863 2984 1003 2804 
Q 1144 2625 1350 2625 
Q 1563 2625 1702 2806 
Q 1841 2988 1841 3469 
Q 1841 3913 1700 4092 
Q 1559 4272 1350 4272 
z
M 1353 -169 
L 3859 4659 
L 4316 4659 
L 1819 -169 
L 1353 -169 
z
M 3334 1075 
Q 3334 1569 3581 1911 
Q 3828 2253 4300 2253 
Q 4731 2253 5014 1945 
Q 5297 1638 5297 1041 
Q 5297 459 5011 145 
Q 4725 -169 4303 -169 
Q 3888 -169 3611 142 
Q 3334 453 3334 1075 
z
M 4316 1866 
Q 4103 1866 3964 1684 
Q 3825 1503 3825 1019 
Q 3825 581 3965 400 
Q 4106 219 4313 219 
Q 4528 219 4667 400 
Q 4806 581 4806 1063 
Q 4806 1506 4665 1686 
Q 4525 1866 4316 1866 
z
" transform="scale(0.015625)"/>
       </defs>
       <use xlink:href="#ArialMT-30"/>
       <use xlink:href="#ArialMT-25" transform="translate(55.615234 0)"/>
      </g>
     </g>
    </g>
    <g id="ytick_2">
     <g id="line2d_8">
      <path d="M 47.966 251.222628 
L 561.744 251.222628 
" clip-path="url(#pfc81b8e9cb)" style="fill: none; stroke: #dddddd; stroke-width: 0.5; stroke-linecap: round"/>
     </g>
     <g id="text_8">
      <!-- 10% -->
      <g style="fill: #666666" transform="translate(14.248984 255.553104) scale(0.121 -0.121)">
       <use xlink:href="#ArialMT-31"/>
       <use xlink:href="#ArialMT-30" transform="translate(55.615234 0)"/>
       <use xlink:href="#ArialMT-25" transform="translate(111.230469 0)"/>
      </g>
     </g>
    </g>
    <g id="ytick_3">
     <g id="line2d_9">
      <path d="M 47.966 204.985237 
L 561.744 204.985237 
" clip-path="url(#pfc81b8e9cb)" style="fill: none; stroke: #dddddd; stroke-width: 0.5; stroke-linecap: round"/>
     </g>
     <g id="text_9">
      <!-- 20% -->
      <g style="fill: #666666" transform="translate(14.248984 209.315713) scale(0.121 -0.121)">
       <use xlink:href="#ArialMT-32"/>
       <use xlink:href="#ArialMT-30" transform="translate(55.615234 0)"/>
       <use xlink:href="#ArialMT-25" transform="translate(111.230469 0)"/>
      </g>
     </g>
    </g>
    <g id="ytick_4">
     <g id="line2d_10">
      <path d="M 47.966 158.747845 
L 561.744 158.747845 
" clip-path="url(#pfc81b8e9cb)" style="fill: none; stroke: #dddddd; stroke-width: 0.5; stroke-linecap: round"/>
     </g>
     <g id="text_10">
      <!-- 30% -->
      <g style="fill: #666666" transform="translate(14.248984 163.078322) scale(0.121 -0.121)">
       <defs>
        <path id="ArialMT-33" d="M 269 1209 
L 831 1284 
Q 928 806 1161 595 
Q 1394 384 1728 384 
Q 2125 384 2398 659 
Q 2672 934 2672 1341 
Q 2672 1728 2419 1979 
Q 2166 2231 1775 2231 
Q 1616 2231 1378 2169 
L 1441 2663 
Q 1497 2656 1531 2656 
Q 1891 2656 2178 2843 
Q 2466 3031 2466 3422 
Q 2466 3731 2256 3934 
Q 2047 4138 1716 4138 
Q 1388 4138 1169 3931 
Q 950 3725 888 3313 
L 325 3413 
Q 428 3978 793 4289 
Q 1159 4600 1703 4600 
Q 2078 4600 2393 4439 
Q 2709 4278 2876 4000 
Q 3044 3722 3044 3409 
Q 3044 3113 2884 2869 
Q 2725 2625 2413 2481 
Q 2819 2388 3044 2092 
Q 3269 1797 3269 1353 
Q 3269 753 2831 336 
Q 2394 -81 1725 -81 
Q 1122 -81 723 278 
Q 325 638 269 1209 
z
" transform="scale(0.015625)"/>
       </defs>
       <use xlink:href="#ArialMT-33"/>
       <use xlink:href="#ArialMT-30" transform="translate(55.615234 0)"/>
       <use xlink:href="#ArialMT-25" transform="translate(111.230469 0)"/>
      </g>
     </g>
    </g>
    <g id="ytick_5">
     <g id="line2d_11">
      <path d="M 47.966 112.510454 
L 561.744 112.510454 
" clip-path="url(#pfc81b8e9cb)" style="fill: none; stroke: #dddddd; stroke-width: 0.5; stroke-linecap: round"/>
     </g>
     <g id="text_11">
      <!-- 40% -->
      <g style="fill: #666666" transform="translate(14.248984 116.84093) scale(0.121 -0.121)">
       <use xlink:href="#ArialMT-34"/>
       <use xlink:href="#ArialMT-30" transform="translate(55.615234 0)"/>
       <use xlink:href="#ArialMT-25" transform="translate(111.230469 0)"/>
      </g>
     </g>
    </g>
    <g id="ytick_6">
     <g id="line2d_12">
      <path d="M 47.966 66.273063 
L 561.744 66.273063 
" clip-path="url(#pfc81b8e9cb)" style="fill: none; stroke: #dddddd; stroke-width: 0.5; stroke-linecap: round"/>
     </g>
     <g id="text_12">
      <!-- 50% -->
      <g style="fill: #666666" transform="translate(14.248984 70.603539) scale(0.121 -0.121)">
       <defs>
        <path id="ArialMT-35" d="M 266 1200 
L 856 1250 
Q 922 819 1161 601 
Q 1400 384 1738 384 
Q 2144 384 2425 690 
Q 2706 997 2706 1503 
Q 2706 1984 2436 2262 
Q 2166 2541 1728 2541 
Q 1456 2541 1237 2417 
Q 1019 2294 894 2097 
L 366 2166 
L 809 4519 
L 3088 4519 
L 3088 3981 
L 1259 3981 
L 1013 2750 
Q 1425 3038 1878 3038 
Q 2478 3038 2890 2622 
Q 3303 2206 3303 1553 
Q 3303 931 2941 478 
Q 2500 -78 1738 -78 
Q 1113 -78 717 272 
Q 322 622 266 1200 
z
" transform="scale(0.015625)"/>
       </defs>
       <use xlink:href="#ArialMT-35"/>
       <use xlink:href="#ArialMT-30" transform="translate(55.615234 0)"/>
       <use xlink:href="#ArialMT-25" transform="translate(111.230469 0)"/>
      </g>
     </g>
    </g>
   </g>
   <g id="line2d_13">
    <path d="M 47.966 297.460019 
L 561.744 297.460019 
" clip-path="url(#pfc81b8e9cb)" style="fill: none; stroke: #808080; stroke-linecap: round"/>
   </g>
   <g id="line2d_14">
    <path d="M 71.319545 297.460019 
L 71.445305 297.409394 
L 71.822584 297.409394 
L 72.074103 296.545428 
L 72.325622 296.877315 
L 72.7029 296.372434 
L 73.080179 297.227289 
L 73.205938 296.998027 
L 73.708977 297.707224 
L 73.960496 299.811036 
L 74.086255 300.014924 
L 74.589293 301.116884 
L 74.840812 300.405667 
L 75.092331 300.402803 
L 75.721129 299.190648 
L 75.846889 299.931343 
L 76.224167 300.06586 
L 76.349927 299.89514 
L 76.475686 299.963502 
L 76.727205 299.615276 
L 77.104484 299.174491 
L 77.230244 299.275587 
L 77.356003 299.994342 
L 77.481763 300.018494 
L 77.607522 299.744067 
L 77.984801 299.42696 
L 78.11056 299.633692 
L 78.487839 299.181114 
L 78.865117 299.148024 
L 78.990877 298.367282 
L 79.242396 298.179332 
L 79.368156 297.920174 
L 79.745434 297.834047 
L 79.871194 297.56445 
L 80.122713 297.669599 
L 80.499991 297.669599 
L 80.625751 298.163488 
L 80.751511 298.043959 
L 80.87727 297.491584 
L 81.00303 297.490178 
L 81.128789 297.206677 
L 81.506068 296.719143 
L 81.631827 296.768145 
L 81.757587 296.173656 
L 82.009106 296.05707 
L 82.637904 294.905845 
L 82.763663 295.053118 
L 82.889423 294.629988 
L 83.64398 293.030514 
L 83.769739 292.990438 
L 84.147018 293.205362 
L 84.524297 292.221228 
L 84.650056 292.323829 
L 85.530373 292.055954 
L 85.907651 292.025578 
L 86.033411 291.524654 
L 86.15917 292.199981 
L 86.41069 292.041701 
L 86.787968 292.1459 
L 87.165247 291.543509 
L 87.291006 291.528666 
L 87.919804 290.637648 
L 88.045563 290.746888 
L 88.171323 290.175089 
L 88.674361 289.249844 
L 88.92588 289.239214 
L 89.05164 289.104032 
L 89.428918 289.407352 
L 89.554678 289.29011 
L 89.806197 289.630378 
L 89.931956 289.224817 
L 90.309235 289.205463 
L 90.434995 289.417779 
L 90.560754 289.188576 
L 90.812273 289.434133 
L 91.189552 289.434133 
L 91.441071 288.813476 
L 91.69259 288.624208 
L 92.069869 289.514843 
L 92.195628 289.251626 
L 92.321388 289.60327 
L 92.824426 289.60327 
L 93.075945 289.003161 
L 93.201704 289.070871 
L 93.327464 288.641292 
L 93.453223 288.669157 
L 93.830502 289.178137 
L 93.956262 288.958019 
L 94.082021 289.033477 
L 94.33354 288.523773 
L 95.465376 288.523773 
L 95.716895 287.386422 
L 95.842655 287.411376 
L 96.094174 287.288536 
L 96.471452 287.471695 
L 96.597212 286.945597 
L 96.722971 286.931009 
L 96.97449 286.638382 
L 97.477529 286.235857 
L 97.854807 287.11717 
L 98.232086 287.224115 
L 98.357845 286.978296 
L 98.483605 287.084311 
L 98.735124 286.313799 
L 99.112402 286.326162 
L 99.238162 286.143603 
L 99.363922 286.486832 
L 99.489681 286.213468 
L 99.615441 286.458882 
L 100.118479 286.5828 
L 100.495757 287.081786 
L 100.998795 286.262084 
L 101.250315 286.565759 
L 101.376074 286.22103 
L 101.753353 286.459499 
L 101.879112 286.749463 
L 102.256391 288.900844 
L 102.633669 289.264231 
L 102.759429 290.142584 
L 103.010948 289.694792 
L 103.136708 289.743185 
L 103.765505 292.716201 
L 103.891265 295.224614 
L 104.017024 295.30398 
L 104.394303 296.212607 
L 104.520062 297.250744 
L 104.771581 296.159455 
L 104.897341 295.874782 
L 105.400379 295.256904 
L 105.526139 295.43872 
L 105.651898 295.26358 
L 105.777658 294.431822 
L 105.903417 294.360912 
L 106.280696 293.70549 
L 106.406455 293.008034 
L 106.657974 293.129812 
L 107.161013 292.470619 
L 107.412532 292.731079 
L 107.91557 292.910913 
L 108.292848 293.320479 
L 108.418608 292.919858 
L 108.670127 292.919858 
L 108.921646 292.209026 
L 109.047406 292.344479 
L 109.173165 291.977667 
L 110.053482 291.977667 
L 110.179241 292.510567 
L 110.305001 292.510567 
L 110.55652 292.624779 
L 110.808039 293.207667 
L 111.436837 292.255981 
L 111.562596 292.227009 
L 111.688356 292.322282 
L 111.814115 292.143048 
L 111.939875 292.496331 
L 112.568673 290.747667 
L 112.694432 290.954905 
L 112.820192 290.811638 
L 113.19747 291.080779 
L 113.448989 290.869315 
L 113.574749 291.196704 
L 113.700508 291.199074 
L 114.203547 290.942986 
L 114.580825 291.577398 
L 115.209623 291.083719 
L 115.335382 290.790716 
L 115.461142 291.247514 
L 116.08994 291.446077 
L 116.341459 290.88443 
L 116.844497 290.573093 
L 116.970256 290.671274 
L 117.096016 290.910772 
L 117.347535 290.685232 
L 117.724813 290.685232 
L 117.976333 290.099024 
L 118.102092 289.999239 
L 118.73089 289.879168 
L 118.856649 289.783655 
L 118.982409 290.134413 
L 119.485447 290.651629 
L 119.736966 291.236771 
L 119.862726 291.200448 
L 120.365764 291.846037 
L 120.743042 291.502947 
L 121.24608 291.610358 
L 122.377916 293.611918 
L 122.503676 293.173207 
L 123.006714 293.126397 
L 123.132473 293.448917 
L 123.383993 293.183995 
L 123.761271 293.035078 
L 124.01279 292.706555 
L 124.264309 291.428267 
L 124.767347 291.428267 
L 125.018866 291.080733 
L 125.521905 291.384041 
L 125.647664 291.051123 
L 125.899183 289.873922 
L 126.024943 289.600867 
L 126.402221 289.430717 
L 126.527981 288.947085 
L 126.65374 289.295046 
L 126.905259 289.322338 
L 127.408298 287.96967 
L 127.659817 287.200279 
L 128.162855 286.22965 
L 128.288614 285.73883 
L 128.414374 285.924861 
L 128.665893 285.099783 
L 129.043172 284.776568 
L 129.168931 284.94952 
L 129.42045 284.00495 
L 129.54621 283.836209 
L 129.923488 283.69475 
L 130.049248 283.144276 
L 130.175007 283.103631 
L 130.426526 281.730799 
L 130.803805 282.120497 
L 130.929565 281.946234 
L 131.181084 281.2915 
L 131.306843 281.319554 
L 131.684122 280.82885 
L 131.935641 281.166064 
L 132.0614 281.31584 
L 132.18716 280.960848 
L 132.564438 280.79642 
L 132.815958 279.884 
L 132.941717 280.202816 
L 133.067477 280.091581 
L 133.444755 280.139901 
L 133.570515 280.012129 
L 133.947793 281.699286 
L 134.325072 281.157253 
L 134.576591 280.645031 
L 134.82811 280.292836 
L 135.331148 280.063485 
L 135.456908 279.616863 
L 135.582667 279.847835 
L 135.708427 278.732448 
L 136.085705 278.553537 
L 136.211465 278.327536 
L 136.462984 279.250462 
L 136.588744 279.404977 
L 136.966022 278.573125 
L 137.343301 278.595185 
L 137.46906 278.423542 
L 139.984251 277.533093 
L 140.23577 277.087362 
L 140.990327 277.087362 
L 141.367606 276.451937 
L 141.493365 276.466339 
L 141.744884 275.990354 
L 141.870644 275.827432 
L 142.247923 275.932192 
L 142.373682 276.119063 
L 142.625201 275.649002 
L 142.750961 275.700969 
L 143.128239 275.546606 
L 143.505518 274.832223 
L 143.631277 274.643261 
L 144.134316 275.14178 
L 144.385835 275.170358 
L 144.511594 275.250319 
L 144.888873 274.981617 
L 145.014632 274.52581 
L 145.140392 274.587703 
L 145.391911 273.830388 
L 145.76919 273.720514 
L 146.020709 274.738656 
L 146.272228 274.030923 
L 146.649506 273.640939 
L 146.775266 273.130001 
L 146.901025 273.452368 
L 147.026785 275.009907 
L 147.152544 275.013886 
L 147.655583 275.532027 
L 147.781342 275.185783 
L 148.032861 275.717699 
L 148.41014 275.416882 
L 148.535899 275.125098 
L 148.661659 275.205361 
L 148.787418 275.510763 
L 148.913178 275.19832 
L 149.290457 274.695033 
L 149.416216 275.336315 
L 149.541976 275.055968 
L 149.793495 275.435672 
L 150.170773 275.39517 
L 150.296533 274.804266 
L 150.422292 274.873093 
L 150.548052 274.524391 
L 151.05109 274.409267 
L 151.17685 274.132657 
L 151.302609 274.833719 
L 151.554128 274.123886 
L 151.805647 273.991878 
L 152.434445 271.563958 
L 153.063243 270.776022 
L 153.189002 271.010631 
L 153.314762 270.84463 
L 153.69204 270.64459 
L 153.8178 270.122358 
L 153.943559 270.085123 
L 154.195078 269.26131 
L 154.572357 268.611907 
L 154.823876 267.329669 
L 154.949636 267.365716 
L 155.075395 267.00484 
L 155.452674 267.642326 
L 155.578433 268.246209 
L 155.704193 267.831371 
L 155.829952 267.804988 
L 155.955712 267.04877 
L 156.33299 266.319212 
L 156.836029 272.238975 
L 157.087548 272.238975 
L 157.464826 270.198503 
L 158.345143 270.198503 
L 158.596662 268.29208 
L 158.722422 268.29208 
L 158.973941 267.390482 
L 159.22546 268.493993 
L 159.351219 268.290842 
L 159.476979 268.740332 
L 159.854257 268.820669 
L 159.980017 268.024343 
L 160.105776 268.367305 
L 160.357295 267.682529 
L 160.734574 267.234625 
L 160.986093 267.881128 
L 161.111853 267.746772 
L 161.237612 268.116919 
L 161.74065 267.767324 
L 161.992169 268.130983 
L 162.117929 268.903817 
L 162.495208 268.966256 
L 162.620967 268.612212 
L 162.746727 269.22439 
L 162.998246 268.055262 
L 163.124005 268.035007 
L 163.375524 267.850517 
L 163.501284 267.957136 
L 163.752803 267.846603 
L 164.130082 267.846603 
L 164.50736 265.927075 
L 164.758879 266.625934 
L 165.136158 267.043386 
L 165.261917 267.572961 
L 165.513436 265.323557 
L 165.639196 266.093593 
L 166.016475 266.549481 
L 166.142234 265.487095 
L 166.267994 265.763381 
L 166.393753 266.716866 
L 166.645272 266.796648 
L 167.14831 266.74491 
L 167.27407 266.291847 
L 167.399829 266.283444 
L 167.777108 265.41478 
L 167.902868 266.472476 
L 168.280146 266.655396 
L 168.657425 266.486371 
L 168.783184 266.275358 
L 169.034703 267.104626 
L 169.160463 266.767432 
L 169.537741 266.232684 
L 169.663501 266.263912 
L 169.91502 267.097927 
L 170.04078 267.143078 
L 170.418058 266.797818 
L 170.543818 267.149959 
L 170.669577 267.902297 
L 170.795337 267.083986 
L 170.921096 267.463888 
L 171.298375 267.134383 
L 171.549894 266.601891 
L 171.675654 266.730675 
L 171.801413 267.11116 
L 172.178692 267.143378 
L 172.304451 266.480319 
L 172.55597 266.825738 
L 173.059008 266.823471 
L 173.184768 268.182984 
L 173.310527 268.001733 
L 173.436287 268.364758 
L 173.562047 268.099926 
L 173.939325 268.620139 
L 174.065085 268.987367 
L 174.316604 270.063445 
L 174.442363 268.409351 
L 174.568123 268.371798 
L 174.819642 269.042209 
L 174.945401 268.619748 
L 175.071161 268.81371 
L 175.19692 268.730975 
L 175.32268 268.387404 
L 175.825718 266.896991 
L 175.951478 267.398447 
L 176.202997 265.903446 
L 176.831794 266.121432 
L 177.586352 263.303455 
L 177.712111 263.151821 
L 177.837871 263.43262 
L 178.340909 263.058335 
L 178.466668 262.419431 
L 178.843947 263.32497 
L 179.221226 263.544092 
L 179.346985 262.036701 
L 179.472745 262.7362 
L 179.598504 262.040674 
L 179.724264 262.369622 
L 180.227302 262.984133 
L 180.60458 265.166405 
L 180.981859 264.991259 
L 181.107619 264.337498 
L 181.233378 264.515881 
L 181.484897 263.918259 
L 181.862176 262.968059 
L 181.987935 262.960974 
L 182.113695 263.1443 
L 182.365214 263.667187 
L 182.742493 263.669584 
L 182.868252 263.222586 
L 182.994012 263.222586 
L 183.245531 263.511534 
L 183.622809 263.746917 
L 183.874328 264.04507 
L 184.125847 263.572837 
L 184.503126 263.659907 
L 184.754645 262.94725 
L 184.880405 263.109997 
L 185.006164 262.364361 
L 185.509202 262.327202 
L 185.886481 261.555792 
L 186.766798 261.520247 
L 187.144076 261.944172 
L 187.395595 261.737404 
L 187.521355 262.278317 
L 187.647114 261.607091 
L 188.150152 261.825288 
L 188.275912 261.516557 
L 188.401672 261.817428 
L 188.527431 261.197355 
L 188.90471 260.15237 
L 189.030469 260.483499 
L 189.407748 260.02426 
L 189.785026 260.388834 
L 190.162305 259.176358 
L 190.288065 258.548241 
L 190.791103 258.332613 
L 190.916862 258.09814 
L 191.168381 258.498801 
L 191.54566 257.995034 
L 192.048698 255.723757 
L 192.425977 255.358401 
L 192.551736 255.823373 
L 192.677496 255.723282 
L 192.803255 255.948511 
L 192.929015 256.61684 
L 193.306293 256.673234 
L 193.432053 256.571797 
L 193.557812 256.124657 
L 193.683572 256.114343 
L 194.31237 254.193558 
L 194.438129 254.016514 
L 194.563889 254.385689 
L 194.689648 254.175995 
L 195.066927 253.991912 
L 195.318446 253.465084 
L 195.444205 253.789587 
L 195.569965 254.606824 
L 195.947244 255.053442 
L 196.198763 255.607867 
L 196.324522 255.357933 
L 196.450282 255.734512 
L 196.95332 255.462211 
L 197.079079 255.570249 
L 197.204839 255.500021 
L 197.330598 254.610898 
L 197.707877 254.507698 
L 197.959396 254.183629 
L 198.588194 251.500534 
L 199.091232 250.240763 
L 199.468511 250.557915 
L 199.72003 249.942493 
L 199.845789 249.947485 
L 199.971549 249.390355 
L 200.348827 249.380892 
L 200.600346 249.80668 
L 200.851865 249.373761 
L 201.354904 249.313812 
L 201.480663 249.146761 
L 201.606423 248.792272 
L 201.732182 247.820426 
L 202.612499 247.820426 
L 203.115537 246.093045 
L 203.367056 245.07951 
L 203.492816 245.72218 
L 203.870094 243.984386 
L 203.995854 244.231232 
L 204.247373 243.628156 
L 204.750411 238.627126 
L 205.00193 240.743358 
L 205.12769 240.815395 
L 205.253449 239.955809 
L 205.630728 238.967689 
L 205.882247 237.715498 
L 206.008006 238.04337 
L 206.133766 240.456827 
L 206.636804 237.784497 
L 206.888323 240.192039 
L 207.517121 237.518745 
L 207.64288 237.784289 
L 207.894399 236.555458 
L 208.271678 237.385536 
L 208.397437 238.873518 
L 208.523197 238.397259 
L 208.648957 238.682972 
L 208.774716 236.500302 
L 209.026235 236.490799 
L 209.151995 234.551447 
L 209.277754 234.390863 
L 209.529273 233.713916 
L 209.655033 233.713916 
L 210.032311 234.383808 
L 210.53535 236.702448 
L 210.912628 237.758315 
L 211.038388 237.008557 
L 211.289907 237.047903 
L 211.415666 236.378607 
L 212.044464 238.345736 
L 212.295983 240.362945 
L 212.673262 240.687694 
L 212.799021 240.080325 
L 213.1763 240.080325 
L 213.553578 242.521422 
L 213.679338 241.830213 
L 213.930857 242.00697 
L 214.056616 240.103484 
L 214.559655 240.466042 
L 214.811174 238.842141 
L 214.936933 240.093484 
L 215.314212 240.481629 
L 215.439971 239.932443 
L 215.565731 240.084511 
L 215.69149 240.835892 
L 216.446048 240.251036 
L 216.571807 240.636827 
L 216.697567 240.473397 
L 217.074845 240.586726 
L 217.200605 240.881174 
L 217.326364 240.696013 
L 217.452124 241.138593 
L 217.577883 241.138593 
L 217.955162 240.729115 
L 218.080922 239.645679 
L 218.4582 240.218535 
L 218.835479 240.262833 
L 218.961238 240.056007 
L 219.086998 239.406601 
L 219.338517 237.234475 
L 219.841555 236.944261 
L 219.967315 237.134901 
L 220.218834 236.333098 
L 220.470353 236.228308 
L 220.721872 234.704169 
L 220.847631 234.654335 
L 220.973391 234.845174 
L 221.09915 234.585391 
L 221.476429 235.614838 
L 221.602189 235.599286 
L 221.727948 235.762402 
L 221.979467 235.081572 
L 222.356746 234.859411 
L 222.608265 234.981755 
L 222.734024 235.272054 
L 222.859784 234.682406 
L 223.740101 232.584516 
L 224.117379 232.441046 
L 224.243139 232.123236 
L 224.368898 232.178026 
L 224.494658 232.391177 
L 224.620417 232.257712 
L 224.997696 232.453413 
L 225.123455 232.761951 
L 225.249215 232.481259 
L 225.374975 231.709067 
L 225.500734 231.704004 
L 226.758329 229.349367 
L 227.009848 229.579988 
L 227.135608 229.535661 
L 227.261368 229.327654 
L 227.638646 229.381635 
L 227.764406 229.021857 
L 227.890165 229.026642 
L 228.141684 229.438819 
L 228.267444 229.438819 
L 228.896241 228.362786 
L 229.022001 228.06564 
L 229.39928 227.693552 
L 229.650799 227.983057 
L 229.902318 227.912059 
L 230.279596 228.087538 
L 230.405356 228.601219 
L 230.531115 228.629867 
L 230.782635 228.088363 
L 231.411432 228.424873 
L 231.537192 228.727849 
L 231.662951 228.632286 
L 232.920547 228.675915 
L 233.172066 227.826081 
L 233.423585 227.314085 
L 233.800863 226.889593 
L 234.052382 227.375181 
L 234.178142 227.309208 
L 234.303901 227.663674 
L 234.68118 227.76489 
L 234.80694 227.563994 
L 235.058459 228.058861 
L 235.184218 227.726499 
L 235.561497 227.531908 
L 235.687256 227.684339 
L 235.938775 228.481912 
L 236.064535 228.126992 
L 236.441814 227.789705 
L 236.567573 227.213556 
L 236.693333 227.183957 
L 236.944852 226.921268 
L 237.44789 227.289251 
L 237.825168 227.076896 
L 238.202447 226.490334 
L 238.328207 225.91459 
L 238.453966 226.015687 
L 238.579726 225.871082 
L 238.705485 226.04485 
L 239.208523 225.513277 
L 239.334283 225.655184 
L 239.460042 225.573697 
L 239.711561 225.674965 
L 240.2146 225.234689 
L 240.466119 224.697398 
L 240.843397 224.589836 
L 241.094916 224.126133 
L 241.220676 224.1117 
L 241.346435 223.468498 
L 241.723714 222.938522 
L 241.849473 222.386849 
L 242.226752 222.44755 
L 242.604031 222.513991 
L 242.981309 221.294773 
L 243.107069 221.217702 
L 243.484347 220.576715 
L 243.861626 219.215619 
L 243.987386 219.092155 
L 244.364664 218.971637 
L 244.490424 218.548493 
L 244.616183 218.899338 
L 244.867702 218.330973 
L 245.37074 217.611205 
L 245.62226 218.119381 
L 245.748019 217.916241 
L 245.999538 217.916241 
L 246.125298 217.201124 
L 246.251057 217.410999 
L 246.376817 217.129118 
L 246.502576 218.039205 
L 247.508653 218.039205 
L 247.885931 219.159622 
L 248.26321 217.237418 
L 248.892007 216.179359 
L 249.143526 215.332371 
L 249.772324 213.510331 
L 249.898084 213.885793 
L 250.149603 212.294394 
L 250.526881 211.961681 
L 250.652641 212.011023 
L 250.7784 213.015723 
L 250.90416 212.754436 
L 251.029919 214.990728 
L 251.155679 214.990728 
L 251.784477 211.286789 
L 251.910236 211.316589 
L 252.287515 212.336145 
L 252.413274 212.016197 
L 252.539034 212.421882 
L 252.790553 213.912743 
L 253.54511 215.707229 
L 253.67087 215.084655 
L 254.048148 215.327684 
L 254.425427 213.83184 
L 254.551186 213.689748 
L 254.928465 213.93051 
L 255.179984 213.577935 
L 255.305744 213.099536 
L 255.431503 213.196785 
L 255.808782 213.196785 
L 256.060301 210.300181 
L 256.18606 209.791631 
L 256.31182 210.018999 
L 256.689098 210.026594 
L 256.814858 209.42748 
L 256.940618 209.432257 
L 257.192137 208.845749 
L 257.569415 208.878509 
L 257.695175 209.310547 
L 257.946694 208.482152 
L 258.449732 208.175695 
L 258.701251 207.800459 
L 258.827011 207.380842 
L 259.455808 207.380842 
L 259.581568 206.871012 
L 259.707327 207.466063 
L 259.833087 207.091781 
L 259.958846 207.091781 
L 260.210365 207.875593 
L 260.461885 207.820138 
L 260.713404 208.369667 
L 261.216442 208.122743 
L 261.467961 209.111042 
L 261.59372 209.404798 
L 261.970999 209.570217 
L 262.096758 209.364787 
L 262.348278 209.862041 
L 262.474037 209.419454 
L 262.725556 209.419454 
L 262.851316 208.542132 
L 263.354354 211.589506 
L 263.731632 211.820708 
L 263.983151 211.222113 
L 264.108911 211.546637 
L 264.234671 210.951697 
L 264.611949 210.442895 
L 264.863468 209.694621 
L 264.989228 209.328102 
L 265.114987 208.505952 
L 265.618025 209.476438 
L 265.869544 209.304616 
L 266.372583 209.32523 
L 266.749861 206.166846 
L 267.252899 202.98545 
L 267.378659 202.904089 
L 267.630178 200.876115 
L 267.755937 201.92476 
L 268.133216 200.228819 
L 268.258976 200.827211 
L 268.384735 200.81217 
L 268.510495 202.801107 
L 269.390811 197.97566 
L 269.516571 200.398511 
L 269.89385 200.382492 
L 270.396888 197.758442 
L 270.774166 196.56325 
L 270.899926 196.584215 
L 271.151445 195.858751 
L 271.277204 196.580747 
L 271.654483 196.141747 
L 271.906002 197.57757 
L 272.157521 196.434601 
L 272.660559 193.940404 
L 272.786319 194.532057 
L 272.912078 195.85833 
L 273.037838 195.471086 
L 273.415117 194.74607 
L 273.540876 195.086076 
L 273.666636 196.224938 
L 273.792395 196.173582 
L 273.918155 195.071705 
L 274.295433 194.835144 
L 274.546952 194.28484 
L 274.672712 194.28484 
L 275.17575 195.931166 
L 275.30151 195.673927 
L 275.427269 196.956615 
L 275.553029 197.013289 
L 275.678788 196.714028 
L 276.056067 196.189218 
L 276.181826 195.702949 
L 276.307586 195.812589 
L 276.433345 195.685462 
L 276.559105 194.760733 
L 276.936383 194.935643 
L 277.062143 195.377162 
L 277.187903 195.240571 
L 277.439422 197.252781 
L 277.8167 196.918824 
L 278.068219 195.832723 
L 279.074296 195.832723 
L 279.200055 194.702297 
L 279.703093 192.85639 
L 279.828853 192.933413 
L 279.954612 192.66287 
L 280.080372 192.672757 
L 280.45765 192.991247 
L 280.58341 192.329992 
L 280.834929 192.201757 
L 280.960689 192.75453 
L 281.337967 192.625939 
L 281.463727 192.346014 
L 281.715246 190.921946 
L 281.841005 191.780566 
L 281.966765 191.780566 
L 282.469803 189.951363 
L 282.595562 188.954735 
L 282.721322 189.025653 
L 283.098601 188.218525 
L 283.35012 188.975467 
L 283.475879 188.9384 
L 283.601639 190.026546 
L 283.978917 189.687488 
L 284.230436 190.424673 
L 284.356196 190.258287 
L 284.481956 190.342902 
L 284.859234 189.560078 
L 284.984994 189.692934 
L 285.110753 190.508844 
L 285.236513 190.478736 
L 285.362272 189.793504 
L 285.739551 189.624165 
L 285.99107 188.056694 
L 286.116829 188.069473 
L 286.242589 187.94938 
L 286.745627 187.922015 
L 286.871387 188.648339 
L 286.997146 188.525027 
L 287.122906 189.093172 
L 287.751703 188.01415 
L 287.877463 187.37454 
L 288.003222 187.485096 
L 288.380501 186.521539 
L 288.506261 187.013803 
L 288.63202 186.377066 
L 288.75778 186.416454 
L 288.883539 185.647407 
L 289.260818 185.33353 
L 289.386577 185.537732 
L 289.638096 183.502761 
L 290.141135 182.549066 
L 290.518413 180.044612 
L 290.644173 179.892544 
L 291.021451 179.943105 
L 291.147211 178.666699 
L 291.27297 178.776377 
L 291.39873 179.279465 
L 291.524489 179.15587 
L 291.901768 178.359708 
L 292.027528 179.174177 
L 292.153287 178.753594 
L 292.404806 177.548642 
L 292.782085 177.004444 
L 292.907844 178.243832 
L 293.033604 178.156945 
L 293.285123 180.606499 
L 293.536642 180.606499 
L 293.788161 178.966709 
L 293.913921 179.143125 
L 294.16544 180.073161 
L 294.542718 179.082855 
L 294.794237 176.780729 
L 295.800314 176.69538 
L 296.051833 176.540911 
L 296.554871 178.182764 
L 296.68063 177.75231 
L 296.80639 178.734186 
L 297.057909 178.734186 
L 297.183668 177.817639 
L 297.309428 178.143857 
L 297.435187 177.055088 
L 297.560947 178.232474 
L 297.686707 178.358738 
L 298.189745 179.922113 
L 298.315504 179.59104 
L 298.567023 177.965227 
L 298.944302 178.468568 
L 299.070061 177.940657 
L 299.195821 177.906416 
L 299.321581 177.425309 
L 299.44734 178.198701 
L 299.824619 177.495438 
L 299.950378 177.774708 
L 300.076138 178.536774 
L 300.201897 178.239035 
L 300.327657 177.29352 
L 300.704935 177.06109 
L 300.830695 176.668855 
L 300.956454 176.976718 
L 301.207974 176.107938 
L 301.711012 176.063392 
L 301.836771 176.246946 
L 301.962531 176.178408 
L 302.465569 176.938744 
L 302.591328 176.770448 
L 302.842847 176.236872 
L 302.968607 175.97848 
L 303.471645 174.67888 
L 303.848924 174.186002 
L 304.351962 174.496105 
L 304.477721 174.253261 
L 304.603481 173.730996 
L 304.72924 173.865242 
L 305.358038 173.865242 
L 305.483798 173.712456 
L 305.609557 173.988914 
L 306.112595 173.478395 
L 306.238355 173.155607 
L 306.364114 173.620932 
L 306.489874 172.907105 
L 306.992912 171.854837 
L 307.118672 171.856922 
L 307.370191 171.5802 
L 307.747469 171.20653 
L 307.998988 169.71725 
L 308.124748 169.34481 
L 308.250507 169.446829 
L 308.753546 169.13646 
L 309.005065 169.328313 
L 309.130824 169.290674 
L 309.508103 169.511047 
L 309.759622 169.924617 
L 309.885381 169.409729 
L 310.011141 169.665688 
L 310.388419 169.665688 
L 310.765698 170.989887 
L 311.268736 170.579105 
L 311.771774 168.271915 
L 312.149053 168.193843 
L 312.274813 168.597974 
L 312.526332 167.872426 
L 312.652091 168.79761 
L 313.02937 168.504101 
L 313.155129 168.104865 
L 313.406648 167.024209 
L 313.532408 166.850561 
L 314.035446 165.092426 
L 314.161206 165.440751 
L 314.286965 164.808633 
L 314.412725 164.9792 
L 314.790003 164.940191 
L 314.915763 164.796867 
L 315.167282 163.242788 
L 315.293041 163.19608 
L 315.67032 164.003158 
L 315.921839 165.76107 
L 316.047599 164.556622 
L 316.299118 164.494553 
L 316.550637 163.160304 
L 316.676396 163.4306 
L 316.927915 162.364852 
L 317.053675 162.138706 
L 317.430953 161.920397 
L 317.682472 161.54795 
L 317.933992 161.588753 
L 318.31127 161.44012 
L 318.43703 162.430746 
L 318.562789 161.764276 
L 318.688549 161.754209 
L 318.814308 162.236608 
L 319.191587 161.427572 
L 319.443106 160.669165 
L 319.568865 161.331807 
L 319.694625 161.040278 
L 320.197663 160.66331 
L 320.323423 160.34457 
L 320.449182 159.472615 
L 320.574942 159.472615 
L 320.95222 158.892121 
L 321.07798 158.11575 
L 321.203739 158.05932 
L 321.455258 157.782755 
L 321.832537 157.544858 
L 322.209816 159.612501 
L 322.335575 159.48661 
L 322.838613 159.48661 
L 323.090132 158.683839 
L 323.215892 159.378407 
L 323.593171 160.065942 
L 323.71893 159.635744 
L 323.84469 160.444344 
L 323.970449 159.743404 
L 324.976525 159.715882 
L 325.353804 159.597186 
L 325.479564 160.401985 
L 325.731083 160.452827 
L 325.856842 159.928672 
L 326.234121 159.89306 
L 326.35988 159.468951 
L 326.48564 159.44559 
L 326.611399 158.91058 
L 326.737159 159.064895 
L 327.240197 158.604701 
L 327.365957 158.684273 
L 327.491716 158.949099 
L 327.617476 158.60234 
L 327.868995 158.60234 
L 327.994754 157.993017 
L 328.120514 158.185422 
L 328.372033 157.327737 
L 328.497792 157.617092 
L 329.12659 157.103455 
L 329.378109 155.898117 
L 329.755388 155.935904 
L 329.881147 156.206532 
L 330.006907 156.047174 
L 330.132666 156.141471 
L 330.258426 155.259421 
L 330.887224 154.730884 
L 331.012983 154.866331 
L 331.138743 154.811053 
L 331.641781 154.473335 
L 332.019059 153.204403 
L 332.396338 153.122665 
L 332.522097 153.292099 
L 332.773617 152.084508 
L 332.899376 152.087246 
L 333.276655 151.651785 
L 333.402414 152.015396 
L 333.528174 152.015617 
L 333.653933 151.55224 
L 333.779693 151.921054 
L 334.156971 152.528702 
L 334.53425 151.141139 
L 334.66001 151.215513 
L 335.037288 151.124299 
L 335.163048 150.773787 
L 335.288807 150.928685 
L 335.540326 149.563156 
L 335.917605 149.563156 
L 336.043364 149.366478 
L 336.294883 150.052727 
L 336.797922 149.439742 
L 336.923681 149.727839 
L 337.049441 149.297677 
L 337.30096 150.283934 
L 337.678238 149.545586 
L 337.929757 147.834673 
L 338.055517 147.409899 
L 338.181276 147.578305 
L 338.558555 146.908036 
L 338.684315 147.877996 
L 338.810074 147.762962 
L 339.061593 148.72567 
L 339.94191 148.72567 
L 340.696467 146.609744 
L 340.822227 147.54063 
L 341.325265 149.645171 
L 341.702543 148.582024 
L 342.079822 148.908009 
L 342.205582 149.646525 
L 342.331341 149.225552 
L 342.457101 149.829146 
L 342.58286 149.743447 
L 342.960139 149.621934 
L 343.085898 149.439004 
L 343.840456 152.243659 
L 344.091975 154.381313 
L 344.343494 153.746738 
L 344.720772 154.177559 
L 344.846532 156.788709 
L 345.098051 154.295762 
L 345.22381 153.493814 
L 345.852608 153.449396 
L 346.104127 154.517643 
L 346.607165 154.45723 
L 346.732925 152.89941 
L 346.858684 153.081364 
L 346.984444 152.009183 
L 347.487482 152.009183 
L 347.613242 151.57316 
L 347.739001 151.938375 
L 347.864761 151.407678 
L 348.242039 152.653932 
L 348.367799 152.235934 
L 348.493558 152.4637 
L 348.745077 151.508796 
L 349.248115 151.904773 
L 349.499635 153.587349 
L 349.625394 153.135269 
L 349.876913 153.135269 
L 350.002673 154.86314 
L 350.128432 154.990008 
L 350.379951 153.378373 
L 350.505711 152.048122 
L 351.134508 152.048122 
L 351.260268 151.56107 
L 351.386028 152.467716 
L 351.763306 152.366238 
L 352.014825 150.903046 
L 352.140585 150.854263 
L 352.266344 150.1609 
L 352.643623 150.167103 
L 352.895142 149.338136 
L 353.020902 149.097877 
L 353.146661 148.367677 
L 353.52394 148.358896 
L 353.649699 149.322692 
L 354.026978 147.970445 
L 354.404256 147.953241 
L 354.530016 147.823316 
L 354.781535 148.095223 
L 354.907295 148.095223 
L 355.284573 147.610329 
L 355.410333 147.825146 
L 355.536092 147.522095 
L 355.661852 147.670524 
L 355.787611 146.766832 
L 356.16489 147.27751 
L 356.290649 147.019529 
L 356.416409 146.349329 
L 356.542168 146.303678 
L 356.667928 145.621767 
L 357.045207 145.42917 
L 357.170966 145.683899 
L 357.296726 146.342064 
L 357.548245 144.848716 
L 357.925523 144.37965 
L 358.051283 143.831624 
L 358.177042 144.245193 
L 358.302802 143.304585 
L 358.428561 143.334545 
L 358.80584 142.979121 
L 358.9316 143.126966 
L 359.057359 144.043327 
L 359.308878 143.540255 
L 359.686157 143.98464 
L 360.063435 143.494104 
L 360.189195 143.960262 
L 360.817993 142.323442 
L 361.069512 142.662546 
L 361.44679 142.845732 
L 361.698309 141.651516 
L 361.949828 141.539803 
L 362.201347 141.539803 
L 362.327107 140.970524 
L 362.578626 142.201161 
L 362.830145 141.076768 
L 363.207424 140.764496 
L 363.333183 140.876738 
L 363.458943 141.245864 
L 363.710462 140.431021 
L 364.2135 139.347937 
L 364.33926 138.932449 
L 364.590779 139.511171 
L 364.968057 139.003627 
L 365.093817 139.211647 
L 365.219576 140.720997 
L 365.345336 140.428844 
L 365.471095 140.868307 
L 365.848374 140.832619 
L 365.974133 140.986083 
L 366.225653 141.592044 
L 366.351412 141.303595 
L 366.728691 141.303595 
L 366.98021 140.345181 
L 367.105969 140.579507 
L 367.231729 140.285271 
L 367.609007 140.285271 
L 367.734767 140.118889 
L 367.986286 141.092717 
L 368.112046 142.025196 
L 368.489324 142.135631 
L 368.740843 141.911508 
L 368.866603 142.056557 
L 368.992362 142.436087 
L 369.369641 142.836597 
L 369.4954 142.449613 
L 369.74692 143.604742 
L 369.872679 143.983915 
L 371.004515 143.983915 
L 371.130274 144.124151 
L 371.256034 143.85282 
L 371.381793 142.869541 
L 371.507553 142.807416 
L 371.633313 141.889134 
L 372.136351 141.801233 
L 372.513629 142.890198 
L 373.016667 143.898964 
L 373.142427 143.455811 
L 373.268186 143.707898 
L 373.393946 144.604275 
L 373.771225 145.01508 
L 374.022744 143.414842 
L 374.148503 143.558895 
L 374.274263 142.547971 
L 374.651541 142.611642 
L 375.02882 143.950921 
L 375.154579 143.347928 
L 375.531858 144.875139 
L 375.657618 144.815998 
L 375.909137 146.687363 
L 376.034896 146.970111 
L 376.663694 146.49283 
L 376.915213 145.72245 
L 377.292492 146.181833 
L 377.418251 145.805002 
L 377.544011 145.991416 
L 377.66977 145.711258 
L 377.79553 145.878902 
L 378.172808 145.282393 
L 378.550087 146.977664 
L 378.675846 146.939921 
L 379.053125 147.881031 
L 379.178885 149.20751 
L 379.304644 149.060931 
L 379.430404 148.742654 
L 379.556163 149.045972 
L 379.933442 149.377158 
L 380.059201 149.895336 
L 380.31072 149.766868 
L 380.43648 149.312193 
L 380.813759 148.436245 
L 380.939518 147.6741 
L 381.065278 147.830187 
L 381.191037 147.737065 
L 381.316797 147.156447 
L 381.442556 147.132065 
L 381.819835 146.193045 
L 382.071354 144.245588 
L 382.197113 144.287023 
L 382.574392 144.152925 
L 382.825911 144.935876 
L 383.07743 144.403611 
L 383.454709 144.158516 
L 383.831987 143.28687 
L 383.957747 142.631088 
L 385.089583 142.631088 
L 385.215342 142.148981 
L 385.341102 142.305189 
L 385.592621 141.496283 
L 385.71838 141.582157 
L 386.095659 142.008889 
L 386.347178 141.557844 
L 386.472938 140.691094 
L 386.598697 140.645614 
L 387.101735 139.952924 
L 387.353254 140.469622 
L 387.479014 140.869136 
L 387.982052 140.314722 
L 388.233571 140.340738 
L 388.359331 140.702781 
L 388.736609 140.885528 
L 388.862369 140.752287 
L 388.988128 140.118592 
L 389.113888 140.17031 
L 389.616926 139.631069 
L 389.742685 140.042207 
L 389.994204 139.874391 
L 390.119964 140.329236 
L 390.497243 139.73803 
L 390.623002 139.859838 
L 390.748762 139.675619 
L 390.874521 140.286474 
L 391.000281 139.846035 
L 391.377559 139.496964 
L 391.754838 138.27417 
L 391.880597 138.701364 
L 392.257876 138.624789 
L 392.383636 138.862361 
L 392.509395 138.817281 
L 393.263952 136.722436 
L 393.389712 136.722436 
L 393.515471 136.580082 
L 393.641231 135.980246 
L 394.144269 135.913396 
L 394.270029 135.425844 
L 394.395788 135.775607 
L 394.521548 135.27497 
L 395.024586 134.406182 
L 395.276105 134.851952 
L 395.401864 135.778839 
L 395.653384 135.778839 
L 395.904903 136.443966 
L 396.030662 136.092308 
L 396.282181 134.498539 
L 396.910979 134.498539 
L 397.036738 134.008669 
L 397.288257 134.01382 
L 397.539777 133.285064 
L 397.791296 133.743837 
L 397.917055 133.34661 
L 398.042815 134.193671 
L 398.420093 133.743273 
L 398.545853 133.953042 
L 398.923131 133.671882 
L 399.30041 133.198115 
L 399.677689 134.054573 
L 399.803448 133.740266 
L 400.180727 133.682942 
L 400.306486 133.49377 
L 400.432246 133.6365 
L 400.683765 132.74085 
L 401.061043 132.514967 
L 401.186803 132.96996 
L 401.312563 132.789988 
L 401.564082 131.799073 
L 401.94136 131.473605 
L 402.192879 130.766072 
L 402.444398 130.641945 
L 402.821677 131.491799 
L 402.947436 131.455097 
L 403.073196 131.74313 
L 403.576234 131.74313 
L 403.701994 132.213487 
L 403.953513 131.699425 
L 404.079272 131.54395 
L 404.205032 130.687039 
L 404.70807 130.058934 
L 404.959589 130.063936 
L 405.462627 129.799182 
L 405.588387 129.343674 
L 405.714146 129.655816 
L 405.839906 129.05775 
L 406.342944 128.998454 
L 406.594463 128.544332 
L 406.720222 128.831616 
L 406.845982 128.575175 
L 407.47478 128.528363 
L 407.600539 128.363457 
L 407.726299 127.755685 
L 408.103577 127.76431 
L 408.229337 127.9218 
L 408.355096 127.899947 
L 408.606616 127.035284 
L 409.235413 127.36411 
L 409.361173 127.144135 
L 409.486932 127.655842 
L 410.11573 127.305437 
L 410.241489 127.0382 
L 410.367249 127.417901 
L 410.744528 127.524659 
L 410.870287 127.337956 
L 410.996047 128.07764 
L 411.121806 127.919475 
L 411.247566 128.346191 
L 411.624844 128.348541 
L 411.876363 127.611679 
L 412.002123 127.728645 
L 412.127882 127.533542 
L 412.630921 127.516334 
L 412.75668 127.96439 
L 413.008199 129.790424 
L 413.385478 129.912388 
L 413.636997 129.367772 
L 413.762756 129.031736 
L 414.643073 129.45312 
L 414.768833 129.03095 
L 415.146111 129.316764 
L 415.271871 129.591231 
L 415.39763 129.444871 
L 415.52339 128.839345 
L 416.780985 128.810819 
L 416.906745 128.497974 
L 417.158264 129.639535 
L 417.284023 129.42112 
L 417.409783 129.600451 
L 417.787061 129.761121 
L 417.912821 129.958477 
L 418.038581 130.630626 
L 418.16434 132.064216 
L 418.2901 132.214731 
L 418.667378 132.862488 
L 419.170416 130.74741 
L 419.547695 130.346721 
L 419.673454 130.416143 
L 419.799214 130.616044 
L 420.428012 129.502155 
L 420.553771 129.593668 
L 420.679531 129.633175 
L 421.434088 129.171029 
L 421.559848 128.63349 
L 421.685607 128.816413 
L 421.811367 128.573472 
L 422.188645 128.395148 
L 422.314405 128.463368 
L 422.565924 129.369944 
L 422.691683 129.603534 
L 423.068962 129.852277 
L 423.194721 129.651731 
L 423.320481 129.82918 
L 423.572 129.594197 
L 423.949279 129.668362 
L 424.075038 130.465619 
L 424.326557 130.45309 
L 424.452317 130.154703 
L 424.955355 129.589446 
L 425.081114 129.623967 
L 425.332634 129.333564 
L 425.835672 129.415907 
L 425.961431 129.663636 
L 426.21295 128.778429 
L 426.715988 128.262725 
L 427.093267 125.711318 
L 427.596305 125.688311 
L 427.847824 126.091768 
L 427.973584 125.936582 
L 428.350862 126.522817 
L 428.476622 126.082547 
L 428.602381 126.228378 
L 428.8539 125.924743 
L 429.356939 125.945919 
L 429.482698 126.59538 
L 429.734217 126.361155 
L 430.111496 127.361422 
L 430.237255 127.176148 
L 430.363015 126.727107 
L 430.614534 124.871031 
L 431.369091 125.381125 
L 431.494851 125.637573 
L 431.872129 125.599827 
L 432.249408 123.011873 
L 433.507003 123.011873 
L 434.010041 119.758581 
L 434.135801 119.237369 
L 434.51308 119.457486 
L 434.638839 118.803505 
L 434.764599 119.714884 
L 434.890358 118.53357 
L 435.016118 118.707153 
L 435.393396 118.406327 
L 435.519156 118.571545 
L 435.644915 118.070286 
L 435.770675 118.034301 
L 435.896434 117.666643 
L 436.273713 117.450371 
L 436.525232 118.559242 
L 436.650992 118.882476 
L 437.15403 117.455097 
L 437.531308 116.977187 
L 437.657068 117.460817 
L 438.285866 118.22553 
L 438.411625 117.852786 
L 438.537385 116.93996 
L 438.788904 116.864681 
L 439.291942 115.723251 
L 439.79498 115.673128 
L 439.920739 115.176956 
L 440.046499 115.230041 
L 440.172259 114.920733 
L 440.298018 114.296876 
L 440.675297 114.086611 
L 440.801056 114.86795 
L 441.052575 113.018072 
L 441.178335 112.850407 
L 441.807132 112.934617 
L 441.932892 113.176255 
L 442.058652 113.049828 
L 442.310171 113.049828 
L 442.43593 113.316399 
L 442.56169 112.755974 
L 442.938968 112.755974 
L 443.442006 110.3871 
L 443.567766 110.88279 
L 443.693525 110.228165 
L 443.945045 110.219365 
L 444.196564 109.85126 
L 444.322323 109.380418 
L 444.573842 109.868574 
L 445.07688 109.02979 
L 445.20264 109.425494 
L 445.328399 109.320829 
L 445.579918 109.88938 
L 445.957197 109.184439 
L 446.082957 109.246725 
L 446.208716 108.956906 
L 446.460235 109.148984 
L 446.837514 109.178669 
L 446.963273 108.618799 
L 447.089033 108.791828 
L 447.340552 108.656917 
L 447.717831 108.656917 
L 447.96935 108.285107 
L 448.095109 108.421319 
L 448.220869 108.197423 
L 448.598147 108.506808 
L 448.723907 108.224078 
L 448.849666 108.446201 
L 449.101185 109.093102 
L 449.478464 109.855065 
L 449.604224 109.549912 
L 449.729983 108.898867 
L 449.855743 109.053977 
L 449.981502 108.454534 
L 450.48454 108.317954 
L 450.6103 108.400653 
L 450.861819 108.793067 
L 451.239098 109.588304 
L 451.364857 108.71827 
L 451.490617 108.943445 
L 451.616376 108.28171 
L 452.245174 107.969335 
L 452.370933 108.364604 
L 452.622452 108.135715 
L 452.999731 108.1649 
L 453.25125 109.335856 
L 453.37701 109.123637 
L 453.502769 108.148059 
L 454.005807 107.736664 
L 454.257326 106.274363 
L 454.383086 106.556275 
L 454.760364 107.086764 
L 454.886124 107.035544 
L 455.011884 106.692062 
L 455.640681 108.571834 
L 455.8922 108.222562 
L 456.01796 108.370475 
L 456.143719 108.91977 
L 456.520998 108.484403 
L 456.772517 109.299612 
L 457.024036 109.496702 
L 457.401315 109.44505 
L 457.527074 110.295612 
L 457.778593 109.687236 
L 457.904353 108.949659 
L 458.030112 108.949659 
L 458.281631 109.184568 
L 458.407391 108.92628 
L 458.53315 108.92628 
L 458.65891 108.566538 
L 458.78467 108.748133 
L 459.539227 108.827284 
L 459.664986 108.54211 
L 460.168024 108.54211 
L 460.419543 107.812763 
L 460.545303 107.838761 
L 460.922582 107.724611 
L 461.29986 105.564498 
L 461.42562 106.091529 
L 461.677139 106.091529 
L 461.928658 105.968683 
L 462.683215 105.968683 
L 462.808975 105.720343 
L 462.934734 108.427409 
L 463.186253 106.690783 
L 463.312013 106.690783 
L 463.563532 104.904325 
L 463.689291 104.872125 
L 464.06657 103.963644 
L 464.443849 103.740997 
L 464.695368 104.365727 
L 464.821127 104.713035 
L 464.946887 104.617218 
L 465.324165 104.597473 
L 465.575684 105.066267 
L 465.827203 104.466267 
L 466.204482 104.003792 
L 466.330242 103.370594 
L 466.456001 103.327691 
L 466.581761 102.633347 
L 466.70752 102.707586 
L 467.084799 102.151811 
L 467.210558 102.268495 
L 467.336318 102.197059 
L 467.587837 103.093193 
L 467.965116 103.378018 
L 468.216635 102.57895 
L 468.342394 102.422157 
L 468.468154 103.002441 
L 468.971192 102.608534 
L 469.34847 101.116253 
L 469.47423 101.116253 
L 469.851509 99.720455 
L 469.977268 99.607645 
L 470.228787 98.844107 
L 470.606066 98.670841 
L 470.857585 96.991926 
L 471.109104 96.376172 
L 471.486382 96.180088 
L 471.737902 96.793461 
L 471.863661 96.86882 
L 471.989421 96.175005 
L 472.366699 96.216467 
L 472.492459 96.004869 
L 472.618218 96.324439 
L 472.743978 96.105638 
L 472.869737 95.614589 
L 473.372775 95.437114 
L 473.750054 95.157273 
L 474.253092 94.788846 
L 474.378852 94.922528 
L 474.630371 95.604574 
L 475.007649 96.052715 
L 475.133409 95.320043 
L 475.259169 95.320824 
L 475.384928 95.577118 
L 475.887966 95.543034 
L 476.013726 95.293382 
L 476.139485 95.295906 
L 476.265245 95.503328 
L 476.391004 95.338725 
L 476.642523 95.338725 
L 476.768283 94.878188 
L 477.774359 94.878188 
L 478.025878 93.782865 
L 478.151638 93.263308 
L 478.277397 93.263308 
L 478.654676 93.604145 
L 478.780435 93.476743 
L 479.409233 94.163254 
L 479.534993 94.852044 
L 479.660752 94.28927 
L 479.912271 95.009925 
L 480.415309 95.748431 
L 480.541069 95.255049 
L 480.792588 96.151241 
L 481.169867 95.866603 
L 481.547145 95.150988 
L 481.672905 95.878106 
L 482.050183 96.024393 
L 482.175943 96.683078 
L 482.553221 95.295057 
L 482.9305 95.527474 
L 483.307779 94.690457 
L 483.433538 94.914517 
L 483.810817 94.778715 
L 484.062336 94.105649 
L 484.188095 93.986972 
L 484.313855 94.02972 
L 484.691134 93.957665 
L 484.942653 93.29662 
L 485.068412 92.620717 
L 485.194172 92.620717 
L 485.57145 93.757122 
L 485.69721 93.649763 
L 486.074488 92.484817 
L 486.451767 92.152911 
L 486.954805 92.282059 
L 487.457843 91.715141 
L 487.709362 92.225574 
L 488.2124 92.385462 
L 488.46392 91.693539 
L 489.092717 91.693539 
L 489.469996 90.398262 
L 489.595755 90.100084 
L 489.973034 90.011795 
L 490.224553 89.72923 
L 490.476072 89.989108 
L 490.853351 89.762628 
L 491.10487 89.135119 
L 491.356389 89.283467 
L 491.733667 89.247088 
L 492.110946 89.712707 
L 492.236706 89.473014 
L 492.613984 89.473014 
L 493.117022 88.522953 
L 493.494301 88.253346 
L 493.62006 88.318007 
L 493.87158 87.831386 
L 493.997339 87.915863 
L 494.374618 87.832848 
L 494.626137 87.531106 
L 494.877656 87.704178 
L 495.380694 87.428786 
L 495.506453 87.240881 
L 495.632213 87.267721 
L 496.135251 86.910106 
L 496.38677 86.202303 
L 496.638289 85.621763 
L 497.015568 85.489071 
L 497.141327 85.29046 
L 497.518606 85.727967 
L 497.895885 85.822337 
L 498.147404 85.286503 
L 498.398923 84.72756 
L 498.901961 84.343526 
L 499.15348 85.192242 
L 499.279239 85.299226 
L 499.656518 85.086909 
L 499.782278 85.253237 
L 499.908037 85.121906 
L 500.033797 85.283108 
L 500.159556 85.136005 
L 500.536835 84.433234 
L 500.914113 83.409771 
L 501.039873 83.335411 
L 501.417152 83.313471 
L 501.542911 83.450085 
L 501.668671 83.114073 
L 501.79443 83.403326 
L 501.92019 82.917443 
L 502.423228 83.432795 
L 503.303545 80.747692 
L 503.429304 81.615242 
L 503.555064 81.263385 
L 503.680823 81.346157 
L 503.932342 81.346157 
L 504.058102 80.92867 
L 504.183861 81.446798 
L 504.309621 81.446798 
L 504.43538 82.788849 
L 504.56114 80.832231 
L 504.938419 80.774582 
L 505.189938 82.003329 
L 505.441457 80.254025 
L 505.818735 80.221344 
L 505.944495 80.061728 
L 506.070254 79.357391 
L 506.321773 80.800453 
L 506.699052 80.428682 
L 506.824812 80.84594 
L 507.076331 80.350593 
L 507.20209 80.937503 
L 507.453609 80.937503 
L 507.705128 78.684636 
L 508.711205 78.684636 
L 508.836964 76.741272 
L 508.962724 77.953019 
L 509.340002 77.861013 
L 509.465762 79.073398 
L 509.591521 78.197748 
L 509.717281 78.532591 
L 509.84304 79.577194 
L 510.220319 79.47107 
L 510.346078 78.092819 
L 510.471838 78.27657 
L 510.597598 77.988618 
L 510.723357 77.091763 
L 511.100636 76.189648 
L 511.226395 76.381436 
L 511.352155 75.025344 
L 511.477914 75.363075 
L 511.603674 75.325746 
L 511.980952 74.899342 
L 512.106712 75.656792 
L 512.232471 75.239594 
L 512.358231 74.423894 
L 512.483991 74.723475 
L 512.861269 74.509033 
L 512.987029 74.79997 
L 513.112788 74.637779 
L 513.238548 73.731277 
L 513.364307 74.550693 
L 513.741586 74.82835 
L 513.867345 75.399756 
L 513.993105 75.048805 
L 514.118864 75.329747 
L 514.244624 76.736359 
L 514.621903 76.541885 
L 514.747662 76.043638 
L 514.999181 76.935017 
L 515.124941 76.500327 
L 515.37646 76.500327 
L 515.502219 75.731204 
L 515.879498 76.797608 
L 516.005258 75.999205 
L 516.382536 75.6509 
L 516.508296 76.000793 
L 516.634055 75.538312 
L 516.759815 75.568147 
L 516.885574 75.031413 
L 517.262853 75.491278 
L 517.388612 76.22255 
L 517.514372 74.836647 
L 517.640131 74.694687 
L 517.765891 74.074062 
L 518.268929 72.999737 
L 518.520448 71.956467 
L 518.646208 71.896987 
L 519.023486 72.548853 
L 519.275005 72.167679 
L 519.778044 72.167679 
L 520.029563 69.80814 
L 520.281082 69.631106 
L 520.406841 68.694603 
L 520.78412 67.866403 
L 520.909879 68.340067 
L 521.664437 66.877973 
L 521.790196 66.943584 
L 522.167475 64.90095 
L 522.544753 64.722345 
L 522.670513 64.510047 
L 522.796272 63.750668 
L 522.922032 64.008438 
L 523.047791 64.975126 
L 523.173551 64.975126 
L 523.42507 67.019517 
L 523.676589 65.341835 
L 523.802349 65.839268 
L 523.928108 65.523168 
L 524.431146 63.993886 
L 524.556906 63.862995 
L 524.682665 63.431082 
L 524.808425 64.149963 
L 526.06602 64.149963 
L 526.19178 62.988149 
L 526.317539 62.907033 
L 526.443299 63.611732 
L 526.694818 63.59917 
L 526.946337 62.913801 
L 527.197856 64.694765 
L 527.449375 64.156058 
L 527.826654 64.952482 
L 528.078173 63.72251 
L 528.203932 63.958116 
L 528.329692 64.561227 
L 528.70697 64.989622 
L 528.83273 66.000461 
L 528.958489 65.279774 
L 529.084249 66.542695 
L 529.210009 66.573292 
L 529.587287 68.405598 
L 529.838806 65.813611 
L 529.964566 66.598678 
L 530.090325 66.026199 
L 530.467604 65.812323 
L 530.593363 66.968701 
L 530.719123 65.920175 
L 530.844883 66.504205 
L 530.970642 66.185856 
L 531.347921 66.185856 
L 531.47368 65.574149 
L 531.59944 63.151173 
L 531.725199 63.093871 
L 531.850959 62.552732 
L 532.228237 62.605884 
L 532.353997 61.837212 
L 532.479756 61.846617 
L 532.731276 60.14647 
L 533.234314 59.235991 
L 533.360073 58.536957 
L 533.611592 59.104731 
L 533.988871 59.014992 
L 534.11463 59.1734 
L 534.366149 57.110156 
L 534.994947 57.110156 
L 535.120707 56.132101 
L 535.497985 56.076925 
L 535.749504 55.080294 
L 535.875264 55.329481 
L 536.001023 54.587798 
L 536.252542 56.30179 
L 536.629821 56.027092 
L 536.755581 54.926402 
L 536.88134 54.896823 
L 537.0071 56.153667 
L 537.132859 55.406066 
L 537.510138 54.662264 
L 537.635897 54.162877 
L 537.761657 54.53996 
L 537.887416 53.836042 
L 538.013176 54.723498 
L 538.264695 54.723498 
L 538.390455 54.344364 
L 538.390455 54.344364 
" clip-path="url(#pfc81b8e9cb)" style="fill: none; stroke: #348dc1; stroke-width: 1.5; stroke-linecap: round"/>
   </g>
   <g id="line2d_15">
    <path d="M 47.966 297.460019 
L 561.744 297.460019 
" clip-path="url(#pfc81b8e9cb)" style="fill: none; stroke-dasharray: 3.7,1.6; stroke-dashoffset: 0; stroke: #000000"/>
   </g>
  </g>
  <g id="text_13">
   <!-- Cumulative Returns -->
   <g transform="translate(221.879531 31.620938) scale(0.14 -0.14)">
    <defs>
     <path id="Arial-BoldMT-43" d="M 3397 1684 
L 4294 1400 
Q 4088 650 3608 286 
Q 3128 -78 2391 -78 
Q 1478 -78 890 545 
Q 303 1169 303 2250 
Q 303 3394 893 4026 
Q 1484 4659 2447 4659 
Q 3288 4659 3813 4163 
Q 4125 3869 4281 3319 
L 3366 3100 
Q 3284 3456 3026 3662 
Q 2769 3869 2400 3869 
Q 1891 3869 1573 3503 
Q 1256 3138 1256 2319 
Q 1256 1450 1568 1081 
Q 1881 713 2381 713 
Q 2750 713 3015 947 
Q 3281 1181 3397 1684 
z
" transform="scale(0.015625)"/>
     <path id="Arial-BoldMT-75" d="M 2644 0 
L 2644 497 
Q 2463 231 2167 78 
Q 1872 -75 1544 -75 
Q 1209 -75 943 72 
Q 678 219 559 484 
Q 441 750 441 1219 
L 441 3319 
L 1319 3319 
L 1319 1794 
Q 1319 1094 1367 936 
Q 1416 778 1544 686 
Q 1672 594 1869 594 
Q 2094 594 2272 717 
Q 2450 841 2515 1023 
Q 2581 1206 2581 1919 
L 2581 3319 
L 3459 3319 
L 3459 0 
L 2644 0 
z
" transform="scale(0.015625)"/>
     <path id="Arial-BoldMT-6d" d="M 394 3319 
L 1203 3319 
L 1203 2866 
Q 1638 3394 2238 3394 
Q 2556 3394 2790 3262 
Q 3025 3131 3175 2866 
Q 3394 3131 3647 3262 
Q 3900 3394 4188 3394 
Q 4553 3394 4806 3245 
Q 5059 3097 5184 2809 
Q 5275 2597 5275 2122 
L 5275 0 
L 4397 0 
L 4397 1897 
Q 4397 2391 4306 2534 
Q 4184 2722 3931 2722 
Q 3747 2722 3584 2609 
Q 3422 2497 3350 2280 
Q 3278 2063 3278 1594 
L 3278 0 
L 2400 0 
L 2400 1819 
Q 2400 2303 2353 2443 
Q 2306 2584 2207 2653 
Q 2109 2722 1941 2722 
Q 1738 2722 1575 2612 
Q 1413 2503 1342 2297 
Q 1272 2091 1272 1613 
L 1272 0 
L 394 0 
L 394 3319 
z
" transform="scale(0.015625)"/>
     <path id="Arial-BoldMT-6c" d="M 459 0 
L 459 4581 
L 1338 4581 
L 1338 0 
L 459 0 
z
" transform="scale(0.015625)"/>
     <path id="Arial-BoldMT-61" d="M 1116 2306 
L 319 2450 
Q 453 2931 781 3162 
Q 1109 3394 1756 3394 
Q 2344 3394 2631 3255 
Q 2919 3116 3036 2902 
Q 3153 2688 3153 2116 
L 3144 1091 
Q 3144 653 3186 445 
Q 3228 238 3344 0 
L 2475 0 
Q 2441 88 2391 259 
Q 2369 338 2359 363 
Q 2134 144 1878 34 
Q 1622 -75 1331 -75 
Q 819 -75 523 203 
Q 228 481 228 906 
Q 228 1188 362 1408 
Q 497 1628 739 1745 
Q 981 1863 1438 1950 
Q 2053 2066 2291 2166 
L 2291 2253 
Q 2291 2506 2166 2614 
Q 2041 2722 1694 2722 
Q 1459 2722 1328 2630 
Q 1197 2538 1116 2306 
z
M 2291 1594 
Q 2122 1538 1756 1459 
Q 1391 1381 1278 1306 
Q 1106 1184 1106 997 
Q 1106 813 1243 678 
Q 1381 544 1594 544 
Q 1831 544 2047 700 
Q 2206 819 2256 991 
Q 2291 1103 2291 1419 
L 2291 1594 
z
" transform="scale(0.015625)"/>
     <path id="Arial-BoldMT-74" d="M 1981 3319 
L 1981 2619 
L 1381 2619 
L 1381 1281 
Q 1381 875 1398 808 
Q 1416 741 1477 697 
Q 1538 653 1625 653 
Q 1747 653 1978 738 
L 2053 56 
Q 1747 -75 1359 -75 
Q 1122 -75 931 4 
Q 741 84 652 211 
Q 563 338 528 553 
Q 500 706 500 1172 
L 500 2619 
L 97 2619 
L 97 3319 
L 500 3319 
L 500 3978 
L 1381 4491 
L 1381 3319 
L 1981 3319 
z
" transform="scale(0.015625)"/>
     <path id="Arial-BoldMT-69" d="M 459 3769 
L 459 4581 
L 1338 4581 
L 1338 3769 
L 459 3769 
z
M 459 0 
L 459 3319 
L 1338 3319 
L 1338 0 
L 459 0 
z
" transform="scale(0.015625)"/>
     <path id="Arial-BoldMT-76" d="M 1372 0 
L 34 3319 
L 956 3319 
L 1581 1625 
L 1763 1059 
Q 1834 1275 1853 1344 
Q 1897 1484 1947 1625 
L 2578 3319 
L 3481 3319 
L 2163 0 
L 1372 0 
z
" transform="scale(0.015625)"/>
     <path id="Arial-BoldMT-65" d="M 2381 1056 
L 3256 909 
Q 3088 428 2723 176 
Q 2359 -75 1813 -75 
Q 947 -75 531 491 
Q 203 944 203 1634 
Q 203 2459 634 2926 
Q 1066 3394 1725 3394 
Q 2466 3394 2894 2905 
Q 3322 2416 3303 1406 
L 1103 1406 
Q 1113 1016 1316 798 
Q 1519 581 1822 581 
Q 2028 581 2168 693 
Q 2309 806 2381 1056 
z
M 2431 1944 
Q 2422 2325 2234 2523 
Q 2047 2722 1778 2722 
Q 1491 2722 1303 2513 
Q 1116 2303 1119 1944 
L 2431 1944 
z
" transform="scale(0.015625)"/>
     <path id="Arial-BoldMT-20" transform="scale(0.015625)"/>
     <path id="Arial-BoldMT-52" d="M 469 0 
L 469 4581 
L 2416 4581 
Q 3150 4581 3483 4457 
Q 3816 4334 4016 4018 
Q 4216 3703 4216 3297 
Q 4216 2781 3912 2445 
Q 3609 2109 3006 2022 
Q 3306 1847 3501 1637 
Q 3697 1428 4028 894 
L 4588 0 
L 3481 0 
L 2813 997 
Q 2456 1531 2325 1670 
Q 2194 1809 2047 1861 
Q 1900 1913 1581 1913 
L 1394 1913 
L 1394 0 
L 469 0 
z
M 1394 2644 
L 2078 2644 
Q 2744 2644 2909 2700 
Q 3075 2756 3169 2893 
Q 3263 3031 3263 3238 
Q 3263 3469 3139 3611 
Q 3016 3753 2791 3791 
Q 2678 3806 2116 3806 
L 1394 3806 
L 1394 2644 
z
" transform="scale(0.015625)"/>
     <path id="Arial-BoldMT-72" d="M 1300 0 
L 422 0 
L 422 3319 
L 1238 3319 
L 1238 2847 
Q 1447 3181 1614 3287 
Q 1781 3394 1994 3394 
Q 2294 3394 2572 3228 
L 2300 2463 
Q 2078 2606 1888 2606 
Q 1703 2606 1575 2504 
Q 1447 2403 1373 2137 
Q 1300 1872 1300 1025 
L 1300 0 
z
" transform="scale(0.015625)"/>
     <path id="Arial-BoldMT-6e" d="M 3478 0 
L 2600 0 
L 2600 1694 
Q 2600 2231 2544 2389 
Q 2488 2547 2361 2634 
Q 2234 2722 2056 2722 
Q 1828 2722 1647 2597 
Q 1466 2472 1398 2265 
Q 1331 2059 1331 1503 
L 1331 0 
L 453 0 
L 453 3319 
L 1269 3319 
L 1269 2831 
Q 1703 3394 2363 3394 
Q 2653 3394 2893 3289 
Q 3134 3184 3257 3021 
Q 3381 2859 3429 2653 
Q 3478 2447 3478 2063 
L 3478 0 
z
" transform="scale(0.015625)"/>
     <path id="Arial-BoldMT-73" d="M 150 947 
L 1031 1081 
Q 1088 825 1259 692 
Q 1431 559 1741 559 
Q 2081 559 2253 684 
Q 2369 772 2369 919 
Q 2369 1019 2306 1084 
Q 2241 1147 2013 1200 
Q 950 1434 666 1628 
Q 272 1897 272 2375 
Q 272 2806 612 3100 
Q 953 3394 1669 3394 
Q 2350 3394 2681 3172 
Q 3013 2950 3138 2516 
L 2309 2363 
Q 2256 2556 2107 2659 
Q 1959 2763 1684 2763 
Q 1338 2763 1188 2666 
Q 1088 2597 1088 2488 
Q 1088 2394 1175 2328 
Q 1294 2241 1995 2081 
Q 2697 1922 2975 1691 
Q 3250 1456 3250 1038 
Q 3250 581 2869 253 
Q 2488 -75 1741 -75 
Q 1063 -75 667 200 
Q 272 475 150 947 
z
" transform="scale(0.015625)"/>
    </defs>
    <use xlink:href="#Arial-BoldMT-43"/>
    <use xlink:href="#Arial-BoldMT-75" transform="translate(72.216797 0)"/>
    <use xlink:href="#Arial-BoldMT-6d" transform="translate(133.300781 0)"/>
    <use xlink:href="#Arial-BoldMT-75" transform="translate(222.216797 0)"/>
    <use xlink:href="#Arial-BoldMT-6c" transform="translate(283.300781 0)"/>
    <use xlink:href="#Arial-BoldMT-61" transform="translate(311.083984 0)"/>
    <use xlink:href="#Arial-BoldMT-74" transform="translate(366.699219 0)"/>
    <use xlink:href="#Arial-BoldMT-69" transform="translate(400 0)"/>
    <use xlink:href="#Arial-BoldMT-76" transform="translate(427.783203 0)"/>
    <use xlink:href="#Arial-BoldMT-65" transform="translate(483.398438 0)"/>
    <use xlink:href="#Arial-BoldMT-20" transform="translate(539.013672 0)"/>
    <use xlink:href="#Arial-BoldMT-52" transform="translate(566.796875 0)"/>
    <use xlink:href="#Arial-BoldMT-65" transform="translate(639.013672 0)"/>
    <use xlink:href="#Arial-BoldMT-74" transform="translate(694.628906 0)"/>
    <use xlink:href="#Arial-BoldMT-75" transform="translate(727.929688 0)"/>
    <use xlink:href="#Arial-BoldMT-72" transform="translate(789.013672 0)"/>
    <use xlink:href="#Arial-BoldMT-6e" transform="translate(827.929688 0)"/>
    <use xlink:href="#Arial-BoldMT-73" transform="translate(889.013672 0)"/>
   </g>
  </g>
 </g>
 <defs>
  <clipPath id="pfc81b8e9cb">
   <rect x="47.966" y="41.472" width="513.778" height="272.008926"/>
  </clipPath>
 </defs>
</svg>