<svg xmlns:xlink="http://www.w3.org/1999/xlink" width="576pt" height="360pt" viewBox="0 0 576 360" xmlns="http://www.w3.org/2000/svg" version="1.1">
 <metadata>
  <rdf:RDF xmlns:dc="http://purl.org/dc/elements/1.1/" xmlns:cc="http://creativecommons.org/ns#" xmlns:rdf="http://www.w3.org/1999/02/22-rdf-syntax-ns#">
   <cc:Work>
    <dc:type rdf:resource="http://purl.org/dc/dcmitype/StillImage"/>
    <dc:date>2026-06-03T17:37:43.804992</dc:date>
    <dc:format>image/svg+xml</dc:format>
    <dc:creator>
     <cc:Agent>
      <dc:title>Matplotlib v3.10.8, https://matplotlib.org/</dc:title>
     </cc:Agent>
    </dc:creator>
   </cc:Work>
  </rdf:RDF>
 </metadata>
 <defs>
  <style type="text/css">*{stroke-linejoin: round; stroke-linecap: butt}</style>
 </defs>
 <g id="figure_1">
  <g id="patch_1">
   <path d="M 0 360 
L 576 360 
L 576 0 
L 0 0 
z
" style="fill: #ffffff"/>
  </g>
  <g id="axes_1">
   <g id="patch_2">
    <path d="M 47.966 313.435926 
L 561.744 313.435926 
L 561.744 41.472 
L 47.966 41.472 
z
" style="fill: #ffffff"/>
   </g>
   <g id="matplotlib.axis_1">
    <g id="xtick_1">
     <g id="line2d_1">
      <path d="M 94.115492 313.435926 
L 94.115492 41.472 
" clip-path="url(#p7c989f0242)" style="fill: none; stroke: #dddddd; stroke-width: 0.5; stroke-linecap: round"/>
     </g>
     <g id="text_1">
      <!-- 2019 -->
      <g style="fill: #666666" transform="translate(69.604035 343.894) rotate(-30) scale(0.121 -0.121)">
       <defs>
        <path id="ArialMT-32" d="M 3222 541 
L 3222 0 
L 194 0 
Q 188 203 259 391 
Q 375 700 629 1000 
Q 884 1300 1366 1694 
Q 2113 2306 2375 2664 
Q 2638 3022 2638 3341 
Q 2638 3675 2398 3904 
Q 2159 4134 1775 4134 
Q 1369 4134 1125 3890 
Q 881 3647 878 3216 
L 300 3275 
Q 359 3922 746 4261 
Q 1134 4600 1788 4600 
Q 2447 4600 2831 4234 
Q 3216 3869 3216 3328 
Q 3216 3053 3103 2787 
Q 2991 2522 2730 2228 
Q 2469 1934 1863 1422 
Q 1356 997 1212 845 
Q 1069 694 975 541 
L 3222 541 
z
" transform="scale(0.015625)"/>
        <path id="ArialMT-30" d="M 266 2259 
Q 266 3072 433 3567 
Q 600 4063 929 4331 
Q 1259 4600 1759 4600 
Q 2128 4600 2406 4451 
Q 2684 4303 2865 4023 
Q 3047 3744 3150 3342 
Q 3253 2941 3253 2259 
Q 3253 1453 3087 958 
Q 2922 463 2592 192 
Q 2263 -78 1759 -78 
Q 1097 -78 719 397 
Q 266 969 266 2259 
z
M 844 2259 
Q 844 1131 1108 757 
Q 1372 384 1759 384 
Q 2147 384 2411 759 
Q 2675 1134 2675 2259 
Q 2675 3391 2411 3762 
Q 2147 4134 1753 4134 
Q 1366 4134 1134 3806 
Q 844 3388 844 2259 
z
" transform="scale(0.015625)"/>
        <path id="ArialMT-31" d="M 2384 0 
L 1822 0 
L 1822 3584 
Q 1619 3391 1289 3197 
Q 959 3003 697 2906 
L 697 3450 
Q 1169 3672 1522 3987 
Q 1875 4303 2022 4600 
L 2384 4600 
L 2384 0 
z
" transform="scale(0.015625)"/>
        <path id="ArialMT-39" d="M 350 1059 
L 891 1109 
Q 959 728 1153 556 
Q 1347 384 1650 384 
Q 1909 384 2104 503 
Q 2300 622 2425 820 
Q 2550 1019 2634 1356 
Q 2719 1694 2719 2044 
Q 2719 2081 2716 2156 
Q 2547 1888 2255 1720 
Q 1963 1553 1622 1553 
Q 1053 1553 659 1965 
Q 266 2378 266 3053 
Q 266 3750 677 4175 
Q 1088 4600 1706 4600 
Q 2153 4600 2523 4359 
Q 2894 4119 3086 3673 
Q 3278 3228 3278 2384 
Q 3278 1506 3087 986 
Q 2897 466 2520 194 
Q 2144 -78 1638 -78 
Q 1100 -78 759 220 
Q 419 519 350 1059 
z
M 2653 3081 
Q 2653 3566 2395 3850 
Q 2138 4134 1775 4134 
Q 1400 4134 1122 3828 
Q 844 3522 844 3034 
Q 844 2597 1108 2323 
Q 1372 2050 1759 2050 
Q 2150 2050 2401 2323 
Q 2653 2597 2653 3081 
z
" transform="scale(0.015625)"/>
       </defs>
       <use xlink:href="#ArialMT-32"/>
       <use xlink:href="#ArialMT-30" transform="translate(55.615234 0)"/>
       <use xlink:href="#ArialMT-31" transform="translate(111.230469 0)"/>
       <use xlink:href="#ArialMT-39" transform="translate(166.845703 0)"/>
      </g>
     </g>
    </g>
    <g id="xtick_2">
     <g id="line2d_2">
      <path d="M 153.975352 313.435926 
L 153.975352 41.472 
" clip-path="url(#p7c989f0242)" style="fill: none; stroke: #dddddd; stroke-width: 0.5; stroke-linecap: round"/>
     </g>
     <g id="text_2">
      <!-- 2020 -->
      <g style="fill: #666666" transform="translate(129.463895 343.894) rotate(-30) scale(0.121 -0.121)">
       <use xlink:href="#ArialMT-32"/>
       <use xlink:href="#ArialMT-30" transform="translate(55.615234 0)"/>
       <use xlink:href="#ArialMT-32" transform="translate(111.230469 0)"/>
       <use xlink:href="#ArialMT-30" transform="translate(166.845703 0)"/>
      </g>
     </g>
    </g>
    <g id="xtick_3">
     <g id="line2d_3">
      <path d="M 213.999212 313.435926 
L 213.999212 41.472 
" clip-path="url(#p7c989f0242)" style="fill: none; stroke: #dddddd; stroke-width: 0.5; stroke-linecap: round"/>
     </g>
     <g id="text_3">
      <!-- 2021 -->
      <g style="fill: #666666" transform="translate(189.487755 343.894) rotate(-30) scale(0.121 -0.121)">
       <use xlink:href="#ArialMT-32"/>
       <use xlink:href="#ArialMT-30" transform="translate(55.615234 0)"/>
       <use xlink:href="#ArialMT-32" transform="translate(111.230469 0)"/>
       <use xlink:href="#ArialMT-31" transform="translate(166.845703 0)"/>
      </g>
     </g>
    </g>
    <g id="xtick_4">
     <g id="line2d_4">
      <path d="M 273.859072 313.435926 
L 273.859072 41.472 
" clip-path="url(#p7c989f0242)" style="fill: none; stroke: #dddddd; stroke-width: 0.5; stroke-linecap: round"/>
     </g>
     <g id="text_4">
      <!-- 2022 -->
      <g style="fill: #666666" transform="translate(249.347615 343.894) rotate(-30) scale(0.121 -0.121)">
       <use xlink:href="#ArialMT-32"/>
       <use xlink:href="#ArialMT-30" transform="translate(55.615234 0)"/>
       <use xlink:href="#ArialMT-32" transform="translate(111.230469 0)"/>
       <use xlink:href="#ArialMT-32" transform="translate(166.845703 0)"/>
      </g>
     </g>
    </g>
    <g id="xtick_5">
     <g id="line2d_5">
      <path d="M 333.718933 313.435926 
L 333.718933 41.472 
" clip-path="url(#p7c989f0242)" style="fill: none; stroke: #dddddd; stroke-width: 0.5; stroke-linecap: round"/>
     </g>
     <g id="text_5">
      <!-- 2023 -->
      <g style="fill: #666666" transform="translate(309.207475 343.894) rotate(-30) scale(0.121 -0.121)">
       <defs>
        <path id="ArialMT-33" d="M 269 1209 
L 831 1284 
Q 928 806 1161 595 
Q 1394 384 1728 384 
Q 2125 384 2398 659 
Q 2672 934 2672 1341 
Q 2672 1728 2419 1979 
Q 2166 2231 1775 2231 
Q 1616 2231 1378 2169 
L 1441 2663 
Q 1497 2656 1531 2656 
Q 1891 2656 2178 2843 
Q 2466 3031 2466 3422 
Q 2466 3731 2256 3934 
Q 2047 4138 1716 4138 
Q 1388 4138 1169 3931 
Q 950 3725 888 3313 
L 325 3413 
Q 428 3978 793 4289 
Q 1159 4600 1703 4600 
Q 2078 4600 2393 4439 
Q 2709 4278 2876 4000 
Q 3044 3722 3044 3409 
Q 3044 3113 2884 2869 
Q 2725 2625 2413 2481 
Q 2819 2388 3044 2092 
Q 3269 1797 3269 1353 
Q 3269 753 2831 336 
Q 2394 -81 1725 -81 
Q 1122 -81 723 278 
Q 325 638 269 1209 
z
" transform="scale(0.015625)"/>
       </defs>
       <use xlink:href="#ArialMT-32"/>
       <use xlink:href="#ArialMT-30" transform="translate(55.615234 0)"/>
       <use xlink:href="#ArialMT-32" transform="translate(111.230469 0)"/>
       <use xlink:href="#ArialMT-33" transform="translate(166.845703 0)"/>
      </g>
     </g>
    </g>
    <g id="xtick_6">
     <g id="line2d_6">
      <path d="M 393.578793 313.435926 
L 393.578793 41.472 
" clip-path="url(#p7c989f0242)" style="fill: none; stroke: #dddddd; stroke-width: 0.5; stroke-linecap: round"/>
     </g>
     <g id="text_6">
      <!-- 2024 -->
      <g style="fill: #666666" transform="translate(369.067336 343.894) rotate(-30) scale(0.121 -0.121)">
       <defs>
        <path id="ArialMT-34" d="M 2069 0 
L 2069 1097 
L 81 1097 
L 81 1613 
L 2172 4581 
L 2631 4581 
L 2631 1613 
L 3250 1613 
L 3250 1097 
L 2631 1097 
L 2631 0 
L 2069 0 
z
M 2069 1613 
L 2069 3678 
L 634 1613 
L 2069 1613 
z
" transform="scale(0.015625)"/>
       </defs>
       <use xlink:href="#ArialMT-32"/>
       <use xlink:href="#ArialMT-30" transform="translate(55.615234 0)"/>
       <use xlink:href="#ArialMT-32" transform="translate(111.230469 0)"/>
       <use xlink:href="#ArialMT-34" transform="translate(166.845703 0)"/>
      </g>
     </g>
    </g>
    <g id="xtick_7">
     <g id="line2d_7">
      <path d="M 453.602653 313.435926 
L 453.602653 41.472 
" clip-path="url(#p7c989f0242)" style="fill: none; stroke: #dddddd; stroke-width: 0.5; stroke-linecap: round"/>
     </g>
     <g id="text_7">
      <!-- 2025 -->
      <g style="fill: #666666" transform="translate(429.091195 343.894) rotate(-30) scale(0.121 -0.121)">
       <defs>
        <path id="ArialMT-35" d="M 266 1200 
L 856 1250 
Q 922 819 1161 601 
Q 1400 384 1738 384 
Q 2144 384 2425 690 
Q 2706 997 2706 1503 
Q 2706 1984 2436 2262 
Q 2166 2541 1728 2541 
Q 1456 2541 1237 2417 
Q 1019 2294 894 2097 
L 366 2166 
L 809 4519 
L 3088 4519 
L 3088 3981 
L 1259 3981 
L 1013 2750 
Q 1425 3038 1878 3038 
Q 2478 3038 2890 2622 
Q 3303 2206 3303 1553 
Q 3303 931 2941 478 
Q 2500 -78 1738 -78 
Q 1113 -78 717 272 
Q 322 622 266 1200 
z
" transform="scale(0.015625)"/>
       </defs>
       <use xlink:href="#ArialMT-32"/>
       <use xlink:href="#ArialMT-30" transform="translate(55.615234 0)"/>
       <use xlink:href="#ArialMT-32" transform="translate(111.230469 0)"/>
       <use xlink:href="#ArialMT-35" transform="translate(166.845703 0)"/>
      </g>
     </g>
    </g>
    <g id="xtick_8">
     <g id="line2d_8">
      <path d="M 513.462513 313.435926 
L 513.462513 41.472 
" clip-path="url(#p7c989f0242)" style="fill: none; stroke: #dddddd; stroke-width: 0.5; stroke-linecap: round"/>
     </g>
     <g id="text_8">
      <!-- 2026 -->
      <g style="fill: #666666" transform="translate(488.951056 343.894) rotate(-30) scale(0.121 -0.121)">
       <defs>
        <path id="ArialMT-36" d="M 3184 3459 
L 2625 3416 
Q 2550 3747 2413 3897 
Q 2184 4138 1850 4138 
Q 1581 4138 1378 3988 
Q 1113 3794 959 3422 
Q 806 3050 800 2363 
Q 1003 2672 1297 2822 
Q 1591 2972 1913 2972 
Q 2475 2972 2870 2558 
Q 3266 2144 3266 1488 
Q 3266 1056 3080 686 
Q 2894 316 2569 119 
Q 2244 -78 1831 -78 
Q 1128 -78 684 439 
Q 241 956 241 2144 
Q 241 3472 731 4075 
Q 1159 4600 1884 4600 
Q 2425 4600 2770 4297 
Q 3116 3994 3184 3459 
z
M 888 1484 
Q 888 1194 1011 928 
Q 1134 663 1356 523 
Q 1578 384 1822 384 
Q 2178 384 2434 671 
Q 2691 959 2691 1453 
Q 2691 1928 2437 2201 
Q 2184 2475 1800 2475 
Q 1419 2475 1153 2201 
Q 888 1928 888 1484 
z
" transform="scale(0.015625)"/>
       </defs>
       <use xlink:href="#ArialMT-32"/>
       <use xlink:href="#ArialMT-30" transform="translate(55.615234 0)"/>
       <use xlink:href="#ArialMT-32" transform="translate(111.230469 0)"/>
       <use xlink:href="#ArialMT-36" transform="translate(166.845703 0)"/>
      </g>
     </g>
    </g>
   </g>
   <g id="matplotlib.axis_2">
    <g id="ytick_1">
     <g id="line2d_9">
      <path d="M 47.966 299.751299 
L 561.744 299.751299 
" clip-path="url(#p7c989f0242)" style="fill: none; stroke: #dddddd; stroke-width: 0.5; stroke-linecap: round"/>
     </g>
     <g id="text_9">
      <!-- 0% -->
      <g style="fill: #666666" transform="translate(20.977719 304.081776) scale(0.121 -0.121)">
       <defs>
        <path id="ArialMT-25" d="M 372 3481 
Q 372 3972 619 4315 
Q 866 4659 1334 4659 
Q 1766 4659 2048 4351 
Q 2331 4044 2331 3447 
Q 2331 2866 2045 2552 
Q 1759 2238 1341 2238 
Q 925 2238 648 2547 
Q 372 2856 372 3481 
z
M 1350 4272 
Q 1141 4272 1002 4090 
Q 863 3909 863 3425 
Q 863 2984 1003 2804 
Q 1144 2625 1350 2625 
Q 1563 2625 1702 2806 
Q 1841 2988 1841 3469 
Q 1841 3913 1700 4092 
Q 1559 4272 1350 4272 
z
M 1353 -169 
L 3859 4659 
L 4316 4659 
L 1819 -169 
L 1353 -169 
z
M 3334 1075 
Q 3334 1569 3581 1911 
Q 3828 2253 4300 2253 
Q 4731 2253 5014 1945 
Q 5297 1638 5297 1041 
Q 5297 459 5011 145 
Q 4725 -169 4303 -169 
Q 3888 -169 3611 142 
Q 3334 453 3334 1075 
z
M 4316 1866 
Q 4103 1866 3964 1684 
Q 3825 1503 3825 1019 
Q 3825 581 3965 400 
Q 4106 219 4313 219 
Q 4528 219 4667 400 
Q 4806 581 4806 1063 
Q 4806 1506 4665 1686 
Q 4525 1866 4316 1866 
z
" transform="scale(0.015625)"/>
       </defs>
       <use xlink:href="#ArialMT-30"/>
       <use xlink:href="#ArialMT-25" transform="translate(55.615234 0)"/>
      </g>
     </g>
    </g>
    <g id="ytick_2">
     <g id="line2d_10">
      <path d="M 47.966 265.571965 
L 561.744 265.571965 
" clip-path="url(#p7c989f0242)" style="fill: none; stroke: #dddddd; stroke-width: 0.5; stroke-linecap: round"/>
     </g>
     <g id="text_10">
      <!-- 10% -->
      <g style="fill: #666666" transform="translate(14.248984 269.902441) scale(0.121 -0.121)">
       <use xlink:href="#ArialMT-31"/>
       <use xlink:href="#ArialMT-30" transform="translate(55.615234 0)"/>
       <use xlink:href="#ArialMT-25" transform="translate(111.230469 0)"/>
      </g>
     </g>
    </g>
    <g id="ytick_3">
     <g id="line2d_11">
      <path d="M 47.966 231.39263 
L 561.744 231.39263 
" clip-path="url(#p7c989f0242)" style="fill: none; stroke: #dddddd; stroke-width: 0.5; stroke-linecap: round"/>
     </g>
     <g id="text_11">
      <!-- 20% -->
      <g style="fill: #666666" transform="translate(14.248984 235.723107) scale(0.121 -0.121)">
       <use xlink:href="#ArialMT-32"/>
       <use xlink:href="#ArialMT-30" transform="translate(55.615234 0)"/>
       <use xlink:href="#ArialMT-25" transform="translate(111.230469 0)"/>
      </g>
     </g>
    </g>
    <g id="ytick_4">
     <g id="line2d_12">
      <path d="M 47.966 197.213296 
L 561.744 197.213296 
" clip-path="url(#p7c989f0242)" style="fill: none; stroke: #dddddd; stroke-width: 0.5; stroke-linecap: round"/>
     </g>
     <g id="text_12">
      <!-- 30% -->
      <g style="fill: #666666" transform="translate(14.248984 201.543772) scale(0.121 -0.121)">
       <use xlink:href="#ArialMT-33"/>
       <use xlink:href="#ArialMT-30" transform="translate(55.615234 0)"/>
       <use xlink:href="#ArialMT-25" transform="translate(111.230469 0)"/>
      </g>
     </g>
    </g>
    <g id="ytick_5">
     <g id="line2d_13">
      <path d="M 47.966 163.033961 
L 561.744 163.033961 
" clip-path="url(#p7c989f0242)" style="fill: none; stroke: #dddddd; stroke-width: 0.5; stroke-linecap: round"/>
     </g>
     <g id="text_13">
      <!-- 40% -->
      <g style="fill: #666666" transform="translate(14.248984 167.364438) scale(0.121 -0.121)">
       <use xlink:href="#ArialMT-34"/>
       <use xlink:href="#ArialMT-30" transform="translate(55.615234 0)"/>
       <use xlink:href="#ArialMT-25" transform="translate(111.230469 0)"/>
      </g>
     </g>
    </g>
    <g id="ytick_6">
     <g id="line2d_14">
      <path d="M 47.966 128.854627 
L 561.744 128.854627 
" clip-path="url(#p7c989f0242)" style="fill: none; stroke: #dddddd; stroke-width: 0.5; stroke-linecap: round"/>
     </g>
     <g id="text_14">
      <!-- 50% -->
      <g style="fill: #666666" transform="translate(14.248984 133.185104) scale(0.121 -0.121)">
       <use xlink:href="#ArialMT-35"/>
       <use xlink:href="#ArialMT-30" transform="translate(55.615234 0)"/>
       <use xlink:href="#ArialMT-25" transform="translate(111.230469 0)"/>
      </g>
     </g>
    </g>
    <g id="ytick_7">
     <g id="line2d_15">
      <path d="M 47.966 94.675293 
L 561.744 94.675293 
" clip-path="url(#p7c989f0242)" style="fill: none; stroke: #dddddd; stroke-width: 0.5; stroke-linecap: round"/>
     </g>
     <g id="text_15">
      <!-- 60% -->
      <g style="fill: #666666" transform="translate(14.248984 99.005769) scale(0.121 -0.121)">
       <use xlink:href="#ArialMT-36"/>
       <use xlink:href="#ArialMT-30" transform="translate(55.615234 0)"/>
       <use xlink:href="#ArialMT-25" transform="translate(111.230469 0)"/>
      </g>
     </g>
    </g>
    <g id="ytick_8">
     <g id="line2d_16">
      <path d="M 47.966 60.495958 
L 561.744 60.495958 
" clip-path="url(#p7c989f0242)" style="fill: none; stroke: #dddddd; stroke-width: 0.5; stroke-linecap: round"/>
     </g>
     <g id="text_16">
      <!-- 70% -->
      <g style="fill: #666666" transform="translate(14.248984 64.826435) scale(0.121 -0.121)">
       <defs>
        <path id="ArialMT-37" d="M 303 3981 
L 303 4522 
L 3269 4522 
L 3269 4084 
Q 2831 3619 2401 2847 
Q 1972 2075 1738 1259 
Q 1569 684 1522 0 
L 944 0 
Q 953 541 1156 1306 
Q 1359 2072 1739 2783 
Q 2119 3494 2547 3981 
L 303 3981 
z
" transform="scale(0.015625)"/>
       </defs>
       <use xlink:href="#ArialMT-37"/>
       <use xlink:href="#ArialMT-30" transform="translate(55.615234 0)"/>
       <use xlink:href="#ArialMT-25" transform="translate(111.230469 0)"/>
      </g>
     </g>
    </g>
   </g>
   <g id="line2d_17">
    <path d="M 47.966 299.751299 
L 561.744 299.751299 
" clip-path="url(#p7c989f0242)" style="fill: none; stroke: #808080; stroke-linecap: round"/>
   </g>
   <g id="line2d_18">
    <path d="M 71.319545 299.751299 
L 71.483545 300.090896 
L 71.647545 300.842861 
L 72.139544 300.557195 
L 72.303543 299.774173 
L 72.467543 299.976495 
L 73.45154 298.613648 
L 73.61554 298.826367 
L 73.943539 299.605577 
L 74.435538 299.86573 
L 74.599538 299.340906 
L 74.763537 299.340906 
L 74.927537 299.756385 
L 75.091537 299.67917 
L 75.747535 300.539712 
L 75.911535 300.83954 
L 76.075534 300.255285 
L 76.239534 300.176424 
L 76.731533 300.459459 
L 77.059532 299.110247 
L 77.223532 299.107548 
L 77.387531 297.784107 
L 77.87953 297.784107 
L 78.04353 298.027257 
L 78.207529 297.619416 
L 78.371529 297.69184 
L 78.535529 297.153008 
L 79.683526 297.131164 
L 80.175525 298.88974 
L 80.503524 298.889721 
L 80.667524 300.638165 
L 80.831523 299.849983 
L 81.487522 300.53215 
L 81.651521 300.442809 
L 81.815521 301.073929 
L 81.979521 299.944292 
L 82.471519 298.26915 
L 82.635519 299.378469 
L 82.963518 299.348279 
L 83.127518 299.592772 
L 83.619517 300.657861 
L 83.783516 300.36793 
L 84.111516 299.020739 
L 84.275515 297.344027 
L 84.767514 297.6982 
L 85.095513 297.73055 
L 85.259513 297.954926 
L 85.423513 298.528401 
L 85.915511 297.776136 
L 86.079511 297.075849 
L 86.243511 297.328612 
L 86.57151 296.297496 
L 87.063509 295.931457 
L 87.227508 296.929495 
L 87.391508 296.699766 
L 87.555508 296.858589 
L 87.719507 297.999473 
L 88.375506 297.867081 
L 88.539505 297.286832 
L 88.703505 297.782699 
L 89.523503 295.581202 
L 89.687503 295.794383 
L 89.851502 296.79207 
L 90.015502 296.736885 
L 90.507501 297.064806 
L 90.999499 295.923944 
L 91.163499 296.825484 
L 91.655498 297.077645 
L 91.983497 298.232738 
L 92.147497 298.287742 
L 92.311496 298.929368 
L 92.803495 298.663814 
L 93.295494 299.135007 
L 93.459494 298.604727 
L 93.951493 298.438839 
L 94.279492 299.036558 
L 94.443491 299.001269 
L 94.607491 297.638507 
L 95.755488 295.586411 
L 96.247487 296.132901 
L 96.575486 294.918 
L 96.739486 295.245361 
L 96.903486 294.339952 
L 97.395485 293.951946 
L 97.559484 294.465862 
L 97.723484 294.398021 
L 98.051483 293.479172 
L 98.707481 293.57005 
L 98.871481 293.767748 
L 99.035481 293.445143 
L 99.19948 292.234314 
L 100.347478 292.234314 
L 101.003476 290.350427 
L 101.167476 289.377327 
L 101.331475 289.125297 
L 101.495475 290.145504 
L 101.987474 288.113123 
L 102.151473 288.530461 
L 102.479473 288.194371 
L 102.643472 286.577139 
L 103.135471 283.008503 
L 103.46347 284.829802 
L 103.62747 284.839044 
L 103.79147 283.694642 
L 104.447468 282.036618 
L 104.611468 281.417958 
L 104.775467 282.04593 
L 104.939467 285.026672 
L 105.595465 282.18946 
L 105.923465 284.12129 
L 106.579463 281.216284 
L 106.743463 281.2195 
L 106.907462 281.336455 
L 107.235462 280.634403 
L 107.72746 281.932191 
L 107.89146 283.327059 
L 108.05546 282.44804 
L 108.219459 282.692318 
L 108.383459 280.378501 
L 108.711458 280.389454 
L 108.875458 278.551619 
L 109.039457 278.448369 
L 109.367457 277.329746 
L 109.531456 277.329746 
L 110.187455 277.823845 
L 110.351454 277.855633 
L 110.515454 279.690453 
L 111.171452 280.666679 
L 111.335452 279.323045 
L 111.499452 279.31301 
L 111.663451 279.639258 
L 111.827451 279.017529 
L 112.31945 280.093773 
L 112.483449 280.734096 
L 112.647449 280.594911 
L 112.975448 283.09815 
L 113.467447 283.11397 
L 113.631447 282.519044 
L 114.123445 282.519044 
L 114.615444 286.144844 
L 114.779444 285.282227 
L 114.943444 285.766298 
L 115.107443 286.754151 
L 115.271443 284.373581 
L 115.927441 285.376462 
L 116.091441 283.826517 
L 116.255441 283.388787 
L 116.41944 285.138832 
L 116.911439 285.808645 
L 117.075439 284.904622 
L 117.239438 285.062215 
L 117.403438 286.278697 
L 117.567437 286.224271 
L 118.387436 285.039934 
L 118.551435 285.435884 
L 118.715435 285.295785 
L 119.207434 285.517377 
L 119.371433 286.227006 
L 119.535433 286.180573 
L 119.699432 287.06915 
L 119.863432 287.06915 
L 120.355431 286.258512 
L 120.519431 284.332073 
L 121.011429 285.590823 
L 121.503428 285.638129 
L 121.667428 285.424246 
L 121.831427 284.13144 
L 121.995427 281.878099 
L 122.159427 281.290275 
L 122.651426 280.951057 
L 122.815425 281.306344 
L 122.979425 281.111041 
L 123.143424 280.134787 
L 123.635423 280.111874 
L 123.799423 278.333554 
L 123.963422 277.946063 
L 124.291422 278.999634 
L 124.455421 278.589045 
L 124.94742 280.498406 
L 125.275419 280.680913 
L 125.603419 280.036215 
L 126.095418 279.62903 
L 126.423417 279.971521 
L 126.587416 280.833338 
L 126.751416 280.010007 
L 127.407414 278.320001 
L 127.735414 276.90574 
L 127.899413 276.588203 
L 128.391412 276.667751 
L 128.555412 276.180113 
L 128.883411 277.273388 
L 129.047411 278.025425 
L 129.539409 279.375982 
L 129.703409 280.215431 
L 129.867409 280.164202 
L 130.031408 278.501753 
L 130.195408 279.016009 
L 130.687407 277.670678 
L 130.851406 278.218135 
L 131.343405 277.221677 
L 131.835404 275.238541 
L 131.999404 275.389442 
L 132.327403 275.326167 
L 132.491403 274.740036 
L 132.983401 275.554836 
L 133.147401 274.493709 
L 133.311401 274.511676 
L 133.6394 274.878574 
L 133.8034 274.878574 
L 134.131399 273.956168 
L 134.459398 274.061977 
L 134.787397 273.52435 
L 135.279396 273.26687 
L 135.771395 273.432867 
L 136.427393 273.469869 
L 136.591393 273.797548 
L 137.083392 273.532039 
L 137.90339 273.754919 
L 138.06739 273.967313 
L 139.871385 274.002227 
L 140.035385 273.581289 
L 140.199385 273.502619 
L 140.527384 273.088188 
L 141.019383 272.767218 
L 141.347382 272.968676 
L 141.511382 272.955628 
L 141.675381 273.244641 
L 142.16738 273.266504 
L 142.33138 273.161984 
L 142.659379 273.409943 
L 142.823378 273.270022 
L 143.315377 273.160189 
L 143.479377 273.300789 
L 143.807376 273.771122 
L 143.971376 273.548952 
L 144.463375 273.335053 
L 144.627374 272.981196 
L 144.955373 272.843718 
L 145.119373 272.776272 
L 145.775372 273.020367 
L 146.26737 272.835098 
L 146.759369 272.385017 
L 146.923369 272.036646 
L 147.087368 272.092001 
L 147.251368 272.029512 
L 147.415368 272.103626 
L 148.071366 271.80167 
L 148.563365 271.886611 
L 148.727365 271.886611 
L 149.383363 271.642598 
L 149.711362 271.265513 
L 150.203361 271.181426 
L 150.53136 270.863065 
L 150.69536 270.880134 
L 150.85936 270.422578 
L 151.351359 270.184103 
L 151.515358 269.859406 
L 151.843357 269.841853 
L 152.007357 269.783564 
L 152.499356 269.872038 
L 152.663355 269.56735 
L 152.827355 269.511962 
L 153.155354 268.976213 
L 153.811353 268.376083 
L 154.303352 267.849531 
L 154.79535 267.768605 
L 154.95935 267.504604 
L 155.12335 267.69852 
L 155.451349 267.233738 
L 156.107347 266.860644 
L 156.271347 267.07804 
L 156.435347 267.097347 
L 156.599346 266.963356 
L 156.927346 266.963356 
L 157.091345 266.585541 
L 157.255345 266.787068 
L 157.419344 266.570933 
L 157.583344 267.15501 
L 158.895341 267.15501 
L 159.38734 267.719184 
L 159.879339 266.290971 
L 160.699337 265.544376 
L 161.027336 264.980934 
L 161.191336 264.605883 
L 161.847334 263.721369 
L 162.011334 263.851911 
L 162.339333 262.791918 
L 162.831332 262.624637 
L 162.995331 262.694909 
L 163.159331 263.021593 
L 163.323331 262.817762 
L 163.48733 263.74158 
L 163.65133 263.74158 
L 164.143329 262.622458 
L 164.307328 262.348432 
L 164.471328 261.738652 
L 164.635328 261.731204 
L 165.127326 262.113054 
L 165.291326 261.904502 
L 165.619325 262.643247 
L 165.783325 263.166409 
L 166.767323 264.666582 
L 166.931322 264.293607 
L 167.423321 264.537588 
L 167.75132 263.406451 
L 167.91532 263.354128 
L 168.079319 263.100965 
L 168.735318 263.170421 
L 168.899318 263.024891 
L 169.063317 262.650791 
L 169.719316 262.679227 
L 169.883315 261.136703 
L 170.375314 260.421767 
L 170.867313 260.40725 
L 171.031313 259.936074 
L 171.195312 259.95652 
L 171.523311 259.389828 
L 172.01531 259.271191 
L 172.17931 259.416099 
L 172.507309 258.967978 
L 173.491307 258.314825 
L 173.655306 257.964508 
L 174.475305 257.964508 
L 174.639304 257.754245 
L 174.803304 258.076463 
L 174.967303 257.905175 
L 175.131303 257.905175 
L 175.623302 258.221057 
L 175.787301 258.20285 
L 176.115301 258.580539 
L 176.771299 258.285801 
L 177.263298 259.006266 
L 177.919296 258.933174 
L 178.083296 259.211234 
L 178.739295 259.203656 
L 178.903294 258.643435 
L 179.395293 259.963175 
L 179.559293 260.610993 
L 180.051291 260.690213 
L 180.379291 260.367699 
L 180.54329 260.469278 
L 180.70729 260.240007 
L 181.199289 260.17822 
L 181.363288 259.83347 
L 181.527288 259.797777 
L 181.691288 259.629036 
L 181.855287 259.198929 
L 182.511286 259.555448 
L 182.839285 259.407065 
L 183.495283 259.382959 
L 184.643281 255.4099 
L 184.80728 255.494659 
L 185.13528 254.716711 
L 185.299279 255.404947 
L 185.791278 254.61993 
L 186.283277 255.780814 
L 187.431274 252.936556 
L 187.595274 254.084759 
L 188.087273 253.945559 
L 188.251272 253.589898 
L 188.415272 252.885153 
L 188.579272 252.98097 
L 188.743271 252.460341 
L 189.23527 251.811784 
L 189.39927 251.810549 
L 189.727269 251.460639 
L 189.891269 251.616121 
L 190.383267 251.265796 
L 190.711267 251.784607 
L 190.875266 251.631735 
L 191.039266 251.16734 
L 191.695264 249.834469 
L 192.023264 250.922003 
L 192.679262 250.131684 
L 192.843262 250.252125 
L 193.007261 250.854867 
L 193.171261 250.810332 
L 193.33526 250.181798 
L 193.827259 250.171814 
L 193.991259 249.87048 
L 194.319258 249.837353 
L 194.975257 251.940747 
L 195.139256 251.629614 
L 195.303256 253.245092 
L 195.467255 253.157749 
L 195.631255 252.506403 
L 196.123254 251.958578 
L 196.287254 251.263173 
L 196.615253 251.745984 
L 196.779252 250.26418 
L 197.271251 250.591739 
L 197.435251 251.417883 
L 197.599251 251.140873 
L 197.76325 252.550082 
L 197.92725 252.630041 
L 198.419249 252.349097 
L 198.583248 251.904159 
L 199.731246 251.8871 
L 200.059245 251.8871 
L 200.223244 250.089957 
L 200.879243 247.961321 
L 201.207242 248.370811 
L 201.371242 248.367477 
L 201.863241 248.850463 
L 202.02724 248.265636 
L 202.355239 248.742171 
L 202.519239 249.574685 
L 203.011238 249.484828 
L 203.503237 247.91286 
L 203.667236 248.979631 
L 203.831236 248.979631 
L 204.159235 248.138372 
L 204.487234 246.653258 
L 204.651234 245.690317 
L 204.815234 245.690846 
L 205.307233 244.34731 
L 205.635232 245.44496 
L 205.799231 245.264115 
L 205.963231 245.911768 
L 206.45523 244.862985 
L 206.619229 245.512245 
L 206.783229 245.65801 
L 206.947229 245.497263 
L 207.111228 244.85354 
L 207.603227 243.61461 
L 207.767227 243.709927 
L 207.931226 244.963577 
L 208.095226 244.787306 
L 208.259226 244.134949 
L 208.751224 244.045597 
L 208.915224 242.770955 
L 209.079224 242.723549 
L 209.243223 243.160127 
L 209.407223 242.629351 
L 210.063221 242.919361 
L 210.227221 243.701231 
L 210.391221 243.513488 
L 210.55522 244.126153 
L 211.211219 243.261414 
L 211.375218 242.813337 
L 211.539218 241.538533 
L 211.703218 241.208071 
L 212.195216 239.886343 
L 212.359216 241.323916 
L 212.523216 240.252136 
L 212.687215 240.271173 
L 212.851215 238.854592 
L 213.343214 238.543301 
L 213.507213 239.59446 
L 213.835213 236.677246 
L 214.491211 235.059292 
L 214.81921 233.276816 
L 214.98321 231.317985 
L 215.14721 231.448627 
L 215.639208 232.817416 
L 215.803208 230.98791 
L 215.967208 231.652605 
L 216.131207 232.991775 
L 216.295207 232.688004 
L 216.787206 231.422652 
L 216.951205 232.724511 
L 217.443204 229.134493 
L 217.935203 228.078496 
L 218.099203 229.972149 
L 218.263202 229.782329 
L 218.427202 232.364493 
L 218.591201 233.059531 
L 218.919201 233.059531 
L 219.4112 230.444065 
L 219.739199 231.873301 
L 220.231198 230.118159 
L 220.559197 226.129739 
L 221.707194 226.129739 
L 221.871194 225.235018 
L 222.035193 224.992578 
L 222.199193 224.992578 
L 222.691192 226.378219 
L 222.855192 228.927884 
L 223.019191 228.599851 
L 223.183191 230.894561 
L 223.51119 230.894561 
L 223.67519 229.187237 
L 223.839189 230.424591 
L 224.003189 228.654577 
L 224.167188 231.364802 
L 224.823187 234.508035 
L 224.987187 236.041042 
L 225.151186 235.475988 
L 225.315186 232.956424 
L 225.479185 232.599468 
L 225.971184 233.808644 
L 226.135184 233.578716 
L 226.463183 232.454799 
L 226.627183 234.211418 
L 227.119182 233.6286 
L 227.447181 236.270471 
L 227.61118 235.673573 
L 227.77518 234.019385 
L 228.267179 233.505285 
L 228.431178 232.614422 
L 228.595178 233.400626 
L 228.923177 231.791477 
L 229.579176 231.775561 
L 229.743175 232.119181 
L 229.907175 231.715774 
L 230.563174 233.825324 
L 230.727173 233.804747 
L 230.891173 232.884438 
L 231.219172 232.391288 
L 231.711171 230.526357 
L 232.20317 230.156595 
L 232.367169 229.404354 
L 232.859168 229.67727 
L 233.351167 228.010379 
L 233.515167 228.320232 
L 234.335165 228.320232 
L 234.499164 228.187514 
L 234.663164 228.333642 
L 235.155163 227.155059 
L 235.319162 227.660791 
L 235.483162 227.048326 
L 235.647162 228.639666 
L 235.811161 227.595671 
L 236.46716 225.642828 
L 236.959159 226.288369 
L 237.451157 226.156152 
L 237.615157 224.286196 
L 237.779157 224.113074 
L 237.943156 223.642561 
L 238.107156 223.752658 
L 238.599155 223.068626 
L 238.763154 222.579403 
L 239.091154 223.554983 
L 239.255153 223.446659 
L 239.747152 223.599771 
L 239.911152 224.33488 
L 240.239151 223.161349 
L 240.403151 223.268208 
L 240.895149 223.268208 
L 241.059149 224.137026 
L 241.223149 225.791494 
L 241.551148 225.002646 
L 242.043147 224.917572 
L 242.371146 223.147934 
L 242.535146 223.315993 
L 242.699145 221.673842 
L 243.191144 221.6447 
L 243.355144 222.134974 
L 243.519143 221.31634 
L 243.683143 221.542197 
L 243.847142 222.982516 
L 244.503141 221.568349 
L 244.667141 220.050693 
L 244.83114 220.175679 
L 244.99514 219.312687 
L 245.651138 216.989352 
L 245.815138 218.009312 
L 245.979138 216.701137 
L 246.143137 217.160824 
L 246.635136 217.28995 
L 246.799136 217.148663 
L 247.127135 214.575656 
L 247.783133 216.441188 
L 247.947133 219.568545 
L 248.111133 220.218505 
L 248.275132 217.611915 
L 248.439132 217.350338 
L 248.603131 217.350338 
L 248.931131 215.652096 
L 249.09513 217.179804 
L 249.25913 214.922735 
L 249.423129 215.074826 
L 249.587129 214.379351 
L 250.079128 214.139532 
L 250.243128 213.884666 
L 250.571127 212.989065 
L 250.735126 212.741759 
L 251.227125 213.623552 
L 251.391125 215.158922 
L 251.555124 214.316942 
L 251.719124 214.408448 
L 251.883124 215.093025 
L 252.375123 213.35085 
L 252.703122 210.919913 
L 252.867121 211.41527 
L 253.031121 210.2142 
L 253.52312 208.976569 
L 253.68712 207.969212 
L 253.851119 209.46334 
L 254.015119 207.885531 
L 254.179118 207.885531 
L 254.671117 206.918893 
L 254.835117 205.681142 
L 254.999116 205.444528 
L 255.327116 204.528225 
L 255.819115 203.836086 
L 255.983114 205.232565 
L 256.147114 205.499527 
L 256.311113 207.070221 
L 256.475113 207.183299 
L 257.131111 207.183299 
L 257.459111 206.44846 
L 257.62311 207.710162 
L 258.115109 208.842635 
L 258.279109 208.163753 
L 258.443108 209.74227 
L 258.607108 208.667703 
L 259.919105 208.623285 
L 260.411104 208.454857 
L 260.575103 209.4647 
L 260.903103 209.274398 
L 261.067102 208.712777 
L 261.559101 208.507605 
L 261.723101 207.939991 
L 261.8871 208.256681 
L 262.0511 207.704938 
L 262.2151 208.233393 
L 262.707098 207.574634 
L 262.871098 207.63404 
L 263.199097 209.453904 
L 263.363097 208.983917 
L 263.691096 208.983917 
L 263.855096 208.808381 
L 264.019095 209.607682 
L 264.183095 209.385043 
L 264.347095 208.891397 
L 264.511094 209.467674 
L 265.167093 208.740599 
L 265.331092 209.002172 
L 265.495092 207.943715 
L 265.659092 207.793674 
L 266.15109 208.011983 
L 266.31509 208.23265 
L 266.47909 207.749211 
L 266.643089 207.99496 
L 266.807089 206.991919 
L 267.627087 205.938846 
L 267.955086 206.276814 
L 268.447085 206.330584 
L 268.611085 206.578303 
L 268.775084 206.196155 
L 268.939084 206.127823 
L 269.103084 205.317556 
L 269.595082 205.624652 
L 269.759082 205.424413 
L 270.087081 203.726748 
L 270.251081 203.952477 
L 270.74308 203.406292 
L 271.071079 204.586376 
L 271.235079 203.764027 
L 271.399078 204.613564 
L 271.891077 205.719734 
L 272.383076 204.137744 
L 272.547075 204.585625 
L 273.039074 204.477505 
L 273.203074 204.073234 
L 273.367074 204.612499 
L 273.695073 203.101797 
L 274.351071 203.04986 
L 274.515071 203.951266 
L 274.84307 204.054481 
L 275.335069 203.481382 
L 275.499069 203.883372 
L 275.663068 203.103045 
L 275.991067 204.606403 
L 276.483066 204.03391 
L 276.647066 203.087026 
L 276.811066 202.990981 
L 276.975065 202.725015 
L 277.139065 203.119482 
L 277.631064 202.820108 
L 277.795063 204.59742 
L 277.959063 204.275192 
L 278.287062 206.272429 
L 279.435059 206.272429 
L 280.419057 202.841167 
L 280.583057 203.661679 
L 281.075056 204.667382 
L 281.239055 204.6223 
L 281.731054 203.313776 
L 282.223053 203.505785 
L 282.387052 204.168811 
L 282.551052 203.73318 
L 282.715052 204.967077 
L 283.37105 204.625543 
L 283.53505 204.368623 
L 283.863049 204.822194 
L 284.027049 205.789108 
L 284.519047 207.207476 
L 284.847047 210.568258 
L 285.011046 209.704474 
L 285.175046 209.667167 
L 285.667045 211.659271 
L 285.831044 215.75348 
L 286.159044 211.601991 
L 286.323043 210.603699 
L 286.815042 210.401054 
L 287.143041 209.674095 
L 287.307041 209.920574 
L 287.471041 210.88365 
L 287.963039 210.776242 
L 288.127039 210.932234 
L 288.291039 209.349159 
L 288.455038 209.697821 
L 288.619038 208.693314 
L 289.275036 208.693314 
L 289.439036 208.200896 
L 289.603036 209.043896 
L 289.767035 208.420021 
L 290.259034 210.287526 
L 290.423034 209.471805 
L 290.587033 209.635803 
L 290.751033 208.580487 
L 290.915033 208.811353 
L 291.571031 209.322307 
L 291.89903 212.345051 
L 292.06303 211.845818 
L 292.391029 211.845818 
L 292.555029 215.096762 
L 292.719028 215.797781 
L 293.211027 211.012919 
L 294.195025 210.965295 
L 294.359025 212.540983 
L 294.851023 212.502397 
L 295.179023 211.109801 
L 295.343022 211.385225 
L 295.507022 210.464394 
L 295.999021 210.363649 
L 296.16302 209.544026 
L 296.32702 209.681808 
L 296.49102 209.497355 
L 296.655019 208.144977 
L 297.147018 208.088314 
L 297.311018 209.809553 
L 297.803016 207.993629 
L 298.295015 207.63585 
L 298.459015 206.871288 
L 298.623015 207.054955 
L 298.951014 207.071462 
L 299.443013 205.840597 
L 299.607012 205.911971 
L 299.771012 205.108008 
L 299.935011 205.60634 
L 300.099011 204.499692 
L 300.59101 205.139471 
L 300.919009 204.328916 
L 301.083009 204.678576 
L 301.247008 203.844965 
L 301.739007 203.833566 
L 301.903007 204.002053 
L 302.067007 205.106211 
L 302.395006 203.344804 
L 302.887005 202.432453 
L 303.051004 201.625329 
L 303.215004 202.656787 
L 303.379003 201.572884 
L 303.543003 201.560515 
L 304.035002 201.082754 
L 304.199002 201.145603 
L 304.363001 202.57129 
L 304.527001 202.202918 
L 304.691 202.299214 
L 305.346999 203.794375 
L 305.674998 203.57073 
L 305.838998 204.602492 
L 306.330997 203.313064 
L 306.494996 203.335267 
L 306.658996 202.758452 
L 306.986995 203.58377 
L 307.478994 203.866801 
L 307.642993 202.834921 
L 307.806993 202.8498 
L 307.970993 202.651717 
L 308.134992 203.202993 
L 308.462992 203.202993 
L 308.626991 202.57311 
L 308.95499 204.652139 
L 309.11899 204.079196 
L 309.28299 203.038411 
L 309.938988 202.483765 
L 310.102988 202.94053 
L 310.266987 201.884152 
L 310.922986 201.162881 
L 311.086985 200.948722 
L 311.250985 200.514312 
L 311.578984 201.093214 
L 312.070983 200.07931 
L 312.234983 200.107624 
L 312.398982 201.741815 
L 312.562982 200.850001 
L 312.726982 201.313357 
L 313.21898 201.317984 
L 313.710979 202.691481 
L 313.874979 202.619727 
L 314.366978 202.619727 
L 314.530977 202.219689 
L 314.858977 202.372744 
L 315.022976 202.099161 
L 315.678975 202.05263 
L 316.006974 202.579982 
L 316.170974 203.161681 
L 316.662972 203.2847 
L 316.990972 202.985517 
L 317.318971 203.198399 
L 317.81097 203.671092 
L 317.974969 203.38627 
L 318.138969 204.010428 
L 318.466968 204.356534 
L 319.942965 204.356534 
L 320.270964 203.952549 
L 320.434964 203.480115 
L 320.598963 203.414433 
L 320.762963 202.729101 
L 321.418961 202.60407 
L 321.746961 202.972569 
L 321.91096 203.009921 
L 322.566959 203.58255 
L 322.894958 203.213496 
L 323.058957 203.692471 
L 323.550956 203.931411 
L 323.878956 203.148004 
L 324.042955 203.195089 
L 324.206955 202.758214 
L 324.698954 202.646079 
L 325.026953 202.94778 
L 325.190953 203.161221 
L 325.354952 203.039283 
L 325.846951 203.879163 
L 326.010951 203.815864 
L 326.33895 204.526178 
L 326.502949 204.943208 
L 327.158948 204.824197 
L 327.322948 204.703386 
L 327.650947 204.027983 
L 328.142946 204.274681 
L 328.306945 204.169491 
L 328.634944 204.218077 
L 328.798944 204.505068 
L 329.290943 204.113978 
L 329.782942 205.184314 
L 329.946941 205.489212 
L 330.43894 205.85844 
L 330.60294 206.398837 
L 330.930939 206.340987 
L 331.094939 206.54053 
L 331.586938 206.831593 
L 331.750937 207.136335 
L 332.078936 206.911444 
L 332.242936 206.470915 
L 332.734935 206.074644 
L 332.898934 205.776779 
L 333.226934 205.708275 
L 333.390933 205.182638 
L 333.554933 205.15958 
L 334.046932 204.444421 
L 334.374931 203.665179 
L 334.538931 203.720045 
L 335.03093 203.589687 
L 335.194929 203.855418 
L 335.358929 203.9049 
L 335.686928 203.517914 
L 336.342926 203.340693 
L 336.670926 202.803096 
L 336.834925 202.067864 
L 338.310922 202.067864 
L 338.96692 201.240714 
L 339.13092 201.233703 
L 339.622919 201.469445 
L 339.786918 201.184426 
L 339.950918 201.209594 
L 340.114918 200.633546 
L 340.278917 200.608968 
L 340.934916 200.181904 
L 341.098915 200.246674 
L 341.426915 200.65796 
L 342.082913 200.177173 
L 342.410912 200.195585 
L 342.574912 200.326182 
L 343.066911 200.460674 
L 343.23091 200.33161 
L 343.39491 199.844428 
L 343.55891 199.838108 
L 343.722909 199.644883 
L 344.214908 199.354837 
L 344.378908 199.481304 
L 344.542907 199.449782 
L 344.706907 199.296746 
L 344.870907 199.714336 
L 345.362905 199.133864 
L 345.526905 199.273122 
L 345.690905 199.153239 
L 345.854904 199.582422 
L 346.018904 199.065768 
L 346.510903 198.892122 
L 347.002902 198.053084 
L 347.166901 198.399027 
L 347.986899 198.170182 
L 348.314898 197.321883 
L 348.970897 196.719749 
L 349.298896 196.655012 
L 349.462896 196.374409 
L 349.954895 196.241563 
L 350.282894 195.575322 
L 350.446894 195.616403 
L 350.610893 195.284576 
L 351.266892 194.621943 
L 351.594891 194.915418 
L 351.75889 195.515493 
L 352.08689 195.515493 
L 352.250889 195.794293 
L 352.414889 195.827472 
L 352.578889 195.531685 
L 352.906888 194.487659 
L 353.726886 194.487659 
L 353.890885 194.044763 
L 354.218885 194.063261 
L 354.546884 193.63561 
L 354.710884 193.846433 
L 354.874883 193.811584 
L 355.038883 193.601891 
L 355.202882 194.173344 
L 355.694881 193.755524 
L 356.02288 193.894614 
L 356.842879 193.200697 
L 357.006878 193.290223 
L 357.334877 193.869505 
L 357.498877 193.681692 
L 358.154876 193.53712 
L 358.318875 193.787883 
L 358.482875 193.612821 
L 358.646874 193.166827 
L 359.138873 193.0165 
L 359.302873 193.184002 
L 359.630872 192.838553 
L 359.794872 192.307451 
L 360.286871 192.154879 
L 360.61487 191.766108 
L 360.778869 191.673732 
L 360.942869 191.822839 
L 361.598867 192.516872 
L 361.926867 192.645474 
L 362.418866 192.645474 
L 362.582865 192.915679 
L 362.910864 192.529325 
L 363.074864 192.377351 
L 363.238864 191.704866 
L 364.058862 191.127569 
L 364.222861 191.18278 
L 364.386861 191.067123 
L 364.87886 190.883233 
L 365.042859 190.451294 
L 365.206859 190.635436 
L 365.370859 190.192278 
L 366.026857 190.068523 
L 366.354856 189.688033 
L 366.518856 189.806059 
L 366.682856 189.594035 
L 367.174854 189.594334 
L 367.338854 189.795138 
L 367.666853 189.578927 
L 367.830853 189.309198 
L 368.650851 189.545295 
L 368.97885 188.953151 
L 369.470849 188.999424 
L 369.634849 188.851608 
L 369.798848 188.905716 
L 369.962848 188.711277 
L 370.126848 188.989215 
L 370.618846 188.759295 
L 370.782846 188.496059 
L 371.110845 188.33391 
L 371.274845 188.594656 
L 371.766844 188.667477 
L 371.930843 188.498986 
L 372.094843 188.912078 
L 372.258843 188.67301 
L 372.422842 189.032996 
L 372.914841 189.000147 
L 373.24284 188.549367 
L 374.226838 188.192725 
L 374.390838 188.423388 
L 374.718837 190.002493 
L 375.210836 189.75247 
L 375.374835 190.076026 
L 375.538835 189.706371 
L 375.702835 188.513856 
L 375.866834 188.655946 
L 376.358833 188.794643 
L 376.522833 188.488693 
L 376.850832 189.23535 
L 377.014831 188.929538 
L 377.50683 189.232219 
L 377.67083 189.775003 
L 377.83483 189.764351 
L 377.998829 189.439908 
L 379.638825 189.377483 
L 379.802825 189.326148 
L 380.130824 190.622789 
L 380.294824 190.23828 
L 380.458823 190.592078 
L 381.114822 190.546796 
L 381.278822 191.297102 
L 381.442821 192.922195 
L 382.09882 194.609363 
L 382.262819 193.853515 
L 382.426819 193.741269 
L 382.590818 193.458576 
L 382.754818 192.544781 
L 383.410817 192.40916 
L 383.738816 192.57799 
L 383.902815 192.137736 
L 384.558814 192.355797 
L 384.722813 192.81885 
L 384.886813 192.371659 
L 385.050813 192.374235 
L 385.542812 191.998089 
L 385.706811 192.076461 
L 385.870811 191.080552 
L 386.03481 191.412341 
L 386.19881 191.406271 
L 386.854808 191.147051 
L 387.018808 191.847683 
L 387.182808 191.575063 
L 387.346807 191.886049 
L 387.838806 191.967666 
L 388.002806 191.776841 
L 388.166805 191.768786 
L 388.330805 191.440867 
L 388.494805 191.573892 
L 388.986803 191.31647 
L 389.150803 192.630776 
L 389.314803 192.545927 
L 389.642802 192.910079 
L 390.2988 192.053057 
L 390.4628 192.761341 
L 390.790799 192.483764 
L 391.610797 192.542511 
L 391.938797 191.556794 
L 392.430795 190.848543 
L 392.594795 191.070974 
L 392.922794 189.113039 
L 393.086794 188.476984 
L 393.414793 188.449959 
L 393.742792 187.943992 
L 393.906792 187.941938 
L 394.070792 187.80278 
L 394.234791 187.967481 
L 394.72679 188.733422 
L 394.89079 188.306182 
L 395.218789 188.825813 
L 395.382789 188.468544 
L 396.038787 188.254763 
L 396.202787 189.654278 
L 396.366786 189.571187 
L 396.530786 189.812363 
L 397.022785 191.599488 
L 397.186784 191.062383 
L 397.350784 189.749909 
L 397.514784 187.505173 
L 397.678783 187.135163 
L 398.170782 187.373143 
L 398.334782 187.95588 
L 398.498781 188.108734 
L 398.826781 188.844131 
L 399.15478 188.844131 
L 399.318779 188.541239 
L 399.646779 185.366155 
L 399.810778 185.032229 
L 401.450774 185.032229 
L 401.778774 182.321374 
L 401.942773 182.170909 
L 402.106773 180.560573 
L 402.270772 180.303287 
L 402.762771 180.899759 
L 402.926771 180.337151 
L 403.090771 181.21969 
L 403.25477 180.245637 
L 403.41877 180.031402 
L 404.238768 177.769312 
L 404.566767 175.953882 
L 405.058766 176.606526 
L 405.222766 178.20843 
L 405.386765 178.006813 
L 405.714764 176.816341 
L 406.206763 176.488245 
L 406.370763 176.563921 
L 406.698762 175.999321 
L 406.862762 176.852524 
L 407.354761 176.53996 
L 407.68276 177.203388 
L 407.846759 176.388462 
L 408.010759 174.885611 
L 408.338758 174.840604 
L 408.502758 174.570697 
L 408.994757 172.344313 
L 409.650755 172.431804 
L 409.814755 172.506211 
L 410.306754 170.681012 
L 410.798753 169.608639 
L 410.962752 170.984916 
L 411.290751 169.343246 
L 411.454751 168.975199 
L 411.94675 170.111003 
L 412.110749 171.270985 
L 412.274749 170.831869 
L 412.438749 170.766844 
L 412.602748 169.94072 
L 412.930748 169.94072 
L 413.094747 170.495713 
L 413.258747 169.959977 
L 413.750746 169.959977 
L 414.406744 168.316482 
L 414.570744 168.537382 
L 414.898743 166.676704 
L 415.062743 166.676704 
L 415.554741 166.271633 
L 415.718741 166.55186 
L 415.882741 167.077722 
L 416.04674 166.407814 
L 416.538739 164.97076 
L 416.866738 166.588389 
L 417.030738 167.640683 
L 417.194738 167.737541 
L 417.686736 166.232926 
L 417.850736 166.282934 
L 418.014736 165.586702 
L 418.178735 166.793785 
L 418.342735 167.07118 
L 418.834734 167.068941 
L 418.998733 166.555985 
L 419.162733 167.441906 
L 419.490732 166.351774 
L 419.982731 166.351774 
L 420.146731 167.217494 
L 420.31073 166.477938 
L 420.47473 166.983199 
L 420.63873 166.810403 
L 421.130728 167.612724 
L 421.622727 166.919104 
L 421.786727 167.56605 
L 422.278726 168.353451 
L 422.606725 167.884328 
L 422.770725 168.860242 
L 422.934724 167.574087 
L 423.262723 167.507546 
L 423.426723 166.490934 
L 423.918722 166.989404 
L 424.082722 166.624098 
L 424.57472 167.241248 
L 424.73872 166.393945 
L 424.90272 167.700751 
L 425.066719 166.310199 
L 425.230719 166.496035 
L 425.722718 166.132336 
L 425.886717 166.201224 
L 426.050717 167.713362 
L 426.214717 167.086892 
L 426.378716 167.794043 
L 426.870715 168.225775 
L 427.034715 170.128704 
L 427.198714 170.414392 
L 427.362714 171.629198 
L 427.526713 170.512652 
L 428.018712 170.25254 
L 428.182712 171.222252 
L 428.346712 168.9161 
L 428.510711 168.778408 
L 428.674711 169.656712 
L 429.330709 171.198321 
L 429.494709 170.358416 
L 429.822708 170.841126 
L 430.314707 171.226603 
L 430.478707 170.784167 
L 430.642706 171.191402 
L 430.806706 170.984868 
L 430.970705 171.061962 
L 431.462704 170.509487 
L 431.626704 171.63355 
L 432.118703 171.902479 
L 432.610702 171.571902 
L 432.938701 172.451829 
L 433.1027 172.173221 
L 433.2667 171.336843 
L 433.4307 171.336843 
L 433.758699 171.908509 
L 433.922699 171.739389 
L 434.250698 171.637352 
L 434.414697 172.177741 
L 434.906696 173.291561 
L 435.234695 173.347508 
L 435.398695 173.545745 
L 435.562695 173.143656 
L 436.218693 173.143656 
L 436.546692 171.052729 
L 436.710692 170.861673 
L 437.202691 170.772892 
L 437.53069 167.308535 
L 437.858689 163.634775 
L 438.186689 163.634775 
L 438.350688 160.104514 
L 439.498686 160.104514 
L 439.662685 159.249564 
L 439.826685 164.188944 
L 439.990684 162.08927 
L 440.154684 162.333688 
L 440.318684 162.333688 
L 440.646683 160.7492 
L 440.810682 162.832775 
L 440.974682 162.525511 
L 441.138682 163.430329 
L 441.302681 161.661277 
L 441.79468 161.942079 
L 441.95868 161.424807 
L 442.450679 162.896522 
L 442.942677 162.92789 
L 443.434676 164.568327 
L 443.598676 163.146226 
L 444.090675 162.187956 
L 444.254674 161.359407 
L 444.418674 162.263856 
L 444.582674 161.127556 
L 444.746673 161.658673 
L 445.238672 162.340503 
L 445.402672 163.050525 
L 445.566671 162.888272 
L 445.730671 163.981142 
L 446.386669 164.968203 
L 446.714669 163.685748 
L 446.878668 163.587329 
L 447.042668 165.317658 
L 447.698666 165.337733 
L 447.862666 164.109932 
L 448.026666 164.747292 
L 448.190665 163.718751 
L 448.354665 163.718751 
L 449.010663 161.971425 
L 449.174663 161.823591 
L 449.338663 160.886421 
L 449.994661 159.479034 
L 450.32266 158.027675 
L 450.48666 159.335637 
L 450.978659 159.48985 
L 451.142658 159.903647 
L 451.306658 159.769994 
L 451.470658 159.8434 
L 451.634657 159.57679 
L 452.126656 159.009895 
L 452.290656 157.915031 
L 452.454655 158.156523 
L 452.618655 157.960112 
L 452.782654 158.214441 
L 453.274653 157.876944 
L 453.438653 158.002809 
L 453.766652 158.653534 
L 453.930652 158.598782 
L 454.422651 158.617 
L 454.91465 159.085042 
L 455.078649 159.81014 
L 455.570648 160.630334 
L 455.734648 159.364715 
L 455.898647 159.812031 
L 456.226646 158.698436 
L 456.718645 158.461004 
L 456.882645 158.528586 
L 457.210644 159.942997 
L 457.374644 159.481234 
L 457.702643 159.481234 
L 457.866643 158.407018 
L 459.17864 158.407018 
L 459.342639 158.644219 
L 459.506639 158.433144 
L 459.670638 157.452745 
L 459.834638 157.452745 
L 460.162637 157.164674 
L 460.326637 157.192721 
L 460.490636 157.380509 
L 460.654636 157.811121 
L 460.818636 156.717354 
L 461.474634 157.279418 
L 461.638634 157.337884 
L 461.802633 157.774009 
L 461.966633 157.422774 
L 462.458632 157.929803 
L 462.622632 159.319043 
L 462.786631 158.096185 
L 462.950631 157.967417 
L 463.11463 159.363923 
L 463.606629 159.216582 
L 463.770629 158.488301 
L 464.098628 155.991128 
L 464.262628 155.878289 
L 464.754627 156.113999 
L 464.918626 156.676296 
L 465.246625 156.889315 
L 465.410625 155.623695 
L 465.902624 155.732778 
L 466.066623 154.256532 
L 466.230623 154.220649 
L 466.558622 156.029043 
L 467.050621 154.721877 
L 467.37862 155.008045 
L 467.54262 154.814923 
L 467.70662 155.505636 
L 468.198618 155.717511 
L 468.362618 155.539821 
L 468.526618 155.713292 
L 468.690617 156.881979 
L 468.854617 156.881979 
L 469.346616 164.305889 
L 469.674615 163.103219 
L 470.002614 160.454291 
L 470.658613 159.005285 
L 470.822612 159.759209 
L 470.986612 159.457506 
L 471.150612 159.569594 
L 471.64261 159.182263 
L 471.80661 158.564999 
L 471.97061 158.575258 
L 472.134609 158.719323 
L 472.298609 158.470675 
L 472.790608 158.520354 
L 472.954607 157.717266 
L 473.282607 157.86033 
L 473.938605 157.86033 
L 474.102605 156.323318 
L 474.266604 156.225144 
L 475.086602 154.038113 
L 475.250602 154.2478 
L 475.414602 153.603491 
L 475.578601 154.38847 
L 475.742601 154.566797 
L 476.2346 154.231141 
L 476.562599 152.193963 
L 476.890598 152.843339 
L 477.382597 153.089359 
L 477.546597 153.959127 
L 477.874596 153.143369 
L 478.038596 153.781527 
L 478.530594 153.781527 
L 478.694594 153.649408 
L 479.186593 150.060098 
L 479.678592 149.767159 
L 479.842591 150.07702 
L 480.006591 148.888781 
L 480.170591 148.529215 
L 480.33459 148.691699 
L 480.826589 148.171438 
L 481.154588 147.083933 
L 481.318588 148.138043 
L 481.482587 148.14534 
L 481.974586 148.375903 
L 482.302586 147.015695 
L 482.466585 146.830219 
L 482.630585 145.71466 
L 483.122584 145.229048 
L 483.286583 144.841208 
L 483.450583 144.867193 
L 483.614582 144.055376 
L 483.778582 144.233687 
L 484.270581 144.571121 
L 484.434581 142.637462 
L 484.59858 143.53844 
L 484.926579 143.455894 
L 485.418578 142.86343 
L 485.582578 139.844828 
L 485.746578 139.528638 
L 485.910577 137.876912 
L 486.074577 137.611323 
L 486.566576 137.241326 
L 486.730575 136.348808 
L 486.894575 136.163036 
L 487.058574 136.552285 
L 487.222574 136.591126 
L 487.714573 135.347857 
L 487.878573 133.744678 
L 488.042572 133.541246 
L 488.370571 136.320917 
L 488.86257 135.304473 
L 489.190569 133.092353 
L 489.354569 133.005319 
L 489.518569 133.217335 
L 490.010568 132.316803 
L 490.174567 130.364204 
L 490.338567 125.583599 
L 490.502566 126.549427 
L 490.666566 126.006829 
L 491.158565 125.022365 
L 491.486564 122.905572 
L 491.650564 123.505221 
L 491.814563 119.937004 
L 492.306562 114.710198 
L 492.470562 115.113504 
L 492.634561 114.580703 
L 492.798561 108.973081 
L 492.962561 108.203783 
L 493.29056 108.203783 
L 493.454559 104.23439 
L 493.618559 106.98872 
L 493.782559 106.98872 
L 493.946558 111.361821 
L 494.110558 106.714446 
L 494.602557 106.758637 
L 494.766556 107.300199 
L 494.930556 107.384695 
L 495.094556 104.011893 
L 495.258555 103.47061 
L 495.750554 103.807753 
L 495.914554 103.783655 
L 496.078553 102.67375 
L 496.242553 104.656697 
L 496.898551 103.248894 
L 497.062551 103.809353 
L 497.39055 101.538931 
L 497.55455 103.105151 
L 497.882549 103.105151 
L 498.210548 98.253448 
L 499.522545 98.253448 
L 499.686545 93.792325 
L 499.850545 97.034875 
L 500.014544 97.034875 
L 500.342543 96.779264 
L 500.506543 100.338867 
L 500.670543 98.180954 
L 500.834542 98.703283 
L 500.998542 101.709992 
L 501.490541 100.696709 
L 501.65454 98.066517 
L 501.81854 98.886989 
L 501.98254 98.571723 
L 502.146539 95.861002 
L 502.638538 92.969118 
L 502.802538 94.224203 
L 502.966537 91.285203 
L 503.130537 92.191042 
L 503.294537 94.297518 
L 503.786535 93.826403 
L 503.950535 96.077899 
L 504.114535 95.515127 
L 504.278534 92.562717 
L 504.442534 93.196016 
L 504.934533 92.722908 
L 505.098532 94.121757 
L 505.262532 94.178711 
L 505.426532 91.868086 
L 505.590531 94.536929 
L 506.08253 95.005167 
L 506.24653 97.083492 
L 506.410529 95.83885 
L 506.574529 96.469372 
L 506.738528 101.297683 
L 507.230527 101.045877 
L 507.394527 99.014151 
L 507.558527 98.577716 
L 507.722526 98.70158 
L 507.886526 97.808143 
L 508.214525 97.808143 
L 508.378525 95.498773 
L 508.542524 96.323449 
L 508.706524 96.539748 
L 508.870523 96.277721 
L 509.034523 94.305317 
L 509.526522 93.184737 
L 509.690522 94.117568 
L 509.854521 93.585006 
L 510.018521 94.985673 
L 510.18252 93.548443 
L 510.674519 94.621755 
L 510.838519 96.960407 
L 511.002519 93.777521 
L 511.166518 94.201183 
L 511.330518 93.027163 
L 512.478515 88.021175 
L 512.970514 88.971967 
L 513.134514 88.025978 
L 513.298513 88.217211 
L 513.954512 88.217211 
L 514.282511 81.935341 
L 514.44651 81.440605 
L 514.61051 82.629066 
L 514.77451 80.552419 
L 515.266509 78.957431 
L 515.430508 79.669222 
L 515.758507 77.793122 
L 515.922507 77.970833 
L 516.414506 77.476484 
L 516.578505 78.001794 
L 516.906505 74.849009 
L 517.070504 73.913168 
L 517.726503 71.248982 
L 517.890502 67.456801 
L 518.054502 67.16092 
L 518.218502 70.597199 
L 518.382501 70.597199 
L 518.710501 77.723639 
L 518.8745 74.16366 
L 519.0385 73.194428 
L 519.202499 76.308457 
L 519.366499 76.568323 
L 520.022497 72.051308 
L 520.350497 69.393895 
L 520.514496 72.855363 
L 522.154492 72.855363 
L 522.482492 66.998538 
L 522.646491 67.358428 
L 522.810491 66.316323 
L 522.974491 66.316323 
L 523.30249 63.404879 
L 523.630489 69.518031 
L 523.794489 68.942843 
L 524.450487 71.453841 
L 524.614487 69.235437 
L 524.778486 68.815264 
L 524.942486 69.152785 
L 525.106486 71.192105 
L 525.598484 72.481007 
L 525.762484 75.354272 
L 525.926484 73.631635 
L 526.090483 77.688401 
L 526.254483 77.752588 
L 526.746482 82.180639 
L 527.074481 77.44192 
L 527.238481 79.296896 
L 527.40248 78.506215 
L 527.894479 78.39889 
L 528.058479 80.476016 
L 528.222478 77.540348 
L 528.386478 79.180758 
L 528.550478 78.994643 
L 529.042476 78.994643 
L 529.206476 78.452633 
L 529.370476 72.777538 
L 529.534475 73.107805 
L 529.698475 71.309898 
L 530.190474 71.138355 
L 530.354473 69.210198 
L 530.518473 69.986618 
L 530.846472 66.431984 
L 531.338471 65.655202 
L 531.502471 64.959967 
L 531.66647 63.237633 
L 531.994469 65.272768 
L 532.486468 64.777621 
L 532.650468 65.845825 
L 532.814468 63.627061 
L 533.142467 63.566654 
L 533.798465 63.566654 
L 534.126465 58.994112 
L 534.290464 59.419618 
L 534.454464 59.419618 
L 534.782463 56.516922 
L 534.946463 56.357049 
L 535.110462 54.111842 
L 535.438461 59.148039 
L 536.09446 59.333206 
L 536.25846 58.68408 
L 536.422459 61.458203 
L 536.586459 57.781786 
L 537.242457 53.939918 
L 537.406457 55.125531 
L 537.570456 53.833997 
L 537.734456 55.597419 
L 538.062455 55.597419 
L 538.226455 57.384551 
L 538.390455 57.320207 
L 538.390455 57.320207 
" clip-path="url(#p7c989f0242)" style="fill: none; stroke: #348dc1; stroke-width: 1.5; stroke-linecap: round"/>
   </g>
   <g id="line2d_19">
    <path d="M 47.966 299.751299 
L 561.744 299.751299 
" clip-path="url(#p7c989f0242)" style="fill: none; stroke-dasharray: 3.7,1.6; stroke-dashoffset: 0; stroke: #000000"/>
   </g>
  </g>
  <g id="text_17">
   <!-- Cumulative Returns -->
   <g transform="translate(221.879531 31.620938) scale(0.14 -0.14)">
    <defs>
     <path id="Arial-BoldMT-43" d="M 3397 1684 
L 4294 1400 
Q 4088 650 3608 286 
Q 3128 -78 2391 -78 
Q 1478 -78 890 545 
Q 303 1169 303 2250 
Q 303 3394 893 4026 
Q 1484 4659 2447 4659 
Q 3288 4659 3813 4163 
Q 4125 3869 4281 3319 
L 3366 3100 
Q 3284 3456 3026 3662 
Q 2769 3869 2400 3869 
Q 1891 3869 1573 3503 
Q 1256 3138 1256 2319 
Q 1256 1450 1568 1081 
Q 1881 713 2381 713 
Q 2750 713 3015 947 
Q 3281 1181 3397 1684 
z
" transform="scale(0.015625)"/>
     <path id="Arial-BoldMT-75" d="M 2644 0 
L 2644 497 
Q 2463 231 2167 78 
Q 1872 -75 1544 -75 
Q 1209 -75 943 72 
Q 678 219 559 484 
Q 441 750 441 1219 
L 441 3319 
L 1319 3319 
L 1319 1794 
Q 1319 1094 1367 936 
Q 1416 778 1544 686 
Q 1672 594 1869 594 
Q 2094 594 2272 717 
Q 2450 841 2515 1023 
Q 2581 1206 2581 1919 
L 2581 3319 
L 3459 3319 
L 3459 0 
L 2644 0 
z
" transform="scale(0.015625)"/>
     <path id="Arial-BoldMT-6d" d="M 394 3319 
L 1203 3319 
L 1203 2866 
Q 1638 3394 2238 3394 
Q 2556 3394 2790 3262 
Q 3025 3131 3175 2866 
Q 3394 3131 3647 3262 
Q 3900 3394 4188 3394 
Q 4553 3394 4806 3245 
Q 5059 3097 5184 2809 
Q 5275 2597 5275 2122 
L 5275 0 
L 4397 0 
L 4397 1897 
Q 4397 2391 4306 2534 
Q 4184 2722 3931 2722 
Q 3747 2722 3584 2609 
Q 3422 2497 3350 2280 
Q 3278 2063 3278 1594 
L 3278 0 
L 2400 0 
L 2400 1819 
Q 2400 2303 2353 2443 
Q 2306 2584 2207 2653 
Q 2109 2722 1941 2722 
Q 1738 2722 1575 2612 
Q 1413 2503 1342 2297 
Q 1272 2091 1272 1613 
L 1272 0 
L 394 0 
L 394 3319 
z
" transform="scale(0.015625)"/>
     <path id="Arial-BoldMT-6c" d="M 459 0 
L 459 4581 
L 1338 4581 
L 1338 0 
L 459 0 
z
" transform="scale(0.015625)"/>
     <path id="Arial-BoldMT-61" d="M 1116 2306 
L 319 2450 
Q 453 2931 781 3162 
Q 1109 3394 1756 3394 
Q 2344 3394 2631 3255 
Q 2919 3116 3036 2902 
Q 3153 2688 3153 2116 
L 3144 1091 
Q 3144 653 3186 445 
Q 3228 238 3344 0 
L 2475 0 
Q 2441 88 2391 259 
Q 2369 338 2359 363 
Q 2134 144 1878 34 
Q 1622 -75 1331 -75 
Q 819 -75 523 203 
Q 228 481 228 906 
Q 228 1188 362 1408 
Q 497 1628 739 1745 
Q 981 1863 1438 1950 
Q 2053 2066 2291 2166 
L 2291 2253 
Q 2291 2506 2166 2614 
Q 2041 2722 1694 2722 
Q 1459 2722 1328 2630 
Q 1197 2538 1116 2306 
z
M 2291 1594 
Q 2122 1538 1756 1459 
Q 1391 1381 1278 1306 
Q 1106 1184 1106 997 
Q 1106 813 1243 678 
Q 1381 544 1594 544 
Q 1831 544 2047 700 
Q 2206 819 2256 991 
Q 2291 1103 2291 1419 
L 2291 1594 
z
" transform="scale(0.015625)"/>
     <path id="Arial-BoldMT-74" d="M 1981 3319 
L 1981 2619 
L 1381 2619 
L 1381 1281 
Q 1381 875 1398 808 
Q 1416 741 1477 697 
Q 1538 653 1625 653 
Q 1747 653 1978 738 
L 2053 56 
Q 1747 -75 1359 -75 
Q 1122 -75 931 4 
Q 741 84 652 211 
Q 563 338 528 553 
Q 500 706 500 1172 
L 500 2619 
L 97 2619 
L 97 3319 
L 500 3319 
L 500 3978 
L 1381 4491 
L 1381 3319 
L 1981 3319 
z
" transform="scale(0.015625)"/>
     <path id="Arial-BoldMT-69" d="M 459 3769 
L 459 4581 
L 1338 4581 
L 1338 3769 
L 459 3769 
z
M 459 0 
L 459 3319 
L 1338 3319 
L 1338 0 
L 459 0 
z
" transform="scale(0.015625)"/>
     <path id="Arial-BoldMT-76" d="M 1372 0 
L 34 3319 
L 956 3319 
L 1581 1625 
L 1763 1059 
Q 1834 1275 1853 1344 
Q 1897 1484 1947 1625 
L 2578 3319 
L 3481 3319 
L 2163 0 
L 1372 0 
z
" transform="scale(0.015625)"/>
     <path id="Arial-BoldMT-65" d="M 2381 1056 
L 3256 909 
Q 3088 428 2723 176 
Q 2359 -75 1813 -75 
Q 947 -75 531 491 
Q 203 944 203 1634 
Q 203 2459 634 2926 
Q 1066 3394 1725 3394 
Q 2466 3394 2894 2905 
Q 3322 2416 3303 1406 
L 1103 1406 
Q 1113 1016 1316 798 
Q 1519 581 1822 581 
Q 2028 581 2168 693 
Q 2309 806 2381 1056 
z
M 2431 1944 
Q 2422 2325 2234 2523 
Q 2047 2722 1778 2722 
Q 1491 2722 1303 2513 
Q 1116 2303 1119 1944 
L 2431 1944 
z
" transform="scale(0.015625)"/>
     <path id="Arial-BoldMT-20" transform="scale(0.015625)"/>
     <path id="Arial-BoldMT-52" d="M 469 0 
L 469 4581 
L 2416 4581 
Q 3150 4581 3483 4457 
Q 3816 4334 4016 4018 
Q 4216 3703 4216 3297 
Q 4216 2781 3912 2445 
Q 3609 2109 3006 2022 
Q 3306 1847 3501 1637 
Q 3697 1428 4028 894 
L 4588 0 
L 3481 0 
L 2813 997 
Q 2456 1531 2325 1670 
Q 2194 1809 2047 1861 
Q 1900 1913 1581 1913 
L 1394 1913 
L 1394 0 
L 469 0 
z
M 1394 2644 
L 2078 2644 
Q 2744 2644 2909 2700 
Q 3075 2756 3169 2893 
Q 3263 3031 3263 3238 
Q 3263 3469 3139 3611 
Q 3016 3753 2791 3791 
Q 2678 3806 2116 3806 
L 1394 3806 
L 1394 2644 
z
" transform="scale(0.015625)"/>
     <path id="Arial-BoldMT-72" d="M 1300 0 
L 422 0 
L 422 3319 
L 1238 3319 
L 1238 2847 
Q 1447 3181 1614 3287 
Q 1781 3394 1994 3394 
Q 2294 3394 2572 3228 
L 2300 2463 
Q 2078 2606 1888 2606 
Q 1703 2606 1575 2504 
Q 1447 2403 1373 2137 
Q 1300 1872 1300 1025 
L 1300 0 
z
" transform="scale(0.015625)"/>
     <path id="Arial-BoldMT-6e" d="M 3478 0 
L 2600 0 
L 2600 1694 
Q 2600 2231 2544 2389 
Q 2488 2547 2361 2634 
Q 2234 2722 2056 2722 
Q 1828 2722 1647 2597 
Q 1466 2472 1398 2265 
Q 1331 2059 1331 1503 
L 1331 0 
L 453 0 
L 453 3319 
L 1269 3319 
L 1269 2831 
Q 1703 3394 2363 3394 
Q 2653 3394 2893 3289 
Q 3134 3184 3257 3021 
Q 3381 2859 3429 2653 
Q 3478 2447 3478 2063 
L 3478 0 
z
" transform="scale(0.015625)"/>
     <path id="Arial-BoldMT-73" d="M 150 947 
L 1031 1081 
Q 1088 825 1259 692 
Q 1431 559 1741 559 
Q 2081 559 2253 684 
Q 2369 772 2369 919 
Q 2369 1019 2306 1084 
Q 2241 1147 2013 1200 
Q 950 1434 666 1628 
Q 272 1897 272 2375 
Q 272 2806 612 3100 
Q 953 3394 1669 3394 
Q 2350 3394 2681 3172 
Q 3013 2950 3138 2516 
L 2309 2363 
Q 2256 2556 2107 2659 
Q 1959 2763 1684 2763 
Q 1338 2763 1188 2666 
Q 1088 2597 1088 2488 
Q 1088 2394 1175 2328 
Q 1294 2241 1995 2081 
Q 2697 1922 2975 1691 
Q 3250 1456 3250 1038 
Q 3250 581 2869 253 
Q 2488 -75 1741 -75 
Q 1063 -75 667 200 
Q 272 475 150 947 
z
" transform="scale(0.015625)"/>
    </defs>
    <use xlink:href="#Arial-BoldMT-43"/>
    <use xlink:href="#Arial-BoldMT-75" transform="translate(72.216797 0)"/>
    <use xlink:href="#Arial-BoldMT-6d" transform="translate(133.300781 0)"/>
    <use xlink:href="#Arial-BoldMT-75" transform="translate(222.216797 0)"/>
    <use xlink:href="#Arial-BoldMT-6c" transform="translate(283.300781 0)"/>
    <use xlink:href="#Arial-BoldMT-61" transform="translate(311.083984 0)"/>
    <use xlink:href="#Arial-BoldMT-74" transform="translate(366.699219 0)"/>
    <use xlink:href="#Arial-BoldMT-69" transform="translate(400 0)"/>
    <use xlink:href="#Arial-BoldMT-76" transform="translate(427.783203 0)"/>
    <use xlink:href="#Arial-BoldMT-65" transform="translate(483.398438 0)"/>
    <use xlink:href="#Arial-BoldMT-20" transform="translate(539.013672 0)"/>
    <use xlink:href="#Arial-BoldMT-52" transform="translate(566.796875 0)"/>
    <use xlink:href="#Arial-BoldMT-65" transform="translate(639.013672 0)"/>
    <use xlink:href="#Arial-BoldMT-74" transform="translate(694.628906 0)"/>
    <use xlink:href="#Arial-BoldMT-75" transform="translate(727.929688 0)"/>
    <use xlink:href="#Arial-BoldMT-72" transform="translate(789.013672 0)"/>
    <use xlink:href="#Arial-BoldMT-6e" transform="translate(827.929688 0)"/>
    <use xlink:href="#Arial-BoldMT-73" transform="translate(889.013672 0)"/>
   </g>
  </g>
 </g>
 <defs>
  <clipPath id="p7c989f0242">
   <rect x="47.966" y="41.472" width="513.778" height="271.963926"/>
  </clipPath>
 </defs>
</svg>